<svg id="astronaut" xmlns="http://www.w3.org/2000/svg" xmlns:xlink="http://www.w3.org/1999/xlink" width="344.56" height="495.303" viewBox="0 0 344.56 495.303">
  <defs>
    <linearGradient id="linear-gradient" x1="1.088" y1="0.499" x2="0.003" y2="0.499" gradientUnits="objectBoundingBox">
      <stop offset="0" stop-color="#cc8448"/>
      <stop offset="0.39" stop-color="#c88147"/>
      <stop offset="0.79" stop-color="#bc7744"/>
      <stop offset="1" stop-color="#b27042"/>
    </linearGradient>
    <linearGradient id="linear-gradient-2" x1="1" y1="0.5" x2="0" y2="0.5" gradientUnits="objectBoundingBox">
      <stop offset="0" stop-color="#333"/>
      <stop offset="0.32" stop-color="#373737"/>
      <stop offset="0.65" stop-color="#444141"/>
      <stop offset="0.99" stop-color="#585353"/>
      <stop offset="1" stop-color="#595454"/>
    </linearGradient>
    <linearGradient id="linear-gradient-3" x1="1" y1="0.499" x2="0" y2="0.499" gradientUnits="objectBoundingBox">
      <stop offset="0" stop-color="#848484"/>
      <stop offset="0.18" stop-color="#888"/>
      <stop offset="0.36" stop-color="#959595"/>
      <stop offset="0.54" stop-color="#a9a9a9"/>
      <stop offset="0.73" stop-color="#c6c6c6"/>
      <stop offset="0.91" stop-color="#ebebeb"/>
      <stop offset="1" stop-color="#fff"/>
    </linearGradient>
    <linearGradient id="linear-gradient-4" x1="1.509" y1="0.409" x2="0.134" y2="0.524" gradientUnits="objectBoundingBox">
      <stop offset="0" stop-color="#848484"/>
      <stop offset="0.16" stop-color="#919191"/>
      <stop offset="0.46" stop-color="#b3b3b3"/>
      <stop offset="0.85" stop-color="#e9e9e9"/>
      <stop offset="1" stop-color="#fff"/>
    </linearGradient>
    <linearGradient id="linear-gradient-5" x1="0.902" y1="0.336" x2="0.452" y2="0.546" xlink:href="#linear-gradient"/>
    <linearGradient id="linear-gradient-6" x1="0.434" y1="0.798" x2="0.558" y2="0.312" xlink:href="#linear-gradient-3"/>
    <linearGradient id="linear-gradient-7" x1="0.911" y1="0.578" x2="-0.022" y2="0.42" gradientUnits="objectBoundingBox">
      <stop offset="0" stop-color="#333"/>
      <stop offset="0.14" stop-color="#373737"/>
      <stop offset="0.28" stop-color="#444"/>
      <stop offset="0.42" stop-color="#585858"/>
      <stop offset="0.56" stop-color="#757575"/>
      <stop offset="0.71" stop-color="#9a9a9a"/>
      <stop offset="0.85" stop-color="#c8c8c8"/>
      <stop offset="1" stop-color="#fdfdfd"/>
      <stop offset="1" stop-color="#fff"/>
    </linearGradient>
    <linearGradient id="linear-gradient-8" x1="0.928" y1="0.786" x2="0.042" y2="0.032" gradientUnits="objectBoundingBox">
      <stop offset="0" stop-color="#999"/>
      <stop offset="0.38" stop-color="#9b9b9b"/>
      <stop offset="0.55" stop-color="#a3a3a3"/>
      <stop offset="0.68" stop-color="#afafaf"/>
      <stop offset="0.79" stop-color="#c1c1c1"/>
      <stop offset="0.89" stop-color="#d9d9d9"/>
      <stop offset="0.98" stop-color="#f6f6f6"/>
      <stop offset="1" stop-color="#fff"/>
    </linearGradient>
    <linearGradient id="linear-gradient-9" x1="0.68" y1="0.624" x2="0.196" y2="0.35" xlink:href="#linear-gradient-3"/>
    <linearGradient id="linear-gradient-10" x1="0.887" y1="1.187" x2="0.204" y2="0.157" xlink:href="#linear-gradient-3"/>
    <linearGradient id="linear-gradient-11" x1="0.726" y1="0.782" x2="0.061" y2="0.132" xlink:href="#linear-gradient-7"/>
    <linearGradient id="linear-gradient-12" x1="0.656" y1="0.806" x2="0" y2="0.048" gradientUnits="objectBoundingBox">
      <stop offset="0" stop-color="#999"/>
      <stop offset="0.19" stop-color="#9d9d9d"/>
      <stop offset="0.39" stop-color="#aaa"/>
      <stop offset="0.6" stop-color="#bebebe"/>
      <stop offset="0.8" stop-color="#dbdbdb"/>
      <stop offset="1" stop-color="#fff"/>
    </linearGradient>
    <linearGradient id="linear-gradient-13" x1="1.576" y1="0.234" x2="0.22" y2="0.53" xlink:href="#linear-gradient"/>
    <linearGradient id="linear-gradient-14" x1="0.447" y1="1.206" x2="0.61" y2="-0.214" gradientUnits="objectBoundingBox">
      <stop offset="0" stop-color="#9b6238"/>
      <stop offset="0.42" stop-color="#9f653a"/>
      <stop offset="0.84" stop-color="#ab6c3f"/>
      <stop offset="1" stop-color="#b27042"/>
    </linearGradient>
    <linearGradient id="linear-gradient-15" x1="0.96" y1="0.167" x2="0.217" y2="0.787" gradientUnits="objectBoundingBox">
      <stop offset="0" stop-color="#5c3f27"/>
      <stop offset="1" stop-color="#7f481f"/>
    </linearGradient>
    <linearGradient id="linear-gradient-16" x1="1" y1="0.5" y2="0.5" xlink:href="#linear-gradient-3"/>
    <linearGradient id="linear-gradient-17" x1="1" y1="0.499" y2="0.499" xlink:href="#linear-gradient-3"/>
    <linearGradient id="linear-gradient-18" x1="0.999" y1="0.499" x2="-0.001" y2="0.499" xlink:href="#linear-gradient-3"/>
    <linearGradient id="linear-gradient-19" x1="0.995" y1="0.437" x2="0.004" y2="0.437" gradientUnits="objectBoundingBox">
      <stop offset="0"/>
      <stop offset="0.12" stop-color="#040404"/>
      <stop offset="0.25" stop-color="#111"/>
      <stop offset="0.37" stop-color="#252525"/>
      <stop offset="0.5" stop-color="#424242"/>
      <stop offset="0.63" stop-color="#676767"/>
      <stop offset="0.76" stop-color="#959595"/>
      <stop offset="0.89" stop-color="#cacaca"/>
      <stop offset="1" stop-color="#fff"/>
    </linearGradient>
    <linearGradient id="linear-gradient-20" x1="1.004" y1="0.501" x2="-0.003" y2="0.501" xlink:href="#linear-gradient-19"/>
    <linearGradient id="linear-gradient-21" x1="1" y1="0.501" y2="0.501" xlink:href="#linear-gradient-3"/>
    <linearGradient id="linear-gradient-22" x1="1" y1="0.499" x2="0" y2="0.499" gradientUnits="objectBoundingBox">
      <stop offset="0"/>
      <stop offset="0.37" stop-color="#020202"/>
      <stop offset="0.51" stop-color="#090909"/>
      <stop offset="0.6" stop-color="#141414"/>
      <stop offset="0.68" stop-color="#252525"/>
      <stop offset="0.75" stop-color="#3b3b3b"/>
      <stop offset="0.8" stop-color="#575757"/>
      <stop offset="0.86" stop-color="#777"/>
      <stop offset="0.91" stop-color="#9d9d9d"/>
      <stop offset="0.95" stop-color="#c8c8c8"/>
      <stop offset="0.99" stop-color="#f6f6f6"/>
      <stop offset="1" stop-color="#fff"/>
    </linearGradient>
    <linearGradient id="linear-gradient-23" x1="0.719" y1="0.975" x2="0.508" y2="0.251" gradientUnits="objectBoundingBox">
      <stop offset="0" stop-color="#2af6ff"/>
      <stop offset="0.17" stop-color="#48f2ff" stop-opacity="0.8"/>
      <stop offset="0.47" stop-color="#7aecff" stop-opacity="0.459"/>
      <stop offset="0.72" stop-color="#9fe7ff" stop-opacity="0.212"/>
      <stop offset="0.91" stop-color="#b6e4ff" stop-opacity="0.059"/>
      <stop offset="1" stop-color="#bfe3ff" stop-opacity="0"/>
    </linearGradient>
  </defs>
  <path id="Path_412" data-name="Path 412" d="M96.445,67.651a4.758,4.758,0,0,0,1.53,3.672c.122-1.744.2-3.488.2-5.2V63.75a4.758,4.758,0,0,0-1.729,3.9Z" transform="translate(111.071 33.835)" fill="url(#linear-gradient)"/>
  <path id="Path_413" data-name="Path 413" d="M56.559,214.769l39.5-95.131,15.774-5.584s18.68-3.7,1.408,25.106L77.58,234.612C73.281,247.632,59.91,285.8,33,266.419l-5.018-3.534Z" transform="translate(193.413 60.41)" fill="url(#linear-gradient-2)"/>
  <path id="Path_438" data-name="Path 438" d="M117.76,153.314a11.049,11.049,0,0,1,7.925-.7,46.119,46.119,0,0,1,23.637,15.574l2.02-3.24,1.668-2.679c2.127-3.426,4.223-6.822,6.3-10.139,7.757-12.46,14.917-24.047,20.333-32.706,4.59-7.476,8.06-12.735,9.376-14.869,0,0-53.27,7.471-70.833,47.746A10.414,10.414,0,0,0,117.76,153.314Z" transform="translate(-12.305 55.382)" fill="url(#linear-gradient-3)"/>
  <path id="Path_414" data-name="Path 414" d="M42.71,167.932a60.621,60.621,0,0,1,4.59,5.951,54.22,54.22,0,0,1,4.467,7.849,14.871,14.871,0,0,1,7.65,1.974V173.562a3.152,3.152,0,0,1,3.917-3.06l36.535,9.18a3.136,3.136,0,0,1,2.387,3.06v8.812c12.239,2.1,31.471,16.523,31.471,16.523a2.126,2.126,0,0,1,0-.581h0a2.173,2.173,0,0,1-.092-.321,106.269,106.269,0,0,1,35.479-10.052c-.275-1.117-11.551-49.157,5.079-65.787,4.911-4.911,13.219-4.085,22.123.872.551-2.54.826-3.932.826-3.932C96,126.746,90.291,94.939,83.039,104.409q-.321.413-.643.918c-1.316,2.1-4.59,7.4-9.287,14.748a124.791,124.791,0,0,1,12.239,3.549c4.911,1.744,10.006,4.024,12.607,6.625a4.59,4.59,0,0,1,1.071,4.59c-2.387,7.252-12.1,32.465-29.925,23.806L63.364,156.4,52.838,152.25c-2.081,3.259-4.177,6.594-6.3,9.96l-1.668,2.631Z" transform="translate(94.307 54.45)" fill="url(#linear-gradient-4)"/>
  <path id="Path_415" data-name="Path 415" d="M48.969,81.009h0c.122-1.749.2-3.5.2-5.218,0-.813,0-1.535.076-2.379A25.579,25.579,0,0,1,52.718,61.3h.153a15.291,15.291,0,0,0,13.066-7.673A11.209,11.209,0,0,0,78.65,46.48a23.975,23.975,0,0,1,2.754-.66,14.3,14.3,0,0,0,8.231,2.532,13.983,13.983,0,0,0,8.124-2.409h0l1.53.338a10.15,10.15,0,0,0,8.308,4.328,9.825,9.825,0,0,0,2.4-.338h0c.428.215.841.445,1.239.675a8.772,8.772,0,0,0,4.59,3.775,5.468,5.468,0,0,0,0,.706,7.312,7.312,0,0,0,6.12,6.783,6.151,6.151,0,0,0,.673,9.1,7.4,7.4,0,0,0-1.392,4.466,6.746,6.746,0,0,0,2.341,5.417c-.459,14.916-4.1,34.237-18.833,41.312-4.942,2.379-11.123,3.376-18.864,2.379a82.1,82.1,0,0,1-21.128-5.126C44.533,111.164,48.006,95.741,48.969,81.009ZM96.719,93.286s-4.789.338-10.709.629a8.016,8.016,0,0,0,1.882-1.335c3.06-3.069-5.309-24-9.639-15.346-2.295,4.6-6.41,14.026-4.88,17.1a48.063,48.063,0,0,1-8.889-.384c4.3,7.581,30.216,34.329,32.236-.614Z" transform="translate(159.587 24.333)" fill="url(#linear-gradient-5)"/>
  <path id="Path_416" data-name="Path 416" d="M83.6,177.539a30.6,30.6,0,0,0,9.18,2.356s11.2,24.632,28.594,19.889a20.638,20.638,0,0,0,4.421-1.79c8.659-4.957-.7-20.914-4.59-26.835-.918-1.392-1.53-2.234-1.53-2.234h1.53c3.458-.107,11.276-.612,7.65-3.06-2.662-1.775-4.819-4.07-7.65-5.676v-10.1a3.152,3.152,0,0,1,3.917-3.06l36.535,9.18a3.136,3.136,0,0,1,2.387,3.06v8.812c-9.593-1.637-3.213,9.271,0,14.075.887,1.331,1.53,2.188,1.53,2.188a11.106,11.106,0,0,0-1.53-.092A10.71,10.71,0,0,0,153.334,192c-2.784,8.353-1.316,14.228,10.71,18.053,5.829,1.867,14.137,3.228,25.642,4.177-.689,1.438,9.99,5.248,25.091,7.94a152.533,152.533,0,0,1-20.838,26.82A89.959,89.959,0,0,1,176.6,262.756a33.751,33.751,0,0,0-6.242-8.323,57.48,57.48,0,0,0-29.436-15.972,66.338,66.338,0,0,0-33.322,1.3c1.331-4.789,1.117-11.26-1.7-20.287-4.59-16.829-30.6-22.949-30.6-22.949H71.59C75.063,191.064,79.163,184.577,83.6,177.539Z" transform="translate(32.488 77.919)" fill="url(#linear-gradient-6)"/>
  <path id="Path_417" data-name="Path 417" d="M95.866,202.894c5.829,1.867,14.2,3.068,25.7,4.016,2.356-4.835,7.3-16.829,5.829-29.619,0,0-19.231-14.427-31.471-16.523-9.593-1.637-3.213,9.271,0,14.075.887,1.331,1.53,2.188,1.53,2.188a13.949,13.949,0,0,0-1.7-.236,10.853,10.853,0,0,0-10.719,7.9C82.253,193.044,83.841,199.069,95.866,202.894Z" transform="translate(100.591 85.159)" fill="#7f7f7f"/>
  <path id="Path_418" data-name="Path 418" d="M180.1,279.927s3.718,7.435,2.234,14.5A12.5,12.5,0,0,1,180.7,298.3c-7.084,11.352-37.789,57.724-46.495,50.488-9.18-7.65,12.148-55.077,12.148-55.077l4.36-11.245S175.5,267.382,180.1,279.927Z" transform="translate(-27.711 145.751)" fill="url(#linear-gradient-7)"/>
  <path id="Path_419" data-name="Path 419" d="M127.1,176.064s11.248,24.558,28.644,19.815a20.639,20.639,0,0,0,4.421-1.79c8.659-4.957-.7-20.914-4.59-26.835-.918-1.392-1.53-2.234-1.53-2.234h1.53c3.458-.107,11.276-.612,7.65-3.06-2.662-1.775-4.819-4.07-7.65-5.676a14.871,14.871,0,0,0-7.65-1.974C133.328,161.088,128.566,171.2,127.1,176.064Z" transform="translate(-1.895 81.825)" fill="#7f7f7f"/>
  <path id="Path_420" data-name="Path 420" d="M167.44,316.44a14.4,14.4,0,0,0,4.5,1.53c10.709,2.111,30.92-.688,32.22-4.59,4.682-27.187-2.48-50.561-8.967-64.453a85.779,85.779,0,0,0-7.529-13.431c-13.142-13.479-49.291-1.672-52.351,2.918-.337.444-.658.9-.949,1.362h0C118.559,264.729,159.928,311.942,167.44,316.44Z" transform="translate(-48.95 121.477)" fill="url(#linear-gradient-8)"/>
  <path id="Path_421" data-name="Path 421" d="M139.272,216.376c11.979,4.467,24.326,30.6,27,40.558,12.637.857,48.285-1.53,64.609-2.478,3.32-3.886,2.784-4.59,6.7-7.818,5.309-4.467,5.431-7.512,11.842-10.082,1.331-6.319,1.39-15.4-1.425-27.321-4.59-22.245-33.3-31.306-35.6-31.245C196.307,178.495,145.193,201.138,139.272,216.376Z" transform="translate(-106.458 94.374)" fill="url(#linear-gradient-9)"/>
  <path id="Path_422" data-name="Path 422" d="M94.57,255.432c.291-.459.612-.918.949-1.362,3.06-4.59,39.778-15.3,52.018-3.06a89.763,89.763,0,0,1,7.65,13.769c57.525-12.744,71.249-25.55,64.5-39.365a33.75,33.75,0,0,0-6.242-8.323,57.479,57.479,0,0,0-29.436-15.972,66.337,66.337,0,0,0-33.322,1.3,71.143,71.143,0,0,0-17.579,8.17,86.827,86.827,0,0,0-10.878,8.2A122.394,122.394,0,0,0,94.57,255.432Z" transform="translate(-9.157 105.821)" fill="url(#linear-gradient-10)"/>
  <path id="Path_423" data-name="Path 423" d="M245.464,250.98s9.18,2.876,6.655,11.888S200.1,302.417,200.1,302.417s-17.808,1.453,27.982-45.209l-1.255-7.267Z" transform="translate(-196.693 132.502)" fill="url(#linear-gradient-11)"/>
  <path id="Path_424" data-name="Path 424" d="M197.618,289.189c4.59.5,12.79-1.744,21.327-1.744a4.269,4.269,0,0,0,2.2-.688c7.726-4.789,14.351-41.094,14.121-41.844-2.478-8.537-18.359-53.1-34.408-42.5h0a14.2,14.2,0,0,0-3.228,3.06C179.151,228.145,193.1,288.684,197.618,289.189Z" transform="translate(-166.594 106.457)" fill="url(#linear-gradient-12)"/>
  <path id="Path_425" data-name="Path 425" d="M43.877,66.882a6.611,6.611,0,0,0,2.426,5.4A3.716,3.716,0,0,0,48.459,73c2.521,0,4.582-2.739,4.582-6.12a7.44,7.44,0,0,0-1.015-3.825A6.4,6.4,0,0,1,49.2,63.7a6.659,6.659,0,0,1-2.981-.7,6.818,6.818,0,0,1-.9-.566A7.182,7.182,0,0,0,43.877,66.882Z" transform="translate(236.633 33.135)" fill="url(#linear-gradient-13)"/>
  <path id="Path_426" data-name="Path 426" d="M74.258,69.767a8.613,8.613,0,0,0-1.53-4.391,6.211,6.211,0,0,0-4.07-2.739,7.772,7.772,0,0,0-4.773.841c-.673.413-1.346.811-1.958,1.255A10.829,10.829,0,0,0,60.29,66.34a15.085,15.085,0,0,0,2.249-.566c.719-.2,1.423-.337,2.065-.535a9.776,9.776,0,0,1,3.6-.184,6.12,6.12,0,0,1,3.06,1.53,28.931,28.931,0,0,1,3,3.182Z" transform="translate(190.294 33.204)" fill="#4c2c12"/>
  <path id="Path_427" data-name="Path 427" d="M96.282,139.516C115.59,95.592,94.354,43.7,48.717,23.685A92.438,92.438,0,0,0,9.5,15.822,90.817,90.817,0,0,1,95.5,9.4c45.577,20.011,66.873,71.907,47.565,115.831-13.876,31.593-44.949,50.488-78.256,51.207a84.146,84.146,0,0,0,31.471-36.917Z" transform="translate(192.061 0.846)" fill="#fff" opacity="0.26"/>
  <path id="Path_428" data-name="Path 428" d="M95.762,67.687a13.892,13.892,0,0,0-1.53-1.453c-.566-.413-1.163-.811-1.775-1.178a11.291,11.291,0,0,0-4.07-1.53,6.533,6.533,0,0,0-4.437.78l-.872.75a5.216,5.216,0,0,0-.688.872L82.1,66.4l-.184.5a8.674,8.674,0,0,0-.337,1.01,10.831,10.831,0,0,1,3.274-1.958,8.215,8.215,0,0,1,3.182,0,30.25,30.25,0,0,1,3.611.78A38.124,38.124,0,0,0,95.762,67.687Z" transform="translate(136.218 33.661)" fill="#4c2c12"/>
  <path id="Path_429" data-name="Path 429" d="M54.78,106.775l3.06,1.255,3.213,1.239c1.086.413,2.2.826,3.335,1.224l3.366,1.178c1.178.4,2.371.8,3.58,1.163l3.626,1.117c2.173.643,4.391,1.27,6.655,1.836l1.392.352c1.132.291,2.264.566,3.427.811l1.882.413c1.316.291,2.647.551,3.993.811a159.112,159.112,0,0,0,16.615,2.28c1.423.107,2.846.214,4.284.291l2.1.092c-11.337-1.239-8.69-24.1-8.69-24.1C101.672,99.11,95.491,100.1,87.75,99.11A82.311,82.311,0,0,1,66.652,94S61.42,107.188,54.78,106.775Z" transform="translate(157.678 49.865)" fill="url(#linear-gradient-14)"/>
  <path id="Path_430" data-name="Path 430" d="M65.68,77.475c4.361,7.552,30.555,34.469,32.6-.695,0,0-4.84.34-10.824.633-4.129,2.193-11.474,3.089-12.772.448a48.785,48.785,0,0,1-9-.386Z" transform="translate(158.203 40.658)" fill="#fff"/>
  <path id="Path_431" data-name="Path 431" d="M71.408,84.113c1.285,2.586,8.552,1.729,12.637-.444a10.187,10.187,0,0,0,2.169-1.432c3.06-3.06-5.36-24.273-9.926-15.2C74.07,71.659,69.878,81.053,71.408,84.113Z" transform="translate(161.459 34.478)" fill="#b26530"/>
  <path id="Path_432" data-name="Path 432" d="M57.819,35.228a14.825,14.825,0,0,1,7.787,2.234,11.168,11.168,0,0,1,7.359-2.83,11.536,11.536,0,0,1,9.853,5.8A12.836,12.836,0,0,1,94.6,33.744,13.219,13.219,0,0,1,105.767,39.3,10.113,10.113,0,0,1,122.6,46.258a11.735,11.735,0,0,1,2.218-.214c5.248,0,9.516,3.519,9.516,7.879a6.41,6.41,0,0,1-.382,2.157,6.426,6.426,0,0,1,.2,11.321,6.12,6.12,0,0,1-.107,10.862,6,6,0,0,1-2.723.643,6.944,6.944,0,0,1-3.089-.414,8.666,8.666,0,0,1-.959-.713c-1.147-.887-1.37-.932-1.645-2.385l-.243-1.109c0-.138-.333-.481-.333-.618a9.939,9.939,0,0,0-.921-2.4,37.989,37.989,0,0,0-5.324-6.288,19.231,19.231,0,0,0-3.519-3.06,15.3,15.3,0,0,0-4.07-1.668c-8.384-2.295-17.288-1.239-25.917-.168a82.787,82.787,0,0,0-9.516,1.53,14.8,14.8,0,0,1-6.288.765l-.262.236a14.57,14.57,0,0,1-11.267,5.127h-.631A15.727,15.727,0,0,1,42.305,51.429a15.835,15.835,0,0,1,15.513-16.2Z" transform="translate(154.639 17.928)" fill="url(#linear-gradient-15)"/>
  <path id="Path_433" data-name="Path 433" d="M18.672,205.2c-.742,1.424,9.99,5.248,25.091,7.94,7.237,1.3,15.391,2.524,23.668,3.3,26.789,2.586,54.817.627,57.173-18.176a32.128,32.128,0,0,0-1.53-13.769h0c-5.37-14.6-22.566-19.675-41.2-20.516-4.682-.214-9.47-.168-14.2,0-2.631.138-5.248.321-7.8.551a106.268,106.268,0,0,0-35.479,10.052,2.174,2.174,0,0,0,.092.321h0a2.127,2.127,0,0,0,0,.581C25.97,188.367,21.028,200.362,18.672,205.2Z" transform="translate(203.486 86.873)" fill="url(#linear-gradient-16)"/>
  <path id="Path_434" data-name="Path 434" d="M22.076,188.241c2.555-.229,5.171-.413,7.8-.551a125.584,125.584,0,0,1,14.2,0c18.635.841,35.831,5.921,41.2,20.516,7.894-26.927-3.5-53.547-18.635-70.468a68.142,68.142,0,0,0-17.109-14.575c-8.9-4.957-17.467-5.544-22.378-.633C10.525,139.084,21.8,187.124,22.076,188.241Z" transform="translate(241.268 63.24)" fill="url(#linear-gradient-17)"/>
  <path id="Path_435" data-name="Path 435" d="M127.2,113.968a121.578,121.578,0,0,1,12.058,3.582c4.911,1.744,10.3,3.992,12.9,6.593a5.391,5.391,0,0,1,.855,5.061c-2.387,7.252-12.181,32.026-30,23.367l-5.849-2.09-10.478-4.134C114.379,134.06,121.784,122.489,127.2,113.968Zm16.143,14.811a5.737,5.737,0,0,0-6.013-5.416,5.263,5.263,0,0,0-.7,0,5.645,5.645,0,0,0-5.309,5.37,4.927,4.927,0,0,0,.688,2.524,6.12,6.12,0,0,0,5.324,2.876,5.737,5.737,0,0,0,6.013-5.385Zm-14.519,19.2a4.467,4.467,0,1,0-5.033-4.437,4.758,4.758,0,0,0,5.033,4.406Z" transform="translate(40.322 60.464)" fill="url(#linear-gradient-18)"/>
  <path id="Path_436" data-name="Path 436" d="M119.369,135.009a5.284,5.284,0,1,0,5.237-4.616,4.95,4.95,0,0,0-5.237,4.616Z" transform="translate(44.54 68.941)" fill="url(#linear-gradient-19)"/>
  <path id="Path_437" data-name="Path 437" d="M113.194,125.653a5.043,5.043,0,0,0,.7,2.584,6.265,6.265,0,0,0,5.451,2.945,5.56,5.56,0,1,0,0-11.074,5.385,5.385,0,0,0-.72,0,5.78,5.78,0,0,0-5.435,5.545Z" transform="translate(58.334 63.559)" fill="url(#linear-gradient-20)"/>
  <path id="Path_439" data-name="Path 439" d="M156.265,183.979a30.372,30.372,0,0,0,9.157,2.3c1.53-4.865,6.255-14.929,20.912-21.66a54.392,54.392,0,0,0-4.414-7.9,62.265,62.265,0,0,0-4.688-6,46.263,46.263,0,0,0-23.694-15.255,11.23,11.23,0,0,0-7.925.689C133.144,142.627,134.647,174.692,156.265,183.979Z" transform="translate(-40.189 71.615)" fill="url(#linear-gradient-21)"/>
  <path id="Path_440" data-name="Path 440" d="M63.413,169.3a92.928,92.928,0,0,0,68.005,2.876,88,88,0,0,0,29.91-17.64,85.446,85.446,0,0,0,28.227-62.36,88.216,88.216,0,0,0-6.579-34.622,92.453,92.453,0,0,0-19.522-29.5A94.4,94.4,0,0,0,99.749.018a92.01,92.01,0,0,0-34.928,5.63,88.154,88.154,0,0,0-30,18.527A85.477,85.477,0,0,0,8,87.224a88.186,88.186,0,0,0,7.328,33.98,92.9,92.9,0,0,0,48.086,48.1Zm0,0a93.112,93.112,0,0,1-28.457-19.6,89.592,89.592,0,0,1-19.032-28.747A85.875,85.875,0,0,1,9.468,87.3,83.213,83.213,0,0,1,37.007,26.593,85.905,85.905,0,0,1,66.182,9.442,91.337,91.337,0,0,1,179.275,59.1,86,86,0,0,1,186.5,92.181a83.259,83.259,0,0,1-26.085,61.35A85.676,85.676,0,0,1,131.2,171.569a89.868,89.868,0,0,1-34.041,5.447,93.433,93.433,0,0,1-33.75-7.711Z" transform="translate(154.996 0.034)" fill="#fff"/>
  <path id="Path_441" data-name="Path 441" d="M41,109.24c17.625,11.673,64.073,22.092,97.365,23.821,2.142.122,4.238.2,6.257.229h7.4q1.53,0,3.06-.138c9.73-.291,13.463-4.5,13.907-8.216h0c.413-3.335-3.335-7.527-6.242-6.808-1.775.321-5.171,2.111-6.931,2.341a84.972,84.972,0,0,1-13.968.857H136.8a16.016,16.016,0,0,1-2.1-.092c-1.438,0-2.861-.168-4.284-.291a151.468,151.468,0,0,1-16.615-2.28c-1.346-.245-2.677-.5-3.993-.811q-.933-.184-1.882-.413c-1.163-.245-2.295-.52-3.427-.811l-1.392-.352c-2.264-.566-4.483-1.193-6.655-1.836l-3.626-1.117c-1.209-.367-2.4-.765-3.58-1.163l-3.366-1.178c-1.132-.4-2.249-.811-3.335-1.224l-3.213-1.239-3.06-1.255h0A255.49,255.49,0,0,1,50.99,95.027,13.616,13.616,0,0,0,41.9,93.6a12.24,12.24,0,0,0-5.737,2.754C28.455,102.768,41,109.24,41,109.24Z" transform="translate(136.27 49.527)" fill="url(#linear-gradient-22)"/>
  <path id="Path_512" data-name="Path 512" d="M114.892,197.726l35.7-20.817L158.212,0,0,85.962Z" transform="translate(230.413 15.698) rotate(49)" fill="url(#linear-gradient-23)"/>
  <path id="Path_443" data-name="Path 443" d="M104.76,171.206c3.886,5.921,13.249,21.878,4.59,26.835a20.638,20.638,0,0,1-4.421,1.79,3.167,3.167,0,0,0,2.02,1.974l36.519,11.735a3.152,3.152,0,0,0,4.131-3.06v-.335c-12.025-3.825-13.494-9.93-10.71-18.284a10.71,10.71,0,0,1,10.709-7.741V159.272a3.136,3.136,0,0,0-2.387-3.06l-36.535-9.18a3.152,3.152,0,0,0-3.917,3.06Z" transform="translate(48.919 77.919)"/>
  <path id="Path_444" data-name="Path 444" d="M94.544,12.829A4.314,4.314,0,0,0,91.729,12a6.7,6.7,0,0,0-2.693.78,7.007,7.007,0,0,0-2.081,1.7A6.12,6.12,0,0,0,85.64,16.96a8.262,8.262,0,0,0,2.693-.52,14.778,14.778,0,0,0,2.157-.964c.658-.367,1.285-.75,1.912-1.163A19.188,19.188,0,0,0,94.544,12.829Z" transform="translate(131.224 6.408)" fill="#fff"/>
  <path id="Path_445" data-name="Path 445" d="M123.869,18.26A34.959,34.959,0,0,0,113.5,24.227,48.958,48.958,0,0,0,105.2,32.9a48.439,48.439,0,0,0-5.936,10.465A34.469,34.469,0,0,0,96.56,55.009c1.989-3.473,3.871-6.793,5.921-10.006s4.161-6.334,6.41-9.363,4.59-5.967,7.1-8.828S121.115,21.167,123.869,18.26Z" transform="translate(85.193 9.729)" fill="#fff"/>
</svg>
