<svg xmlns="http://www.w3.org/2000/svg" xmlns:xlink="http://www.w3.org/1999/xlink" width="1920" height="1260" viewBox="0 0 1920 1260"><defs><clipPath id="a"><rect width="1920" height="818" fill="#fff"/></clipPath><radialGradient id="b" cx="-7.581" cy="3.036" r="15.239" gradientTransform="matrix(-0.519, 0, 0, 0.842, 1370.39, -22.051)" gradientUnits="objectBoundingBox"><stop offset="0" stop-color="#fff"/><stop offset="0.573" stop-color="#3e8def"/></radialGradient><radialGradient id="c" cx="16.164" cy="-16.217" r="53.104" gradientTransform="matrix(0.692, -0.57, -0.448, -0.766, 64.556, 347.892)" xlink:href="#b"/><radialGradient id="d" cx="12.124" cy="-9.547" r="13.491" gradientTransform="matrix(-0.842, 0, 0, 0.842, 939.805, -10.656)" xlink:href="#b"/><radialGradient id="e" cx="2.494" cy="-2.449" r="6.745" gradientTransform="matrix(-0.842, 0, 0, 0.842, 463.361, -4.961)" xlink:href="#b"/><radialGradient id="f" cx="5.567" cy="3.853" r="5.683" gradientTransform="matrix(-0.842, 0, 0, 0.842, 889.077, -9.756)" xlink:href="#b"/><radialGradient id="g" cx="-4.272" cy="-35.076" r="53.103" gradientTransform="matrix(0.692, -0.57, -0.448, -0.766, 116.421, 539.847)" xlink:href="#b"/><radialGradient id="h" cx="0.5" cy="0.5" r="0.738" gradientTransform="matrix(-0.583, 0, 0, 0.842, 76.47, 0.196)" xlink:href="#b"/><radialGradient id="i" cx="0.5" cy="0.5" r="0.594" gradientTransform="matrix(0.842, 0, 0, -0.842, 0.483, 32.192)" xlink:href="#b"/><radialGradient id="j" cx="25.937" cy="-11.309" r="53.105" gradientTransform="matrix(-0.721, -0.517, 0.406, -0.798, 225.426, 229.754)" xlink:href="#b"/><radialGradient id="k" cx="5.271" cy="-35.076" r="53.103" gradientTransform="matrix(-0.721, -0.517, 0.406, -0.798, 245.016, 190.864)" xlink:href="#b"/><radialGradient id="l" cx="2.431" cy="-2.802" r="3.802" gradientTransform="matrix(-0.832, 0, 0, 0.842, 923.106, -3.857)" xlink:href="#b"/><radialGradient id="m" cx="-4.567" cy="3.853" r="5.684" gradientTransform="matrix(-0.842, 0, 0, 0.842, 960.175, -3.097)" xlink:href="#b"/><radialGradient id="n" cx="5.567" cy="1.134" r="5.683" gradientTransform="matrix(-0.842, 0, 0, 0.842, 978.862, -3.526)" xlink:href="#b"/><radialGradient id="o" cx="0.5" cy="0.5" r="0.594" gradientTransform="matrix(0.842, 0, 0, -0.842, -0.414, 33.556)" xlink:href="#b"/><radialGradient id="p" cx="0.948" cy="5.587" r="4.788" gradientTransform="matrix(-0.026, 1, 0.999, 0.037, 536.726, -519.655)" xlink:href="#b"/><radialGradient id="q" cx="-11.946" cy="24.926" r="48.131" gradientTransform="matrix(-0.406, -0.876, -0.8, 0.523, 228.223, 138.158)" xlink:href="#b"/><radialGradient id="r" cx="-15.268" cy="-15.401" r="48.122" gradientTransform="matrix(-0.406, -0.876, -0.8, 0.523, 216.931, 131.59)" xlink:href="#b"/><radialGradient id="s" cx="-0.71" cy="-4.713" r="4.805" gradientTransform="matrix(-0.026, 1, 0.999, 0.037, 478.69, -463.459)" xlink:href="#b"/><radialGradient id="t" cx="-0.915" cy="-1.226" r="2.94" gradientTransform="matrix(-0.022, 1, 0.854, 0.037, 230.575, -246.263)" xlink:href="#b"/><radialGradient id="u" cx="4.036" cy="-4.441" r="4.789" gradientTransform="matrix(-0.026, 1, 0.999, 0.037, 448.43, -434.192)" xlink:href="#b"/><radialGradient id="v" cx="0.5" cy="0.5" r="0.594" gradientTransform="matrix(0.842, 0, 0, -0.842, -2.08, -27.489)" xlink:href="#b"/><radialGradient id="w" cx="0.5" cy="0.5" r="0.594" gradientTransform="matrix(0.842, 0, 0, -0.842, 0.222, -33.207)" xlink:href="#b"/><radialGradient id="x" cx="-10.639" cy="-25.996" r="51.08" gradientTransform="matrix(-0.465, 0.834, -0.745, -0.584, 275.425, 349.441)" xlink:href="#b"/><radialGradient id="y" cx="-17.214" cy="15.92" r="51.089" gradientTransform="matrix(-0.464, 0.834, -0.745, -0.584, 294.019, 374.474)" xlink:href="#b"/><radialGradient id="z" cx="-35.764" cy="-5.724" r="51.078" gradientTransform="matrix(-0.465, 0.834, -0.745, -0.584, 135.979, 189.12)" xlink:href="#b"/><radialGradient id="aa" cx="1.919" cy="-0.685" r="2.402" gradientTransform="matrix(-0.026, 1, 0.999, 0.037, 152.578, -147.824)" xlink:href="#b"/><radialGradient id="ab" cx="-1.51" cy="-1.69" r="9.61" gradientTransform="matrix(-0.026, 1, 0.999, 0.037, 599.842, -581.11)" xlink:href="#b"/><radialGradient id="ac" cx="-0.979" cy="1.894" r="2.394" gradientTransform="matrix(-0.026, 1, 0.999, 0.037, 286.323, -277.35)" xlink:href="#b"/><radialGradient id="ad" cx="3.8" cy="7.572" r="6.714" gradientTransform="matrix(-0.02, 1, 0.749, 0.037, 604.323, -693.656)" xlink:href="#b"/><radialGradient id="ae" cx="1.319" cy="-4.541" r="4.789" gradientTransform="matrix(-0.026, 1, 0.999, 0.037, 584.334, -566.003)" xlink:href="#b"/><radialGradient id="af" cx="5.56" cy="-0.087" r="5.681" gradientTransform="matrix(-0.842, 0, 0, 0.842, 218.537, -7.213)" xlink:href="#b"/><radialGradient id="ag" cx="25.788" cy="12.399" r="52.969" gradientTransform="matrix(-0.723, 0.512, 0.402, 0.8, -241.226, 71.168)" xlink:href="#b"/><radialGradient id="ah" cx="-15.198" cy="17.081" r="52.969" gradientTransform="matrix(-0.723, 0.512, 0.402, 0.8, -265.54, 78.26)" xlink:href="#b"/><radialGradient id="ai" cx="5.66" cy="3.757" r="5.702" gradientTransform="matrix(-0.842, 0, 0, 0.842, 199.257, -3.182)" xlink:href="#b"/><radialGradient id="aj" cx="1.749" cy="-0.951" r="2.962" gradientTransform="matrix(-0.811, 0, 0, 0.842, 96.015, -2.111)" xlink:href="#b"/><radialGradient id="ak" cx="-4.659" cy="1.853" r="5.702" gradientTransform="matrix(-0.842, 0, 0, 0.842, 180.218, -3.483)" xlink:href="#b"/><radialGradient id="al" cx="-4.56" cy="-2.859" r="5.682" gradientTransform="matrix(-0.842, 0, 0, 0.842, 334.167, -5.66)" xlink:href="#b"/><radialGradient id="am" cx="5.075" cy="35.983" r="52.969" gradientTransform="matrix(-0.724, 0.512, 0.402, 0.8, -263.367, 74.662)" xlink:href="#b"/><radialGradient id="an" cx="0.5" cy="0.5" r="0.736" gradientTransform="matrix(-0.585, 0, 0, 0.842, 19.515, -2.059)" xlink:href="#b"/><radialGradient id="ao" cx="0.5" cy="0.5" r="0.594" gradientTransform="matrix(0.842, 0, 0, -0.842, -6.487, -13.435)" xlink:href="#b"/><radialGradient id="ap" cx="-25.082" cy="12.218" r="53.249" gradientTransform="matrix(0.69, 0.574, -0.452, 0.765, -56.407, 238.102)" xlink:href="#b"/><radialGradient id="aq" cx="16.13" cy="17.355" r="53.249" gradientTransform="matrix(0.69, 0.574, -0.451, 0.765, -48.953, 222.706)" xlink:href="#b"/><radialGradient id="ar" cx="0.894" cy="-0.871" r="1.874" gradientTransform="matrix(-0.842, 0, 0, 0.842, 151.663, -6.244)" xlink:href="#b"/><radialGradient id="as" cx="-1.439" cy="3.747" r="3.754" gradientTransform="matrix(-0.843, 0, 0, 0.842, 297.949, -11.641)" xlink:href="#b"/><radialGradient id="at" cx="0.5" cy="0.5" r="0.739" gradientTransform="matrix(-0.581, 0, 0, 0.842, 20.318, -1.466)" xlink:href="#b"/><radialGradient id="au" cx="0.541" cy="0.5" r="0.594" gradientTransform="matrix(0.911, 0, 0, -0.842, -4.842, -8.412)" xlink:href="#b"/><radialGradient id="av" cx="26.819" cy="-1.872" r="45.917" gradientTransform="matrix(-0.353, 0.908, 0.845, 0.463, -30.397, 21.35)" xlink:href="#b"/><radialGradient id="aw" cx="26.822" cy="-1.873" r="45.909" gradientTransform="matrix(-0.353, 0.908, 0.845, 0.463, 57.779, -37.172)" xlink:href="#b"/><radialGradient id="ax" cx="-4.388" cy="21.53" r="45.916" gradientTransform="matrix(-0.353, 0.908, 0.845, 0.463, 36.931, -23.433)" xlink:href="#b"/><radialGradient id="ay" cx="0.299" cy="-1.229" r="2.95" gradientTransform="matrix(-0.842, 0, 0, 0.842, 455.295, 2.106)" xlink:href="#b"/><radialGradient id="az" cx="0.5" cy="0.5" r="0.691" gradientTransform="matrix(-0.643, 0, 0, 0.842, 77.35, 0.529)" xlink:href="#b"/><radialGradient id="ba" cx="0.5" cy="0.5" r="0.662" gradientTransform="matrix(-0.691, 0, 0, 0.842, 58.987, -0.256)" xlink:href="#b"/><radialGradient id="bb" cx="0.5" cy="0.5" r="0.691" gradientTransform="matrix(-0.643, 0, 0, 0.842, 59.625, -0.363)" xlink:href="#b"/><radialGradient id="bc" cx="-1.439" cy="-0.39" r="10.897" gradientTransform="matrix(-0.842, 0, 0, 0.842, 631.14, 0.005)" xlink:href="#b"/><radialGradient id="bd" cx="-2.92" cy="4.021" r="5.448" gradientTransform="matrix(-0.842, 0, 0, 0.842, 311.546, 0.668)" xlink:href="#b"/><radialGradient id="be" cx="5.094" cy="-2.754" r="5.449" gradientTransform="matrix(-0.842, 0, 0, 0.842, 326.303, -0.401)" xlink:href="#b"/><radialGradient id="bf" cx="0.5" cy="0.5" r="0.594" gradientTransform="matrix(0.842, 0, 0, -0.842, -1.908, 53.579)" xlink:href="#b"/><radialGradient id="bg" cx="-13.034" cy="19.796" r="46.666" gradientTransform="matrix(0.841, 0.059, -0.042, 0.842, -31.899, 28.537)" xlink:href="#b"/><radialGradient id="bh" cx="18.933" cy="6.069" r="46.668" gradientTransform="matrix(0.841, 0.059, -0.042, 0.842, -29.093, 25.751)" xlink:href="#b"/><radialGradient id="bi" cx="12.001" cy="28.391" r="46.664" gradientTransform="matrix(0.841, 0.059, -0.042, 0.842, -29.257, 29.699)" xlink:href="#b"/><radialGradient id="bj" cx="-0.094" cy="-1.01" r="1.921" gradientTransform="matrix(-0.842, 0, 0, 0.842, 419.111, -0.834)" xlink:href="#b"/><radialGradient id="bk" cx="3.367" cy="-3.613" r="6.057" gradientTransform="matrix(-0.778, 0, 0, 0.842, 786.899, -0.87)" xlink:href="#b"/><radialGradient id="bl" cx="0.5" cy="0.5" r="0.594" gradientTransform="matrix(0.842, 0, 0, -0.842, -0.952, 51)" xlink:href="#b"/><radialGradient id="bm" cx="37.575" cy="-7.443" r="53.003" gradientTransform="matrix(0.526, 0.781, 0.688, -0.653, -122.621, 226.303)" xlink:href="#b"/><radialGradient id="bn" cx="-0.818" cy="-0.535" r="2.845" gradientTransform="matrix(-0.842, 0, 0, 0.842, 360.51, 1.998)" xlink:href="#b"/><radialGradient id="bo" cx="0.5" cy="0.5" r="0.594" gradientTransform="matrix(0.842, 0, 0, -0.842, -2.555, 94.55)" xlink:href="#b"/><radialGradient id="bp" cx="37.575" cy="-7.443" r="53.012" gradientTransform="matrix(0.526, 0.781, 0.688, -0.653, -162.762, 300.387)" xlink:href="#b"/><radialGradient id="bq" cx="4.299" cy="-7.139" r="8.097" gradientTransform="matrix(-0.741, 0, 0, 0.842, 601.629, 3.865)" xlink:href="#b"/><radialGradient id="br" cx="-0.818" cy="-0.535" r="2.845" gradientTransform="matrix(-0.842, 0, 0, 0.842, 249.885, 1.669)" xlink:href="#b"/><radialGradient id="bs" cx="39.723" cy="-3.395" r="60.314" gradientTransform="matrix(0.406, 0.842, 0.688, -0.586, -249.745, 394.416)" xlink:href="#b"/><radialGradient id="bt" cx="-0.902" cy="-0.841" r="2.849" gradientTransform="matrix(-0.842, 0, 0, 0.842, 180.672, 1.94)" xlink:href="#b"/><radialGradient id="bu" cx="2.438" cy="4.824" r="10.333" gradientTransform="matrix(-0.331, 0, 0, 0.842, 197.183, 4.132)" xlink:href="#b"/><radialGradient id="bv" cx="0.245" cy="-4.506" r="5.662" gradientTransform="matrix(-0.842, 0, 0, 0.842, 374.599, 1.137)" xlink:href="#b"/><radialGradient id="bw" cx="0.5" cy="0.5" r="0.594" gradientTransform="matrix(0.842, 0, 0, -0.842, -6.645, 87.918)" xlink:href="#b"/><radialGradient id="bx" cx="13.032" cy="-23.784" r="47.938" gradientTransform="matrix(0.454, 0.842, 0.77, -0.586, -166.08, 255.852)" xlink:href="#b"/><radialGradient id="by" cx="16.138" cy="16.433" r="47.937" gradientTransform="matrix(0.454, 0.842, 0.77, -0.586, -175.713, 277.434)" xlink:href="#b"/><radialGradient id="bz" cx="-1.485" cy="-1.9" r="6.429" gradientTransform="matrix(-0.612, 0, 0, 0.842, 296.412, -1.962)" xlink:href="#b"/><radialGradient id="ca" cx="3.803" cy="-4.622" r="5.698" gradientTransform="matrix(-0.842, 0, 0, 0.842, 423.522, -2.202)" xlink:href="#b"/><radialGradient id="cb" cx="1.523" cy="5.622" r="5.698" gradientTransform="matrix(-0.842, 0, 0, 0.842, 419.324, -0.587)" xlink:href="#b"/><radialGradient id="cc" cx="-2.896" cy="5.506" r="5.662" gradientTransform="matrix(-0.842, 0, 0, 0.842, 420.611, -2.902)" xlink:href="#b"/><radialGradient id="cd" cx="1.948" cy="2.047" r="2.831" gradientTransform="matrix(-0.842, 0, 0, 0.842, 216.534, -1.562)" xlink:href="#b"/><radialGradient id="ce" cx="0.5" cy="0.628" r="0.746" gradientTransform="matrix(0.67, 0, 0, -0.842, -9.475, 72.238)" xlink:href="#b"/><radialGradient id="cf" cx="0.5" cy="0.5" r="0.594" gradientTransform="matrix(0.842, 0, 0, -0.842, -6.025, 52.177)" xlink:href="#b"/><radialGradient id="cg" cx="0.5" cy="0.5" r="0.594" gradientTransform="matrix(0.842, 0, 0, -0.842, -9.242, 76.649)" xlink:href="#b"/><radialGradient id="ch" cx="18.359" cy="-14.883" r="51.317" gradientTransform="matrix(0.505, -0.8, 0.713, 0.635, -183.142, -251.054)" xlink:href="#b"/><radialGradient id="ci" cx="0.5" cy="0.5" r="0.594" gradientTransform="matrix(0.842, 0, 0, -0.842, -6.247, 52.017)" xlink:href="#b"/><radialGradient id="cj" cx="11.543" cy="27.148" r="51.308" gradientTransform="matrix(0.505, -0.8, 0.713, 0.635, -168.569, -269.665)" xlink:href="#b"/><radialGradient id="ck" cx="43.157" cy="8.842" r="65.424" gradientTransform="matrix(0.464, -0.8, 0.655, 0.635, -195.133, -291.469)" xlink:href="#b"/><radialGradient id="cl" cx="2.274" cy="-4.699" r="5.7" gradientTransform="matrix(-0.842, 0, 0, 0.842, 263.818, -3.274)" xlink:href="#b"/><radialGradient id="cm" cx="-0.512" cy="5.62" r="5.697" gradientTransform="matrix(-0.842, 0, 0, 0.842, 265.14, 0.642)" xlink:href="#b"/><radialGradient id="cn" cx="13.032" cy="-23.784" r="47.936" gradientTransform="matrix(0.454, 0.842, 0.77, -0.586, -82.406, 103.748)" xlink:href="#b"/><radialGradient id="co" cx="35.334" cy="-2.698" r="47.933" gradientTransform="matrix(0.454, 0.842, 0.77, -0.586, -66.821, 78.861)" xlink:href="#b"/><radialGradient id="cp" cx="3.803" cy="-4.621" r="5.697" gradientTransform="matrix(-0.842, 0, 0, 0.842, 656.243, -6.059)" xlink:href="#b"/><radialGradient id="cq" cx="-0.902" cy="-0.841" r="2.849" gradientTransform="matrix(-0.842, 0, 0, 0.842, 322.931, -2.798)" xlink:href="#b"/><radialGradient id="cr" cx="0.245" cy="-4.506" r="5.662" gradientTransform="matrix(-0.842, 0, 0, 0.842, 659.03, -8.338)" xlink:href="#b"/><radialGradient id="cs" cx="13.033" cy="-29.92" r="60.305" gradientTransform="matrix(0.361, 0.842, 0.612, -0.586, -44.989, -53.076)" xlink:href="#b"/><radialGradient id="ct" cx="35.331" cy="-2.698" r="47.929" gradientTransform="matrix(0.454, 0.842, 0.77, -0.586, -9.957, -31.031)" xlink:href="#b"/><radialGradient id="cu" cx="-3.242" cy="-7.108" r="12.556" gradientTransform="matrix(-0.445, 0, 0, 0.842, 635.841, -25.25)" xlink:href="#b"/><radialGradient id="cv" cx="-2.896" cy="5.506" r="5.662" gradientTransform="matrix(-0.842, 0, 0, 0.842, 705.122, -12.377)" xlink:href="#b"/><radialGradient id="cw" cx="1.948" cy="2.047" r="2.831" gradientTransform="matrix(-0.842, 0, 0, 0.842, 358.777, -6.3)" xlink:href="#b"/><radialGradient id="cx" cx="13.031" cy="-23.784" r="47.937" gradientTransform="matrix(0.454, 0.842, 0.77, -0.586, -117.523, 160.176)" xlink:href="#b"/><radialGradient id="cy" cx="3.803" cy="-4.621" r="5.698" gradientTransform="matrix(-0.842, 0, 0, 0.842, 438.289, -7.831)" xlink:href="#b"/><radialGradient id="cz" cx="-0.901" cy="-0.841" r="2.849" gradientTransform="matrix(-0.842, 0, 0, 0.842, 213.993, -3.684)" xlink:href="#b"/><radialGradient id="da" cx="0.224" cy="-4.516" r="5.665" gradientTransform="matrix(0.842, 0.006, 0.004, -0.842, -16.814, 34.33)" xlink:href="#b"/><radialGradient id="db" cx="3.691" cy="5.699" r="5.7" gradientTransform="matrix(-0.842, 0, 0, 0.842, 507.438, -3.722)" xlink:href="#b"/><radialGradient id="dc" cx="0.5" cy="0.5" r="0.594" gradientTransform="matrix(0.842, 0, 0, -0.842, -5.3, 35.058)" xlink:href="#b"/><radialGradient id="dd" cx="19.949" cy="103.134" r="199.295" gradientTransform="matrix(0.234, -0.8, 0.33, 0.635, -268.542, -522.171)" xlink:href="#b"/><radialGradient id="de" cx="18.357" cy="-14.883" r="51.316" gradientTransform="matrix(0.505, -0.8, 0.713, 0.635, -53.392, -254.839)" xlink:href="#b"/><radialGradient id="df" cx="-1.65" cy="2.419" r="6.428" gradientTransform="matrix(-0.537, 0, 0, 0.842, 323.97, -13.164)" xlink:href="#b"/><radialGradient id="dg" cx="2.275" cy="-4.699" r="5.7" gradientTransform="matrix(-0.842, 0, 0, 0.842, 548.407, -12.751)" xlink:href="#b"/><radialGradient id="dh" cx="1.902" cy="-0.844" r="2.849" gradientTransform="matrix(-0.842, 0, 0, 0.842, 278.796, -4.993)" xlink:href="#b"/><radialGradient id="di" cx="-0.512" cy="5.62" r="5.698" gradientTransform="matrix(-0.842, 0, 0, 0.842, 549.632, -8.835)" xlink:href="#b"/></defs><g transform="translate(0 -1080)"><path d="M1900.471,1082.118h-.014a291.248,291.248,0,0,1-35.145-2.094,268.806,268.806,0,0,1-32.354-5.976,287.11,287.11,0,0,1-58.477-21.785c-8.9-4.406-17.792-9.28-27.194-14.9-8.427-5.039-17.11-10.59-26.545-16.971-17.6-11.905-34.936-24.744-53.285-38.336-14.159-10.488-28.8-21.332-44.134-32.148-97.356-68.668-218.226-132.212-441.514-132.212-26.986,0-55.353.955-84.313,2.84-30.023,1.954-61.581,4.964-93.8,8.947-33.309,4.118-68.314,9.4-104.041,15.7-36.854,6.5-75.56,14.262-115.043,23.086-48.819,10.909-96.123,20.514-140.6,28.545-42.812,7.732-84.155,14.214-122.881,19.268-37.193,4.854-72.968,8.521-106.331,10.9-31.959,2.277-62.557,3.431-90.945,3.431-25.534,0-49.939-.934-72.535-2.775-21.576-1.758-42.075-4.391-60.929-7.824A434.349,434.349,0,0,1,140.1,907.686a304.505,304.505,0,0,1-40.626-15.661c-42.323-20.134-71-48.058-85.243-83V-1h1920V1080.376C1922.723,1081.532,1911.364,1082.118,1900.471,1082.118Z" transform="translate(-14.235 1081)" fill="#0e0b44"/><g transform="translate(0 1080)" clip-path="url(#a)"><g transform="matrix(0.875, 0.485, -0.485, 0.875, 205.646, -1050.311)"><g transform="matrix(0.875, -0.485, 0.485, 0.875, -52.511, 1288.271)" opacity="0.69"><g transform="translate(127.031 280.328)"><g transform="translate(0 0)"><g transform="translate(30.435 684.731)"><g transform="translate(0 0)" opacity="0.6"><path d="M3.482.154a2.352,2.352,0,0,0-2.088.2A3.278,3.278,0,0,0,0,2.579Z" transform="translate(0 0)" fill="url(#b)" style="mix-blend-mode:screen;isolation:isolate"/></g></g><g transform="translate(113.644 697.898)"><g transform="translate(0 0)" opacity="0.6"><path d="M1.122,0A15.809,15.809,0,0,0,4.006,2.043,11.88,11.88,0,0,0,7.217,1.9,18.631,18.631,0,0,0,5.763,5.35a23.209,23.209,0,0,0,.332,4.007A15.755,15.755,0,0,0,3.212,7.314,11.84,11.84,0,0,0,0,7.455,18.627,18.627,0,0,0,1.454,4.005,23.189,23.189,0,0,0,1.122,0Z" transform="translate(0 0)" opacity="0.5" fill="url(#c)" style="mix-blend-mode:screen;isolation:isolate"/><path d="M1.268.51A4.063,4.063,0,0,0,.517,5.494c.918,1.726,2.742,2.3,4.074,1.271a4.063,4.063,0,0,0,.751-4.984C4.424.053,2.6-.515,1.268.51Z" transform="translate(56.494 124.527)" fill="url(#d)" style="mix-blend-mode:screen;isolation:isolate"/><path d="M2.535,1.02C-.129,3.07-.8,7.533,1.035,10.986s5.483,4.593,8.147,2.543,3.336-6.512,1.5-9.967S5.2-1.031,2.535,1.02Z" transform="translate(97.59 92.887)" fill="url(#e)" style="mix-blend-mode:screen;isolation:isolate"/><path d="M4.381,6.911A3.936,3.936,0,0,0,5.474,2.053c-.8-1.807-2.59-2.564-4-1.689A3.937,3.937,0,0,0,.385,5.222C1.187,7.03,2.976,7.787,4.381,6.911Z" transform="translate(189.2 120.52)" fill="url(#f)" style="mix-blend-mode:screen;isolation:isolate"/></g></g><g opacity="0.6"><path d="M1.122,0A15.828,15.828,0,0,0,4.005,2.043,11.874,11.874,0,0,0,7.216,1.9,18.62,18.62,0,0,0,5.763,5.352a23.12,23.12,0,0,0,.331,4.005A15.827,15.827,0,0,0,3.211,7.314,11.893,11.893,0,0,0,0,7.455,18.652,18.652,0,0,0,1.454,4.007,23.209,23.209,0,0,0,1.122,0Z" transform="translate(0 58.871)" opacity="0.5" fill="url(#g)" style="mix-blend-mode:screen;isolation:isolate"/><path d="M25.5,21.606a1.408,1.408,0,0,1,2,.845,1.969,1.969,0,0,1-.546,2.43,1.407,1.407,0,0,1-2-.847A1.967,1.967,0,0,1,25.5,21.606ZM.385,5.221c.8,1.809,2.591,2.565,4,1.69A3.936,3.936,0,0,0,5.474,2.054C4.672.246,2.884-.511,1.479.364A3.936,3.936,0,0,0,.385,5.221ZM11.617,52.53c1.6,3.617,5.18,5.129,7.99,3.379s3.79-6.1,2.186-9.715-5.18-5.127-7.99-3.379S10.015,48.915,11.617,52.53ZM60.2,27.853c.8,1.808,2.591,2.564,4,1.689a3.937,3.937,0,0,0,1.093-4.858c-.8-1.808-2.591-2.565-4-1.689A3.936,3.936,0,0,0,60.2,27.853Z" transform="translate(34.914 0)" fill="url(#h)" style="mix-blend-mode:screen;isolation:isolate"/></g><g transform="translate(7.016 287.515)"><path d="M14.71,0S11.553,9.541,9.637,11.894,0,18.068,0,18.068s7.915,4.575,9.945,7.119S15.581,37.6,15.581,37.6s3.157-9.541,5.074-11.894,9.636-6.174,9.636-6.174-7.915-4.575-9.944-7.119S14.71,0,14.71,0Z" transform="translate(0 0)" opacity="0.6" fill="url(#i)"/></g><g transform="translate(72.617 210.995)"><g transform="translate(0 0)" opacity="0.6"><path d="M6.019,0A13,13,0,0,1,3.226,1.769,12.343,12.343,0,0,1,0,1.318a21.7,21.7,0,0,1,1.617,3.6A22.49,22.49,0,0,1,1.471,8.9,12.979,12.979,0,0,1,4.265,7.129a12.386,12.386,0,0,1,3.225.453,21.839,21.839,0,0,1-1.617-3.6A22.5,22.5,0,0,1,6.019,0Z" transform="translate(91.736 0)" opacity="0.5" fill="url(#j)" style="mix-blend-mode:screen;isolation:isolate"/><path d="M6.019,0A12.953,12.953,0,0,1,3.225,1.769,12.341,12.341,0,0,1,0,1.318a21.78,21.78,0,0,1,1.617,3.6A22.488,22.488,0,0,1,1.471,8.9,12.978,12.978,0,0,1,4.265,7.129a12.4,12.4,0,0,1,3.226.453,21.82,21.82,0,0,1-1.618-3.6A22.5,22.5,0,0,1,6.019,0Z" transform="translate(95.173 185.473)" opacity="0.5" fill="url(#k)" style="mix-blend-mode:screen;isolation:isolate"/><path d="M4.439.53A2.854,2.854,0,0,0,3.477,0L.124,2.231A4.326,4.326,0,0,0,1.4,6.477,2.518,2.518,0,0,0,5.423,5.6,4.331,4.331,0,0,0,4.439.53Z" transform="translate(131.915 150.431)" fill="url(#l)" style="mix-blend-mode:screen;isolation:isolate"/><path d="M1.627,6.778A2.543,2.543,0,0,0,5.553,5.471,4.3,4.3,0,0,0,4.232.5,2.542,2.542,0,0,0,.306,1.8,4.3,4.3,0,0,0,1.627,6.778Z" transform="translate(58.896 122.93)" fill="url(#m)" style="mix-blend-mode:screen;isolation:isolate"/><path d="M1.627,6.779A2.544,2.544,0,0,0,5.554,5.471,4.3,4.3,0,0,0,4.232.5,2.543,2.543,0,0,0,.306,1.8,4.3,4.3,0,0,0,1.627,6.779Z" transform="translate(0 139.832)" fill="url(#n)" style="mix-blend-mode:screen;isolation:isolate"/></g><path d="M4.416,26.708s1.013-8.992.438-11.956S0,3.954,0,3.954,7.327,5.823,9.68,5.31,18.069,0,18.069,0s-1.014,8.992-.439,11.956,4.853,10.8,4.853,10.8-7.327-1.87-9.68-1.355S4.416,26.708,4.416,26.708Z" transform="translate(150.305 204.782)" opacity="0.6" fill="url(#o)"/></g></g><g transform="translate(34.959 778.562)"><g transform="translate(386.421 401.77)"><g transform="translate(0 0)" opacity="0.6"><path d="M4.286,6.967C5.72,6.159,6.274,4.013,5.525,2.175S3.006-.5,1.573.308-.416,3.263.334,5.1,2.853,7.776,4.286,6.967Z" transform="translate(0 0)" fill="url(#p)" style="mix-blend-mode:screen;isolation:isolate"/></g></g><g transform="translate(384.915 60.844)"><g transform="translate(0 0)" opacity="0.6"><path d="M0,7.38A18.175,18.175,0,0,0,1.558,4.007,22.94,22.94,0,0,0,1.345,0,16.161,16.161,0,0,0,4.173,2.166a11.894,11.894,0,0,0,3.222.007A18.108,18.108,0,0,0,5.836,5.546a23.044,23.044,0,0,0,.213,4.007A16.222,16.222,0,0,0,3.222,7.385,11.943,11.943,0,0,0,0,7.38Z" transform="translate(0 50.746)" opacity="0.5" fill="url(#q)" style="mix-blend-mode:screen;isolation:isolate"/><path d="M0,7.381A18.228,18.228,0,0,0,1.558,4.008,22.954,22.954,0,0,0,1.345,0,16.153,16.153,0,0,0,4.173,2.168a11.949,11.949,0,0,0,3.222.005A18.161,18.161,0,0,0,5.836,5.546a23.064,23.064,0,0,0,.213,4.008A16.194,16.194,0,0,0,3.222,7.386,11.938,11.938,0,0,0,0,7.381Z" transform="translate(9.6 236.841)" opacity="0.5" fill="url(#r)" style="mix-blend-mode:screen;isolation:isolate"/><path d="M1.358.444a4.009,4.009,0,0,0-.9,4.933C1.327,7.141,3.137,7.791,4.5,6.831A4.011,4.011,0,0,0,5.4,1.9C4.532.133,2.722-.517,1.358.444Z" transform="translate(108.254 181.452)" fill="url(#s)" style="mix-blend-mode:screen;isolation:isolate"/><path d="M1.426,11.625q4.833-3.581,9.666-7.16c-.015-.038-.026-.078-.042-.118C9.552.672,6.013-1,3.145.617S-.831,6.523.668,10.2A8.243,8.243,0,0,0,1.426,11.625Z" transform="translate(134.434)" fill="url(#t)" style="mix-blend-mode:screen;isolation:isolate"/><path d="M4.287,6.968C5.72,6.159,6.275,4.014,5.526,2.174S3.006-.5,1.573.308-.416,3.262.334,5.1,2.853,7.775,4.287,6.968Z" transform="translate(100.904 15.999)" fill="url(#u)" style="mix-blend-mode:screen;isolation:isolate"/></g><path d="M22.2,6.525s-7.305.833-9.67-.017S4.038,0,4.038,0s1.166,9.148.64,12.033S0,22.155,0,22.155s7.305-.833,9.67.018,8.487,6.507,8.487,6.507-1.166-9.148-.64-12.033S22.2,6.525,22.2,6.525Z" transform="translate(161.966 132.874)" opacity="0.6" fill="url(#v)"/></g><g transform="translate(66.342 360.615)"><path d="M0,17.34s7.794,4.922,9.753,7.551S15.031,37.52,15.031,37.52s3.445-9.366,5.434-11.626S30.3,20.18,30.3,20.18s-7.794-4.922-9.752-7.551S15.272,0,15.272,0,11.825,9.367,9.837,11.626,0,17.34,0,17.34Z" transform="translate(0 0)" opacity="0.6" fill="url(#w)"/></g><g transform="translate(0 0)"><g opacity="0.6"><path d="M0,1.039A22.036,22.036,0,0,1,1.514,4.7,22.3,22.3,0,0,1,1.25,8.663,12.757,12.757,0,0,1,4.1,7.027a12.576,12.576,0,0,1,3.218.6,22.054,22.054,0,0,1-1.513-3.66A22.232,22.232,0,0,1,6.07,0,12.675,12.675,0,0,1,3.218,1.636,12.537,12.537,0,0,1,0,1.039Z" transform="translate(0 184.074)" opacity="0.5" fill="url(#x)" style="mix-blend-mode:screen;isolation:isolate"/><path d="M0,1.038A22.072,22.072,0,0,1,1.512,4.7a22.228,22.228,0,0,1-.263,3.963A12.761,12.761,0,0,1,4.1,7.025a12.583,12.583,0,0,1,3.218.6A22.079,22.079,0,0,1,5.805,3.965,22.333,22.333,0,0,1,6.069,0,12.73,12.73,0,0,1,3.217,1.636,12.577,12.577,0,0,1,0,1.038Z" transform="translate(11.964 0)" opacity="0.5" fill="url(#y)" style="mix-blend-mode:screen;isolation:isolate"/><path d="M0,1.93s2.508,4.954,2.811,6.8-.491,7.362-.491,7.362,3.829-2.787,5.3-3.038,5.976,1.108,5.976,1.108-2.508-4.952-2.811-6.8S11.273,0,11.273,0s-3.829,2.787-5.3,3.039S0,1.93,0,1.93Z" transform="translate(176.702 278.646)" opacity="0.5" fill="url(#z)" style="mix-blend-mode:screen;isolation:isolate"/><path d="M16.866,2.756C11.847-1.759,5.1-.606,1.794,5.335A16.109,16.109,0,0,0,4.9,24.264c5.019,4.517,11.767,3.361,15.072-2.578A16.108,16.108,0,0,0,16.866,2.756Z" transform="translate(51.577 140.859)" fill="url(#aa)" style="mix-blend-mode:screen;isolation:isolate"/><path d="M4.217.688a2.337,2.337,0,0,0-3.769.645,4.03,4.03,0,0,0,.776,4.733,2.336,2.336,0,0,0,3.769-.645A4.03,4.03,0,0,0,4.217.688Z" transform="translate(101.148 135.798)" fill="url(#ab)" style="mix-blend-mode:screen;isolation:isolate"/><path d="M8.655,1.131C5.811-1.019,2.255-.013.711,3.38A8.631,8.631,0,0,0,3.064,13.418c2.844,2.151,6.4,1.144,7.943-2.248A8.632,8.632,0,0,0,8.655,1.131Z" transform="translate(133.617 254.9)" fill="url(#ac)" style="mix-blend-mode:screen;isolation:isolate"/><path d="M0,2.842A3.8,3.8,0,0,0,1.212,4.494,2.529,2.529,0,0,0,5.184,3.369,4.386,4.386,0,0,0,5.22,0C3.481.948,1.738,1.889,0,2.842Z" transform="translate(100.608 241.579)" fill="url(#ad)" style="mix-blend-mode:screen;isolation:isolate"/><path d="M4.328.567A2.529,2.529,0,0,0,.356,1.69,4.315,4.315,0,0,0,1.532,6.709,2.531,2.531,0,0,0,5.5,5.585,4.317,4.317,0,0,0,4.328.567Z" transform="translate(115.751 314.371)" fill="url(#ae)" style="mix-blend-mode:screen;isolation:isolate"/></g></g></g></g><g transform="translate(0 0)"><g transform="translate(2390.433 842.45)"><g transform="translate(353.048 135.395)"><g opacity="0.6"><path d="M4.367,6.919A3.927,3.927,0,0,0,5.482,2.07C4.687.258,2.9-.509,1.491.356A3.928,3.928,0,0,0,.378,5.2C1.172,7.018,2.959,7.785,4.367,6.919Z" transform="translate(0 0)" fill="url(#af)" style="mix-blend-mode:screen;isolation:isolate"/></g></g><g transform="translate(0 0)"><g opacity="0.6"><path d="M6.089,9.385A15.786,15.786,0,0,0,3.214,7.325,11.866,11.866,0,0,0,0,7.444,18.587,18.587,0,0,0,1.469,4.006,23.1,23.1,0,0,0,1.154,0,15.869,15.869,0,0,0,4.029,2.059,11.869,11.869,0,0,0,7.243,1.94,18.572,18.572,0,0,0,5.774,5.378,23.112,23.112,0,0,0,6.089,9.385Z" transform="translate(119.217 124.797)" opacity="0.5" fill="url(#ag)" style="mix-blend-mode:screen;isolation:isolate"/><path d="M6.089,9.385A15.933,15.933,0,0,0,3.213,7.325,11.917,11.917,0,0,0,0,7.446,18.587,18.587,0,0,0,1.469,4.008,23.225,23.225,0,0,0,1.154,0,15.856,15.856,0,0,0,4.029,2.061a11.869,11.869,0,0,0,3.214-.119A18.564,18.564,0,0,0,5.774,5.379,23.191,23.191,0,0,0,6.089,9.385Z" transform="translate(268.416 119.59)" opacity="0.5" fill="url(#ah)" style="mix-blend-mode:screen;isolation:isolate"/><path d="M8.264,12.229c2.413-1.835,3.037-5.856,1.392-8.984S4.724-.931,2.31.9-.725,6.76.918,9.888,5.852,14.063,8.264,12.229Z" transform="translate(0 40.981)" fill="url(#ai)" style="mix-blend-mode:screen;isolation:isolate"/><path d="M14.279,0Q7.2,4.555.121,9.109a16.246,16.246,0,0,0,1.705,9.477c3.289,6.256,9.867,8.353,14.694,4.683S22.594,11.557,19.3,5.3A12.651,12.651,0,0,0,14.279,0Z" transform="translate(24.686 115.86)" fill="url(#aj)" style="mix-blend-mode:screen;isolation:isolate"/><path d="M2.311.9C-.1,2.738-.726,6.76.918,9.887s4.934,4.176,7.347,2.343S11.3,6.372,9.658,3.245,4.724-.931,2.311.9Z" transform="translate(109.672 71.218)" fill="url(#ak)" style="mix-blend-mode:screen;isolation:isolate"/><path d="M1.492.356A3.927,3.927,0,0,0,.378,5.2c.794,1.812,2.58,2.579,3.99,1.714A3.929,3.929,0,0,0,5.482,2.069C4.687.258,2.9-.51,1.492.356Z" transform="translate(81.021)" fill="url(#al)" style="mix-blend-mode:screen;isolation:isolate"/></g></g><g transform="translate(285.893 759.115)"><g transform="translate(0 0)" opacity="0.6"><path d="M6.088,9.385a15.822,15.822,0,0,0-2.875-2.06A11.907,11.907,0,0,0,0,7.446,18.523,18.523,0,0,0,1.468,4.007,23.134,23.134,0,0,0,1.154,0,15.819,15.819,0,0,0,4.029,2.06a11.859,11.859,0,0,0,3.213-.119A18.576,18.576,0,0,0,5.773,5.379,23.2,23.2,0,0,0,6.088,9.385Z" transform="translate(93.544 0)" opacity="0.5" fill="url(#am)" style="mix-blend-mode:screen;isolation:isolate"/><path d="M40.161,34.965a1.412,1.412,0,0,1-2-.857,1.964,1.964,0,0,1,.558-2.424,1.409,1.409,0,0,1,1.994.857A1.964,1.964,0,0,1,40.161,34.965ZM65.22,51.5c-.793-1.812-2.581-2.579-3.99-1.714a3.929,3.929,0,0,0-1.113,4.849c.794,1.812,2.581,2.579,3.99,1.714A3.927,3.927,0,0,0,65.22,51.5ZM54.182,4.14C52.594.515,49.021-1.02,46.2.712s-3.817,6.072-2.228,9.7,5.161,5.161,7.979,3.429S55.769,7.765,54.182,4.14ZM5.482,28.5c-.795-1.813-2.581-2.58-3.99-1.715A3.928,3.928,0,0,0,.378,31.631c.794,1.813,2.58,2.581,3.989,1.714A3.927,3.927,0,0,0,5.482,28.5Z" transform="translate(0 11.291)" fill="url(#an)" style="mix-blend-mode:screen;isolation:isolate"/></g></g><g transform="translate(350.361 502.218)"><path d="M15.505,37.59s3.2-9.516,5.125-11.857S30.3,19.622,30.3,19.622,22.4,15,20.376,12.443,14.791,0,14.791,0s-3.2,9.516-5.125,11.857S0,17.966,0,17.966s7.9,4.625,9.918,7.18S15.505,37.59,15.505,37.59Z" transform="translate(0 0)" opacity="0.6" fill="url(#ao)"/></g><g transform="translate(65.703 383.574)"><g transform="translate(0 53.801)" opacity="0.6"><path d="M1.439,8.864a12.854,12.854,0,0,1,2.8-1.749,12.348,12.348,0,0,1,3.224.471,21.844,21.844,0,0,1-1.6-3.606A22.442,22.442,0,0,1,6.026,0a12.9,12.9,0,0,1-2.8,1.749A12.4,12.4,0,0,1,0,1.277,21.807,21.807,0,0,1,1.6,4.884,22.46,22.46,0,0,1,1.439,8.864Z" transform="translate(149.709 169.106)" opacity="0.5" fill="url(#ap)" style="mix-blend-mode:screen;isolation:isolate"/><path d="M1.441,8.864a12.916,12.916,0,0,1,2.8-1.749,12.408,12.408,0,0,1,3.224.472,21.9,21.9,0,0,1-1.6-3.606A22.47,22.47,0,0,1,6.028,0a12.924,12.924,0,0,1-2.8,1.751A12.409,12.409,0,0,1,0,1.278,21.9,21.9,0,0,1,1.6,4.885,22.527,22.527,0,0,1,1.441,8.864Z" transform="translate(0 147.562)" opacity="0.5" fill="url(#aq)" style="mix-blend-mode:screen;isolation:isolate"/><path d="M8.925,1.348C6.169-.981,2.561-.216.867,3.057A8.667,8.667,0,0,0,2.792,13.2c2.756,2.33,6.364,1.564,8.058-1.708A8.663,8.663,0,0,0,8.925,1.348Z" transform="translate(93.899 59.317)" fill="url(#ar)" style="mix-blend-mode:screen;isolation:isolate"/><path d="M4.452.657A2.7,2.7,0,0,0,2.905,0L.268,1.9A4.335,4.335,0,0,0,1.385,6.584a2.519,2.519,0,0,0,4.029-.856A4.334,4.334,0,0,0,4.452.657Z" transform="translate(111.779 20.234)" fill="url(#as)" style="mix-blend-mode:screen;isolation:isolate"/><path d="M24.144,33.507a1.27,1.27,0,0,1,1.966-.64,2.149,2.149,0,0,1,.65,2.49,1.27,1.27,0,0,1-1.966.64A2.151,2.151,0,0,1,24.144,33.507Zm-22.53,21.3a2.54,2.54,0,0,0,3.932-1.282,4.3,4.3,0,0,0-1.3-4.981A2.541,2.541,0,0,0,.313,49.831,4.3,4.3,0,0,0,1.614,54.811ZM12.172,13.536c2.891,2.045,6.412.9,7.865-2.562a8.6,8.6,0,0,0-2.6-9.961c-2.89-2.043-6.412-.9-7.865,2.564A8.6,8.6,0,0,0,12.172,13.536ZM60.6,38.292a2.54,2.54,0,0,0,3.933-1.28,4.3,4.3,0,0,0-1.3-4.981,2.54,2.54,0,0,0-3.933,1.28A4.3,4.3,0,0,0,60.6,38.292Z" transform="translate(184.687)" fill="url(#at)" style="mix-blend-mode:screen;isolation:isolate"/></g><path d="M4.323,26.611s6.056-4.755,8.412-5.253a15.637,15.637,0,0,1,4.771.343q1.591-1.138,3.179-2.282a39.639,39.639,0,0,1-3.081-7.47C17.041,8.983,18.092,0,18.092,0S12.035,4.753,9.679,5.253,0,3.836,0,3.836s4.248,7.858,4.811,10.826S4.323,26.611,4.323,26.611Z" transform="translate(77.037 0)" opacity="0.6" fill="url(#au)"/></g></g><g transform="translate(0 0)"><g transform="translate(480.981 58.201)"><g transform="translate(0 0)" opacity="0.6"><path d="M7.918,7.405a11.968,11.968,0,0,0-3.223-.04A13.685,13.685,0,0,0,2.081,9.493,22.914,22.914,0,0,0,1.9,5.484,20.893,20.893,0,0,0,0,2.087a11.976,11.976,0,0,0,3.224.04A13.7,13.7,0,0,0,5.838,0a23.02,23.02,0,0,0,.186,4.009A20.9,20.9,0,0,0,7.918,7.405Z" transform="translate(0 0)" opacity="0.5" fill="url(#av)" style="mix-blend-mode:screen;isolation:isolate"/></g></g><g opacity="0.6"><path d="M7.917,7.407a12.008,12.008,0,0,0-3.222-.042A13.736,13.736,0,0,0,2.081,9.494,23.018,23.018,0,0,0,1.9,5.485,20.9,20.9,0,0,0,0,2.089a11.968,11.968,0,0,0,3.223.04A13.677,13.677,0,0,0,5.838,0a22.934,22.934,0,0,0,.186,4.01A20.909,20.909,0,0,0,7.917,7.407Z" transform="translate(141.42 124.673)" opacity="0.5" fill="url(#aw)" style="mix-blend-mode:screen;isolation:isolate"/><path d="M7.918,7.405a12.025,12.025,0,0,0-3.224-.042A13.758,13.758,0,0,0,2.081,9.493,23.019,23.019,0,0,0,1.9,5.484,20.9,20.9,0,0,0,0,2.087a11.968,11.968,0,0,0,3.223.04A13.684,13.684,0,0,0,5.838,0a23.019,23.019,0,0,0,.186,4.009A20.9,20.9,0,0,0,7.918,7.405Z" transform="translate(262.949 26.197)" opacity="0.5" fill="url(#ax)" style="mix-blend-mode:screen;isolation:isolate"/><path d="M8.371.929C5.448-1.034,1.954.215.567,3.719s-.142,7.937,2.781,9.9,6.418.713,7.8-2.79S11.294,2.893,8.371.929Z" transform="translate(139.416 0)" fill="url(#ay)" style="mix-blend-mode:screen;isolation:isolate"/><path d="M35.784,37.724a1.262,1.262,0,0,1-2,.485,2.164,2.164,0,0,1-.527-2.525,1.261,1.261,0,0,1,2-.485A2.163,2.163,0,0,1,35.784,37.724ZM63.3,36.808a2.522,2.522,0,0,0-4.005.971,4.326,4.326,0,0,0,1.055,5.051,2.521,2.521,0,0,0,4.005-.971A4.328,4.328,0,0,0,63.3,36.808ZM34.833,1.253C32.038-1,28.45-.131,26.821,3.194A8.653,8.653,0,0,0,28.93,13.3c2.8,2.253,6.382,1.385,8.012-1.94A8.655,8.655,0,0,0,34.833,1.253ZM4.406,53.726A2.522,2.522,0,0,0,.4,54.7a4.326,4.326,0,0,0,1.055,5.05,2.522,2.522,0,0,0,4.006-.971A4.327,4.327,0,0,0,4.406,53.726Z" transform="translate(0 1.136)" fill="url(#az)" style="mix-blend-mode:screen;isolation:isolate"/></g><g transform="translate(553.672 520.208)"><g transform="translate(0 0)" opacity="0.6"><path d="M28.869,26.158a1.275,1.275,0,0,1,1.95-.7,2.145,2.145,0,0,1,.7,2.476,1.275,1.275,0,0,1-1.951.7A2.142,2.142,0,0,1,28.869,26.158ZM1.674,29.98a2.549,2.549,0,0,0,3.9-1.395,4.287,4.287,0,0,0-1.39-4.951,2.551,2.551,0,0,0-3.9,1.4A4.285,4.285,0,0,0,1.674,29.98ZM32.308,62.607c2.923,1.962,6.417.713,7.8-2.791s.143-7.937-2.781-9.9-6.417-.713-7.8,2.79S29.385,60.643,32.308,62.607ZM58.857,6.81a2.55,2.55,0,0,0,3.9-1.4A4.283,4.283,0,0,0,61.37.465a2.549,2.549,0,0,0-3.9,1.394A4.286,4.286,0,0,0,58.857,6.81Z" transform="translate(110.456 0)" fill="url(#ba)" style="mix-blend-mode:screen;isolation:isolate"/><path d="M35.784,37.725a1.262,1.262,0,0,1-2,.485,2.163,2.163,0,0,1-.527-2.526,1.26,1.26,0,0,1,2-.484A2.163,2.163,0,0,1,35.784,37.725ZM63.3,36.808a2.522,2.522,0,0,0-4.006.971,4.324,4.324,0,0,0,1.055,5.05,2.521,2.521,0,0,0,4.005-.969A4.329,4.329,0,0,0,63.3,36.808ZM34.832,1.253C32.037-1,28.451-.132,26.821,3.193a8.653,8.653,0,0,0,2.11,10.1c2.794,2.255,6.381,1.385,8.011-1.939A8.655,8.655,0,0,0,34.832,1.253ZM4.405,53.726A2.523,2.523,0,0,0,.4,54.7a4.329,4.329,0,0,0,1.055,5.051,2.522,2.522,0,0,0,4.006-.971A4.327,4.327,0,0,0,4.405,53.726Z" transform="translate(0 50.123)" fill="url(#bb)" style="mix-blend-mode:screen;isolation:isolate"/></g></g><g transform="translate(493.288 274.542)"><g transform="translate(177.42 0)" opacity="0.6"><path d="M3.036,7.687c1.713.189,3.13-1.376,3.168-3.494S4.88.2,3.169.015.037,1.391,0,3.51,1.324,7.5,3.036,7.687Z" transform="translate(71.106 63.432)" fill="url(#bc)" style="mix-blend-mode:screen;isolation:isolate"/><path d="M6.073,15.375c3.425.378,6.26-2.751,6.334-6.989S9.761.409,6.336.031.074,2.783,0,7.019,2.646,15,6.073,15.375Z" transform="translate(96.991 0)" fill="url(#bd)" style="mix-blend-mode:screen;isolation:isolate"/><path d="M6.072,15.374c3.425.378,6.262-2.751,6.335-6.989S9.761.408,6.335.031.074,2.782,0,7.018,2.647,15,6.072,15.374Z" transform="translate(0 99.487)" fill="url(#be)" style="mix-blend-mode:screen;isolation:isolate"/></g><path d="M20.854,33.277s-1.231-10.549-.589-13.861S25.783,7.857,25.783,7.857s-8.432.819-11.148-.205S4.93,0,4.93,0s1.23,10.549.588,13.861S0,25.42,0,25.42s8.433-.817,11.148.2S20.854,33.277,20.854,33.277Z" transform="translate(0 36.941)" opacity="0.6" fill="url(#bf)"/></g><g transform="translate(267.067 330.693)"><g transform="translate(17.236 0)" opacity="0.6"><path d="M4.288,10.838A18.114,18.114,0,0,1,5.9,7.507,12.574,12.574,0,0,1,8.762,5.9a16.208,16.208,0,0,1-2.8-2.228A22.226,22.226,0,0,1,4.473,0,18.05,18.05,0,0,1,2.865,3.333,12.53,12.53,0,0,1,0,4.936a16.2,16.2,0,0,1,2.8,2.23A22.127,22.127,0,0,1,4.288,10.838Z" transform="translate(132.86 164.69)" opacity="0.5" fill="url(#bg)" style="mix-blend-mode:screen;isolation:isolate"/><path d="M4.288,10.838A18.115,18.115,0,0,1,5.9,7.506,12.614,12.614,0,0,1,8.762,5.9a16.282,16.282,0,0,1-2.8-2.228A22.276,22.276,0,0,1,4.473,0,18.062,18.062,0,0,1,2.865,3.331,12.572,12.572,0,0,1,0,4.936,16.281,16.281,0,0,1,2.8,7.164,22.272,22.272,0,0,1,4.288,10.838Z" transform="translate(0 239.488)" opacity="0.5" fill="url(#bh)" style="mix-blend-mode:screen;isolation:isolate"/><path d="M4.288,10.838A18.166,18.166,0,0,1,5.9,7.506,12.615,12.615,0,0,1,8.762,5.9a16.207,16.207,0,0,1-2.8-2.228A22.226,22.226,0,0,1,4.473,0,18.167,18.167,0,0,1,2.866,3.333,12.638,12.638,0,0,1,0,4.936,16.318,16.318,0,0,1,2.8,7.164,22.251,22.251,0,0,1,4.288,10.838Z" transform="translate(55.024 0)" opacity="0.5" fill="url(#bi)" style="mix-blend-mode:screen;isolation:isolate"/><path d="M5.983.029C2.749-.327.07,2.627,0,6.628s2.5,7.534,5.733,7.891,5.912-2.6,5.981-6.6S9.218.386,5.983.029Z" transform="translate(43.271 100.635)" fill="url(#bj)" style="mix-blend-mode:screen;isolation:isolate"/><path d="M4.412,0C2.943,1.153,1.471,2.3,0,3.446A3.442,3.442,0,0,0,3.039,6.565c1.614.009,2.84-1.612,2.736-3.622A4.193,4.193,0,0,0,4.412,0Z" transform="translate(113.011 36.362)" fill="url(#bk)" style="mix-blend-mode:screen;isolation:isolate"/></g><path d="M13.429,0S16.221,8.721,17.9,11.028s8.4,6.687,8.4,6.687S19.449,20.6,17.7,22.53s-4.83,10-4.83,10S10.077,23.813,8.4,21.5,0,14.817,0,14.817,6.849,11.934,8.6,10,13.429,0,13.429,0Z" transform="translate(0 2.803)" opacity="0.6" fill="url(#bl)"/></g></g><g transform="translate(871.01 38.778)"><g transform="translate(0 0)"><g transform="translate(33.624 13.708)" opacity="0.6"><path d="M6.809,1.318a19.575,19.575,0,0,0-1.226,3.6A23.343,23.343,0,0,0,6.163,8.9,15.026,15.026,0,0,0,3.176,7.13,11.772,11.772,0,0,0,0,7.581a19.539,19.539,0,0,0,1.226-3.6A23.243,23.243,0,0,0,.646,0,15.016,15.016,0,0,0,3.633,1.77,11.812,11.812,0,0,0,6.809,1.318Z" transform="translate(0 71.223)" opacity="0.5" fill="url(#bm)" style="mix-blend-mode:screen;isolation:isolate"/><path d="M2.171,1.327C-.344,3.639-.73,8.175,1.307,11.46s5.726,4.074,8.239,1.761,2.9-6.85.864-10.135S4.684-.985,2.171,1.327Z" transform="translate(57.173 0)" fill="url(#bn)" style="mix-blend-mode:screen;isolation:isolate"/></g><path d="M0,22.754S7.125,20.884,9.534,21.4,18.5,26.708,18.5,26.708s-1.992-8.993-1.74-11.956,3.679-10.8,3.679-10.8-7.124,1.871-9.533,1.355S1.939,0,1.939,0s1.993,8.993,1.74,11.956S0,22.754,0,22.754Z" transform="translate(0 0)" opacity="0.6" fill="url(#bo)"/></g><g transform="translate(575.831 86.879)"><g transform="translate(0 0)" opacity="0.6"><path d="M6.809,1.318a19.471,19.471,0,0,0-1.225,3.6A23.214,23.214,0,0,0,6.164,8.9,15.01,15.01,0,0,0,3.176,7.128,11.833,11.833,0,0,0,0,7.58a19.479,19.479,0,0,0,1.226-3.6A23.246,23.246,0,0,0,.646,0,14.951,14.951,0,0,0,3.633,1.769,11.824,11.824,0,0,0,6.809,1.318Z" transform="translate(0 71.224)" opacity="0.5" fill="url(#bp)" style="mix-blend-mode:screen;isolation:isolate"/><path d="M0,4.154a2.49,2.49,0,0,0,3.535.172A4.056,4.056,0,0,0,4.325,0C2.888,1.4,1.44,2.767,0,4.154Z" transform="translate(28.067 27.188)" fill="url(#bq)" style="mix-blend-mode:screen;isolation:isolate"/><path d="M2.17,1.327c-2.513,2.311-2.9,6.85-.864,10.133s5.726,4.074,8.24,1.761,2.9-6.85.864-10.135S4.684-.986,2.17,1.327Z" transform="translate(57.174 0)" fill="url(#br)" style="mix-blend-mode:screen;isolation:isolate"/></g></g></g><g transform="translate(2177.239 86.836)"><g transform="translate(117.491 0)"><g transform="translate(26.94 27.444)" opacity="0.6"><path d="M0,7.369s.682-.071,1.441-.1Q4.026,4.8,6.587,2.28A7.925,7.925,0,0,1,4.2,2.186,16.258,16.258,0,0,1,1.376,0a23.032,23.032,0,0,1,.2,4.008A18.129,18.129,0,0,1,0,7.369Z" transform="translate(0 60.994)" opacity="0.5" fill="url(#bs)" style="mix-blend-mode:screen;isolation:isolate"/><path d="M2.74.87C0,2.774-.823,7.186.9,10.722s5.339,4.861,8.077,2.957,3.563-6.314,1.841-9.852S5.479-1.034,2.74.87Z" transform="translate(64.118 0)" fill="url(#bt)" style="mix-blend-mode:screen;isolation:isolate"/><path d="M0,2.566a4.9,4.9,0,0,0,5.484.581A6.027,6.027,0,0,0,8.094,0C5.4.859,2.7,1.7,0,2.566Z" transform="translate(13.595 130.56)" fill="url(#bu)" style="mix-blend-mode:screen;isolation:isolate"/><path d="M1.586.3c-1.437.8-2,2.94-1.258,4.784s2.508,2.69,3.945,1.89,2-2.94,1.258-4.782S3.023-.5,1.586.3Z" transform="translate(33.28 183.164)" fill="url(#bv)" style="mix-blend-mode:screen;isolation:isolate"/></g><path d="M0,22.119s7.312-.784,9.673.081,8.463,6.558,8.463,6.558-1.128-9.151-.59-12.032S22.268,6.639,22.268,6.639s-7.311.784-9.673-.081S4.131,0,4.131,0s1.129,9.151.59,12.031S0,22.119,0,22.119Z" transform="translate(0 0)" opacity="0.6" fill="url(#bw)"/></g><g transform="translate(0 118.548)"><g transform="translate(37.474 193.757)" opacity="0.6"><path d="M7.419,2.212a18.147,18.147,0,0,0-1.573,3.36,23.051,23.051,0,0,0,.2,4.009A16.258,16.258,0,0,0,3.222,7.4,11.914,11.914,0,0,0,0,7.369,18.058,18.058,0,0,0,1.572,4.008,23.022,23.022,0,0,0,1.376,0,16.19,16.19,0,0,0,4.2,2.184,11.937,11.937,0,0,0,7.419,2.212Z" transform="translate(138.993 186.09)" opacity="0.5" fill="url(#bx)" style="mix-blend-mode:screen;isolation:isolate"/><path d="M7.419,2.212A18.136,18.136,0,0,0,5.846,5.573a23.022,23.022,0,0,0,.2,4.008A16.2,16.2,0,0,0,3.223,7.4,11.937,11.937,0,0,0,0,7.369a18.138,18.138,0,0,0,1.574-3.36A23.028,23.028,0,0,0,1.377,0,16.264,16.264,0,0,0,4.2,2.185,11.915,11.915,0,0,0,7.419,2.212Z" transform="translate(130.163 0)" opacity="0.5" fill="url(#by)" style="mix-blend-mode:screen;isolation:isolate"/><path d="M7,.266A4.71,4.71,0,0,0,2.713.861,6.953,6.953,0,0,0,0,6.168Q3.5,3.218,7,.266Z" transform="translate(53.611 111.21)" fill="url(#bz)" style="mix-blend-mode:screen;isolation:isolate"/><path d="M4.489,6.839a4,4,0,0,0,.919-4.926C4.548.145,2.739-.517,1.37.436A4,4,0,0,0,.45,5.362C1.311,7.13,3.119,7.79,4.489,6.839Z" transform="translate(21.162 130.842)" fill="url(#ca)" style="mix-blend-mode:screen;isolation:isolate"/><path d="M4.489,6.84a4,4,0,0,0,.92-4.926C4.548.145,2.739-.517,1.369.435A4,4,0,0,0,.45,5.361C1.312,7.129,3.119,7.791,4.489,6.84Z" transform="translate(32.789 57.033)" fill="url(#cb)" style="mix-blend-mode:screen;isolation:isolate"/><path d="M4.273,6.974c1.436-.8,2-2.94,1.259-4.782S3.023-.5,1.587.3s-2,2.94-1.259,4.784S2.836,7.774,4.273,6.974Z" transform="translate(39.453 222.473)" fill="url(#cc)" style="mix-blend-mode:screen;isolation:isolate"/><path d="M8.546,13.949c2.876-1.6,4-5.88,2.519-9.566S6.047-1,3.172.6s-4,5.88-2.518,9.566S5.671,15.546,8.546,13.949Z" transform="translate(0 230.957)" fill="url(#cd)" style="mix-blend-mode:screen;isolation:isolate"/></g><path d="M12.108,29.7c2.507-.875,5.01-1.767,7.518-2.639a8.215,8.215,0,0,1,.811-1.146c2-2.244,9.864-5.65,9.864-5.65S22.525,15.3,20.577,12.66,15.348,0,15.348,0,11.863,9.342,9.863,11.588,0,17.237,0,17.237s7.776,4.969,9.724,7.609A26.446,26.446,0,0,1,12.108,29.7Z" transform="translate(1.234 0)" opacity="0.6" fill="url(#ce)"/><path d="M0,22.12s7.312-.784,9.673.08,8.463,6.56,8.463,6.56-1.128-9.151-.59-12.032S22.268,6.639,22.268,6.639s-7.311.784-9.673-.08S4.131,0,4.131,0s1.128,9.152.59,12.032S0,22.12,0,22.12Z" transform="translate(0 277.512)" opacity="0.6" fill="url(#cf)"/></g><g transform="translate(653.165 152.526)"><path d="M0,22.119s7.312-.784,9.673.081,8.463,6.558,8.463,6.558-1.128-9.151-.59-12.032S22.268,6.638,22.268,6.638s-7.311.786-9.673-.08S4.131,0,4.131,0s1.129,9.151.59,12.031S0,22.119,0,22.119Z" transform="translate(0 0)" opacity="0.6" fill="url(#cg)"/></g><g transform="translate(473.342 89.501)"><g transform="translate(169.931 0)" opacity="0.6"><path d="M7.293,7.629a22.129,22.129,0,0,1-1.5-3.669A22.287,22.287,0,0,1,6.076,0a12.668,12.668,0,0,1-2.86,1.617A12.573,12.573,0,0,1,0,1,22.13,22.13,0,0,1,1.5,4.667a22.275,22.275,0,0,1-.281,3.961A12.689,12.689,0,0,1,4.077,7.012,12.587,12.587,0,0,1,7.293,7.629Z" transform="translate(0 0)" opacity="0.5" fill="url(#ch)" style="mix-blend-mode:screen;isolation:isolate"/></g><path d="M30.3,20.267s-7.776-4.969-9.724-7.609S15.348,0,15.348,0,11.864,9.341,9.864,11.586,0,17.236,0,17.236s7.777,4.971,9.725,7.609S14.953,37.5,14.953,37.5s3.485-9.341,5.485-11.586S30.3,20.267,30.3,20.267Z" transform="translate(0 133.993)" opacity="0.6" fill="url(#ci)"/></g><g transform="translate(412.406 299.714)"><g transform="translate(0 0)" opacity="0.6"><path d="M7.294,7.629a22.058,22.058,0,0,1-1.5-3.669A22.257,22.257,0,0,1,6.075,0,12.678,12.678,0,0,1,3.216,1.617,12.6,12.6,0,0,1,0,1,22.073,22.073,0,0,1,1.5,4.668a22.207,22.207,0,0,1-.28,3.961A12.678,12.678,0,0,1,4.078,7.012,12.6,12.6,0,0,1,7.294,7.629Z" transform="translate(149.504 129.617)" opacity="0.5" fill="url(#cj)" style="mix-blend-mode:screen;isolation:isolate"/><path d="M1.445,6.727C2.947,6,4.452,5.275,5.953,4.543a4.108,4.108,0,0,1-.158-.582A22.274,22.274,0,0,1,6.076,0a12.675,12.675,0,0,1-2.86,1.616A12.586,12.586,0,0,1,0,1,22.08,22.08,0,0,1,1.5,4.667,10.3,10.3,0,0,1,1.445,6.727Z" transform="translate(0 113.587)" opacity="0.5" fill="url(#ck)" style="mix-blend-mode:screen;isolation:isolate"/><path d="M4.552.754a2.513,2.513,0,0,0-4.06.668,4.332,4.332,0,0,0,.814,5.1,2.514,2.514,0,0,0,4.061-.668A4.334,4.334,0,0,0,4.552.754Z" transform="translate(40.718 238.838)" fill="url(#cl)" style="mix-blend-mode:screen;isolation:isolate"/><path d="M1.518,6.7A2.528,2.528,0,0,0,5.5,5.6,4.318,4.318,0,0,0,4.341.576a2.528,2.528,0,0,0-3.978,1.1A4.319,4.319,0,0,0,1.518,6.7Z" transform="translate(35.701 0)" fill="url(#cm)" style="mix-blend-mode:screen;isolation:isolate"/></g></g></g><g transform="translate(1105.303 692.689)"><g transform="translate(117.491 88.631)"><g transform="translate(0 0)" opacity="0.6"><path d="M7.419,2.212A18.129,18.129,0,0,0,5.846,5.573a23.028,23.028,0,0,0,.2,4.008A16.259,16.259,0,0,0,3.223,7.4,11.986,11.986,0,0,0,0,7.369a18.144,18.144,0,0,0,1.574-3.36A23.04,23.04,0,0,0,1.377,0,16.261,16.261,0,0,0,4.2,2.185,11.914,11.914,0,0,0,7.419,2.212Z" transform="translate(149.526 74.89)" opacity="0.5" fill="url(#cn)" style="mix-blend-mode:screen;isolation:isolate"/><path d="M7.418,2.212a18.156,18.156,0,0,0-1.573,3.36,23.044,23.044,0,0,0,.2,4.009A16.28,16.28,0,0,0,3.223,7.4,11.979,11.979,0,0,0,0,7.369,18.132,18.132,0,0,0,1.573,4.008,23.033,23.033,0,0,0,1.376,0,16.3,16.3,0,0,0,4.2,2.186,11.982,11.982,0,0,0,7.418,2.212Z" transform="translate(0 60.994)" opacity="0.5" fill="url(#co)" style="mix-blend-mode:screen;isolation:isolate"/><path d="M1.369.436A4,4,0,0,0,.45,5.362c.861,1.768,2.669,2.43,4.038,1.479a4.006,4.006,0,0,0,.921-4.928C4.547.145,2.739-.517,1.369.436Z" transform="translate(31.696 19.641)" fill="url(#cp)" style="mix-blend-mode:screen;isolation:isolate"/><path d="M2.74.87C0,2.774-.823,7.185.9,10.722s5.34,4.861,8.078,2.957,3.562-6.315,1.839-9.852S5.479-1.034,2.74.87Z" transform="translate(64.118)" fill="url(#cq)" style="mix-blend-mode:screen;isolation:isolate"/><path d="M1.586.3c-1.437.8-2,2.94-1.259,4.782s2.508,2.69,3.945,1.892,2-2.94,1.26-4.782S3.023-.5,1.586.3Z" transform="translate(33.28 183.163)" fill="url(#cr)" style="mix-blend-mode:screen;isolation:isolate"/></g></g><g transform="translate(0 496.153)"><g transform="translate(0 0)" opacity="0.6"><path d="M0,7.371s.715-.075,1.494-.1L6.126,4.745A27.842,27.842,0,0,1,7.418,2.212,11.908,11.908,0,0,1,4.2,2.185,16.169,16.169,0,0,1,1.377,0a23.076,23.076,0,0,1,.2,4.009A18.118,18.118,0,0,1,0,7.371Z" transform="translate(149.527 63.428)" opacity="0.5" fill="url(#cs)" style="mix-blend-mode:screen;isolation:isolate"/><path d="M7.419,2.212A18.119,18.119,0,0,0,5.845,5.573a23.039,23.039,0,0,0,.2,4.009A16.213,16.213,0,0,0,3.223,7.4,11.924,11.924,0,0,0,0,7.371,18.118,18.118,0,0,0,1.574,4.009,23.142,23.142,0,0,0,1.377,0,16.275,16.275,0,0,0,4.2,2.187,11.968,11.968,0,0,0,7.419,2.212Z" transform="translate(0 49.533)" opacity="0.5" fill="url(#ct)" style="mix-blend-mode:screen;isolation:isolate"/><path d="M0,3.054A4.69,4.69,0,0,0,3.069,2.22,5.98,5.98,0,0,0,4.952,0Q2.476,1.528,0,3.054Z" transform="translate(70.027 0)" fill="url(#cu)" style="mix-blend-mode:screen;isolation:isolate"/><path d="M4.273,6.974c1.438-.8,2-2.94,1.259-4.784S3.024-.5,1.586.3s-2,2.94-1.26,4.784S2.836,7.774,4.273,6.974Z" transform="translate(49.987 99.812)" fill="url(#cv)" style="mix-blend-mode:screen;isolation:isolate"/><path d="M8.546,13.949c2.876-1.6,4-5.88,2.519-9.566S6.047-1,3.172.6s-4,5.88-2.518,9.566S5.672,15.546,8.546,13.949Z" transform="translate(10.534 108.297)" fill="url(#cw)" style="mix-blend-mode:screen;isolation:isolate"/></g></g><g transform="translate(684.861 241.156)"><g transform="translate(0 0)" opacity="0.6"><path d="M7.419,2.212a18.142,18.142,0,0,0-1.573,3.36,23.042,23.042,0,0,0,.2,4.009A16.259,16.259,0,0,0,3.222,7.4,11.909,11.909,0,0,0,0,7.369,18.059,18.059,0,0,0,1.573,4.008,22.936,22.936,0,0,0,1.376,0,16.3,16.3,0,0,0,4.2,2.186,11.982,11.982,0,0,0,7.419,2.212Z" transform="translate(117.831 74.89)" opacity="0.5" fill="url(#cx)" style="mix-blend-mode:screen;isolation:isolate"/><path d="M1.37.436A4,4,0,0,0,.45,5.36c.861,1.768,2.669,2.432,4.039,1.479a4,4,0,0,0,.92-4.926C4.548.145,2.739-.517,1.37.436Z" transform="translate(0 19.642)" fill="url(#cy)" style="mix-blend-mode:screen;isolation:isolate"/><path d="M2.74.871C0,2.775-.823,7.186.9,10.723s5.34,4.861,8.078,2.957,3.563-6.315,1.841-9.852S5.479-1.034,2.74.871Z" transform="translate(32.422 0)" fill="url(#cz)" style="mix-blend-mode:screen;isolation:isolate"/><path d="M1.586.3c-1.438.8-2,2.94-1.259,4.782s2.509,2.69,3.946,1.892,2-2.94,1.259-4.784S3.023-.5,1.586.3Z" transform="translate(1.584 183.165)" fill="url(#da)" style="mix-blend-mode:screen;isolation:isolate"/></g></g><g transform="translate(451.127 0)"><g transform="translate(59.108 0)" opacity="0.6"><path d="M1.305,6.521a2.516,2.516,0,0,0,4.062-.668,4.336,4.336,0,0,0-.814-5.1A2.515,2.515,0,0,0,.492,1.42,4.34,4.34,0,0,0,1.305,6.521Z" transform="translate(0 0)" fill="url(#db)" style="mix-blend-mode:screen;isolation:isolate"/></g><path d="M0,3S7.279,5.243,9.655,4.852,18.238,0,18.238,0s-1.319,8.905-.844,11.888,4.5,11.01,4.5,11.01-7.28-2.245-9.655-1.854S3.657,25.9,3.657,25.9s1.319-8.907.842-11.89S0,3,0,3Z" transform="translate(0 16.872)" opacity="0.6" fill="url(#dc)"/></g><g transform="translate(397.203 360.901)"><g transform="translate(0 0)" opacity="0.6"><path d="M0,2.015a2.915,2.915,0,0,1,.764-.3,12.53,12.53,0,0,1,3.217.617S3.366,1.1,2.92,0C1.946.67.974,1.345,0,2.015Z" transform="translate(141.081 134.913)" opacity="0.5" fill="url(#dd)" style="mix-blend-mode:screen;isolation:isolate"/><path d="M7.294,7.629A22.119,22.119,0,0,1,5.8,3.961,22.172,22.172,0,0,1,6.077,0a12.752,12.752,0,0,1-2.86,1.617A12.585,12.585,0,0,1,0,1,22.1,22.1,0,0,1,1.5,4.667a22.267,22.267,0,0,1-.281,3.961A12.736,12.736,0,0,1,4.078,7.01,12.575,12.575,0,0,1,7.294,7.629Z" transform="translate(125.033 313.548)" opacity="0.5" fill="url(#de)" style="mix-blend-mode:screen;isolation:isolate"/><path d="M0,5.454A4.976,4.976,0,0,0,7.046,3.329,7.863,7.863,0,0,0,8.008,0Q4.005,2.73,0,5.454Z" transform="translate(54.634 190.638)" fill="url(#df)" style="mix-blend-mode:screen;isolation:isolate"/><path d="M4.553.754a2.514,2.514,0,0,0-4.061.668,4.334,4.334,0,0,0,.813,5.1,2.514,2.514,0,0,0,4.061-.668A4.336,4.336,0,0,0,4.553.754Z" transform="translate(28.983 238.838)" fill="url(#dg)" style="mix-blend-mode:screen;isolation:isolate"/><path d="M3.038,13.4c2.835,2.168,6.4,1.185,7.955-2.2A8.634,8.634,0,0,0,8.682,1.153c-2.835-2.17-6.4-1.186-7.956,2.2A8.636,8.636,0,0,0,3.038,13.4Z" transform="translate(0 52.042)" fill="url(#dh)" style="mix-blend-mode:screen;isolation:isolate"/><path d="M1.518,6.7A2.529,2.529,0,0,0,5.5,5.6,4.318,4.318,0,0,0,4.341.576a2.529,2.529,0,0,0-3.978,1.1A4.321,4.321,0,0,0,1.518,6.7Z" transform="translate(23.965 0)" fill="url(#di)" style="mix-blend-mode:screen;isolation:isolate"/></g></g></g></g></g></g></g><rect width="1920" height="1260" transform="translate(0 1080)" fill="none" style="mix-blend-mode:overlay;isolation:isolate"/></g></svg>