<svg xmlns="http://www.w3.org/2000/svg" xmlns:xlink="http://www.w3.org/1999/xlink" width="1920" height="948" viewBox="0 0 1920 948"><defs><style>.a{fill:#fff;}.b{clip-path:url(#a);}.c{clip-path:url(#b);}.d{fill:url(#c);}.e,.f{fill:#0a0837;fill-rule:evenodd;}.ae,.af,.ag,.an,.ao,.at,.aw,.ax,.bc,.bd,.be,.bn,.bo,.bp,.bt,.bw,.bz,.ce,.cf,.co,.cq,.cr,.cu,.cv,.cz,.da,.de,.dk,.dl,.e,.j,.n,.q,.r,.x,.y{opacity:0.5;}.g{opacity:0.4;}.ac,.ad,.av,.bb,.bm,.bs,.bv,.cd,.cl,.cm,.cn,.cp,.dj,.h,.p,.v{opacity:0.6;}.aa,.ab,.ae,.af,.ag,.ah,.ai,.aj,.ak,.al,.am,.an,.ao,.ap,.aq,.ar,.as,.at,.au,.aw,.ax,.ay,.az,.ba,.bc,.bd,.be,.bf,.bg,.bh,.bi,.bj,.bk,.bl,.bn,.bo,.bp,.bq,.br,.bt,.bu,.bw,.bx,.by,.bz,.ca,.cb,.cc,.ce,.cf,.cg,.ch,.ci,.cj,.ck,.co,.cq,.cr,.cs,.ct,.cu,.cv,.cw,.cx,.cy,.cz,.da,.db,.dc,.dd,.de,.df,.dg,.dh,.di,.dk,.dl,.dm,.dn,.do,.dp,.i,.j,.k,.l,.m,.n,.o,.q,.r,.s,.t,.u,.w,.x,.y,.z{mix-blend-mode:screen;isolation:isolate;}.i{fill:url(#d);}.j{fill:url(#e);}.k{fill:url(#f);}.l{fill:url(#g);}.m{fill:url(#h);}.n{fill:url(#i);}.o{fill:url(#j);}.p{fill:url(#k);}.q{fill:url(#l);}.r{fill:url(#m);}.s{fill:url(#n);}.t{fill:url(#o);}.u{fill:url(#p);}.v{fill:url(#q);}.w{fill:url(#r);}.x{fill:url(#s);}.y{fill:url(#t);}.z{fill:url(#u);}.aa{fill:url(#v);}.ab{fill:url(#w);}.ac{fill:url(#x);}.ad{fill:url(#y);}.ae{fill:url(#z);}.af{fill:url(#aa);}.ag{fill:url(#ab);}.ah{fill:url(#ac);}.ai{fill:url(#ad);}.aj{fill:url(#ae);}.ak{fill:url(#af);}.al{fill:url(#ag);}.am{fill:url(#ah);}.an{fill:url(#ai);}.ao{fill:url(#aj);}.ap{fill:url(#ak);}.aq{fill:url(#al);}.ar{fill:url(#am);}.as{fill:url(#an);}.at{fill:url(#ao);}.au{fill:url(#ap);}.av{fill:url(#aq);}.aw{fill:url(#ar);}.ax{fill:url(#as);}.ay{fill:url(#at);}.az{fill:url(#au);}.ba{fill:url(#av);}.bb{fill:url(#aw);}.bc{fill:url(#ax);}.bd{fill:url(#ay);}.be{fill:url(#az);}.bf{fill:url(#ba);}.bg{fill:url(#bb);}.bh{fill:url(#bc);}.bi{fill:url(#bd);}.bj{fill:url(#be);}.bk{fill:url(#bf);}.bl{fill:url(#bg);}.bm{fill:url(#bh);}.bn{fill:url(#bi);}.bo{fill:url(#bj);}.bp{fill:url(#bk);}.bq{fill:url(#bl);}.br{fill:url(#bm);}.bs{fill:url(#bn);}.bt{fill:url(#bo);}.bu{fill:url(#bp);}.bv{fill:url(#bq);}.bw{fill:url(#br);}.bx{fill:url(#bs);}.by{fill:url(#bt);}.bz{fill:url(#bu);}.ca{fill:url(#bv);}.cb{fill:url(#bw);}.cc{fill:url(#bx);}.cd{fill:url(#by);}.ce{fill:url(#bz);}.cf{fill:url(#ca);}.cg{fill:url(#cb);}.ch{fill:url(#cc);}.ci{fill:url(#cd);}.cj{fill:url(#ce);}.ck{fill:url(#cf);}.cl{fill:url(#cg);}.cm{fill:url(#ch);}.cn{fill:url(#ci);}.co{fill:url(#cj);}.cp{fill:url(#ck);}.cq{fill:url(#cl);}.cr{fill:url(#cm);}.cs{fill:url(#cn);}.ct{fill:url(#co);}.cu{fill:url(#cp);}.cv{fill:url(#cq);}.cw{fill:url(#cr);}.cx{fill:url(#cs);}.cy{fill:url(#ct);}.cz{fill:url(#cu);}.da{fill:url(#cv);}.db{fill:url(#cw);}.dc{fill:url(#cx);}.dd{fill:url(#cy);}.de{fill:url(#cz);}.df{fill:url(#da);}.dg{fill:url(#db);}.dh{fill:url(#dc);}.di{fill:url(#dd);}.dj{fill:url(#de);}.dk{fill:url(#df);}.dl{fill:url(#dg);}.dm{fill:url(#dh);}.dn{fill:url(#di);}.do{fill:url(#dj);}.dp{fill:url(#dk);}.dq{fill:none;}</style><clipPath id="a"><rect class="a" width="1920" height="948" transform="translate(-1 3269)"/></clipPath><clipPath id="b"><path class="a" d="M334.047,1093.731h0c-.22-.187-22.954-19.54-55.626-48.947-19.275-17.349-38.248-34.8-56.39-51.875-22.688-21.35-44.14-42.166-63.76-61.868-49.951-50.162-88.5-93.528-114.581-128.893-7.538-10.222-14.12-19.9-19.561-28.772a210.814,210.814,0,0,1-13.737-25.841A90.65,90.65,0,0,1,3.574,725.4a44.613,44.613,0,0,1-.472-9.434,29.354,29.354,0,0,1,1.669-8.216,23.52,23.52,0,0,1,5.137-8.237,29.1,29.1,0,0,1,8.779-6.1,51,51,0,0,1,12.67-3.79,98.391,98.391,0,0,1,16.809-1.3,218.145,218.145,0,0,1,35.528,3.426c13.931,2.349,29.885,5.963,47.418,10.741,18.095,4.93,38.38,11.238,60.291,18.749,22.583,7.741,47.529,16.977,74.146,27.452,19.942,7.848,39.928,15.357,59.4,22.32,19.113,6.833,38.3,13.342,57.039,19.348v273.526h1920V912.719c-8.691,1.509-17.99,2.649-27.64,3.392-9.395.723-19.4,1.089-29.733,1.089h-.016c-14.021,0-29.177-.676-45.049-2.008-15.123-1.269-31.392-3.177-48.356-5.671-31.338-4.608-65.575-11.228-104.669-20.24-32.728-7.545-69.365-16.9-112-28.614-36.912-10.137-74.106-20.852-115.411-32.8l-5.645-1.633-.112-.032c-37.392-10.817-76.057-22-113.283-32.282-41.763-11.533-77.392-20.717-108.922-28.079-37.811-8.829-70.739-15.308-100.666-19.807-16.2-2.437-31.7-4.3-46.054-5.541-15.048-1.3-29.371-1.959-42.571-1.959-.813,0-1.649,0-2.483.007-9.937.062-20.175.472-30.428,1.219-9.814.715-19.988,1.764-30.24,3.117-19.02,2.512-38.8,6.1-60.463,10.978-40.477,9.107-81.368,21.316-124.659,34.242l-.018.005c-26.911,8.036-54.738,16.345-83.686,24.258-32.7,8.939-62.343,16.121-90.631,21.956-16.354,3.373-32.7,6.383-48.589,8.947-17.075,2.754-34.276,5.1-51.127,6.969-17.9,1.987-36.047,3.51-53.933,4.526-18.849,1.07-38.028,1.613-57.006,1.614-27.942,0-56.574-1.173-85.1-3.49-30.167-2.45-61.225-6.26-92.312-11.323-32.655-5.318-66.386-12.189-100.256-20.42-35.394-8.6-72.046-18.959-108.937-30.784V244.045c-9.8,2.405-19.73,5.358-29.529,8.779-10.019,3.5-20.208,7.592-30.285,12.171-10.283,4.674-20.759,9.993-31.136,15.81-10.574,5.927-21.369,12.552-32.083,19.691-12.964,8.639-25.039,16.251-35.889,22.626-10.49,6.164-20.119,11.337-28.619,15.376a160.649,160.649,0,0,1-21.917,8.761,56.305,56.305,0,0,1-15.784,2.779,19.53,19.53,0,0,1-9.143-1.931,12.306,12.306,0,0,1-5.351-5.519,21.926,21.926,0,0,1-1.944-9.651,57.373,57.373,0,0,1,1.665-12.911c2.091-9.075,6.207-20.332,12.233-33.457,10.149-22.1,25.836-49.848,46.625-82.461,18.5-29.018,37.69-56.594,50.533-74.617,13.86-19.451,23.594-32.376,23.681-32.491l106.944,1.375V244.045a299.231,299.231,0,0,1,71.766-8.707,319.565,319.565,0,0,1,32.564,1.7c10.463,1.076,21.273,2.7,32.132,4.819a477.216,477.216,0,0,1,63.594,17.4c42.307,14.512,84.361,33.97,128.883,54.571,44.32,20.507,90.148,41.712,139.543,59.5a781.493,781.493,0,0,0,76.878,23.53c13.611,3.382,27.326,6.343,40.764,8.8,14.137,2.585,28.443,4.7,42.521,6.287a488.123,488.123,0,0,0,54.141,2.794h.03c18.233,0,38.137-.825,59.161-2.453,20.051-1.552,41.792-3.885,64.619-6.935,42.153-5.634,88.811-13.745,142.638-24.8,44.9-9.22,95.778-20.718,155.54-35.152,53.349-12.885,108.83-26.9,162.485-40.453l8.1-2.047c59.315-14.982,112.7-28.413,165.352-41.064,61.043-14.666,113.336-26.383,159.868-35.822,26.659-5.408,52.21-10.222,75.943-14.308,25.365-4.367,49.674-8.078,72.251-11.031,23.865-3.121,46.672-5.51,67.786-7.1,22.144-1.667,43.188-2.511,62.546-2.511,14.294,0,28.053.46,40.895,1.366V912.719c7.7-1.337,15.145-3,22.114-4.943a181.433,181.433,0,0,0,20.294-6.935,148.85,148.85,0,0,0,18.361-9.048,128.365,128.365,0,0,0,16.318-11.283c13.786-11.241,26.024-19.706,36.376-25.161a81.5,81.5,0,0,1,13.695-5.851,37.736,37.736,0,0,1,10.977-1.867,19.428,19.428,0,0,1,9.174,2.092,17.7,17.7,0,0,1,6.427,5.942,30.185,30.185,0,0,1,3.847,8.885,60.334,60.334,0,0,1,1.807,11.541c.55,8.039.039,17.886-1.517,29.268-2.62,19.169-8.218,42.99-16.636,70.8-7.49,24.741-15.872,48.128-21.586,63.391-6.209,16.586-10.668,27.361-10.712,27.468Zm2128.33-879.338c-10.538,0-24.75-1.216-42.24-3.619-18.7-2.569-41.65-6.561-68.208-11.865a401.089,401.089,0,0,0-49.938-6.485V123.072h0l-1920-24.7V96.882h1920v26.19l49.938.642c.349.157,35.3,15.883,68.815,33.79,19.81,10.584,35.4,19.915,46.346,27.733,6.5,4.644,11.405,8.8,14.587,12.347,3.5,3.906,5,7.176,4.455,9.722-.487,2.274-2.618,4.024-6.335,5.2C2475.84,213.758,2469.979,214.393,2462.377,214.393Z" transform="translate(-382.991 3172.119)"/></clipPath><radialGradient id="c" cx="0.825" cy="0.657" r="0.701" gradientTransform="translate(0 -0.081) scale(1 1.103)" gradientUnits="objectBoundingBox"><stop offset="0" stop-color="#621491"/><stop offset="0.263" stop-color="#621491"/><stop offset="0.869" stop-color="#2e0e61"/><stop offset="0.965" stop-color="#0e0b44"/><stop offset="1" stop-color="#0e0b44"/></radialGradient><radialGradient id="d" cx="-7.581" cy="3.036" r="15.239" gradientTransform="matrix(-0.519, 0, 0, 0.842, 125.118, -21.004)" gradientUnits="objectBoundingBox"><stop offset="0" stop-color="#fff"/><stop offset="0.573" stop-color="#3e8def"/></radialGradient><radialGradient id="e" cx="16.164" cy="-16.217" r="53.104" gradientTransform="matrix(0.692, -0.57, -0.448, -0.766, -29.814, 121.889)" xlink:href="#d"/><radialGradient id="f" cx="12.124" cy="-9.547" r="13.491" gradientTransform="matrix(-0.842, 0, 0, 0.842, 26.644, -10.265)" xlink:href="#d"/><radialGradient id="g" cx="2.494" cy="-2.449" r="6.745" gradientTransform="matrix(-0.842, 0, 0, 0.842, 6.749, -4.766)" xlink:href="#d"/><radialGradient id="h" cx="5.567" cy="3.853" r="5.683" gradientTransform="matrix(-0.842, 0, 0, 0.842, -24.096, -9.366)" xlink:href="#d"/><radialGradient id="i" cx="-4.272" cy="-35.076" r="53.103" gradientTransform="matrix(0.692, -0.57, -0.448, -0.766, 22.059, 313.827)" xlink:href="#d"/><radialGradient id="j" cx="0.5" cy="0.5" r="0.738" gradientTransform="matrix(-0.583, 0, 0, 0.842, 6.005, 0.246)" xlink:href="#d"/><radialGradient id="k" cx="0.5" cy="0.5" r="0.594" gradientTransform="matrix(0.842, 0, 0, -0.842, -7.656, 34.049)" xlink:href="#d"/><radialGradient id="l" cx="25.937" cy="-11.309" r="53.105" gradientTransform="matrix(-0.721, -0.517, 0.406, -0.798, -453.506, 146.343)" xlink:href="#d"/><radialGradient id="m" cx="5.271" cy="-35.076" r="53.103" gradientTransform="matrix(-0.721, -0.517, 0.406, -0.798, -433.784, 107.481)" xlink:href="#d"/><radialGradient id="n" cx="2.431" cy="-2.802" r="3.802" gradientTransform="matrix(-0.832, 0, 0, 0.842, 13.494, -3.461)" xlink:href="#d"/><radialGradient id="o" cx="-4.567" cy="3.853" r="5.684" gradientTransform="matrix(-0.842, 0, 0, 0.842, 47.041, -2.707)" xlink:href="#d"/><radialGradient id="p" cx="5.567" cy="1.134" r="5.683" gradientTransform="matrix(-0.842, 0, 0, 0.842, 65.712, -3.135)" xlink:href="#d"/><radialGradient id="q" cx="0.5" cy="0.5" r="0.594" gradientTransform="matrix(0.842, 0, 0, -0.842, -11.581, 36.105)" xlink:href="#d"/><radialGradient id="r" cx="0.948" cy="5.587" r="4.788" gradientTransform="matrix(-0.026, 1, 0.999, 0.037, 0.667, 1.143)" xlink:href="#d"/><radialGradient id="s" cx="-11.946" cy="24.926" r="48.131" gradientTransform="matrix(-0.406, -0.876, -0.8, 0.523, -322.787, -203.364)" xlink:href="#d"/><radialGradient id="t" cx="-15.268" cy="-15.401" r="48.122" gradientTransform="matrix(-0.406, -0.876, -0.8, 0.523, -334.1, -209.925)" xlink:href="#d"/><radialGradient id="u" cx="-0.71" cy="-4.713" r="4.805" gradientTransform="matrix(-0.026, 1, 0.999, 0.037, -57.378, 57.376)" xlink:href="#d"/><radialGradient id="v" cx="-0.915" cy="-1.226" r="2.94" gradientTransform="matrix(-0.022, 1, 0.854, 0.037, -49.939, 39.017)" xlink:href="#d"/><radialGradient id="w" cx="4.036" cy="-4.441" r="4.789" gradientTransform="matrix(-0.026, 1, 0.999, 0.037, -87.608, 86.6)" xlink:href="#d"/><radialGradient id="x" cx="0.5" cy="0.5" r="0.594" gradientTransform="matrix(0.842, 0, 0, -0.842, -12.996, -24.998)" xlink:href="#d"/><radialGradient id="y" cx="0.5" cy="0.5" r="0.594" gradientTransform="matrix(0.842, 0, 0, -0.842, -7.921, -31.349)" xlink:href="#d"/><radialGradient id="z" cx="-10.639" cy="-25.996" r="51.08" gradientTransform="matrix(-0.465, 0.834, -0.745, -0.584, -324.749, 516.603)" xlink:href="#d"/><radialGradient id="aa" cx="-17.214" cy="15.92" r="51.089" gradientTransform="matrix(-0.464, 0.834, -0.745, -0.584, -306.236, 541.657)" xlink:href="#d"/><radialGradient id="ab" cx="-35.764" cy="-5.724" r="51.078" gradientTransform="matrix(-0.465, 0.834, -0.745, -0.584, -187.213, 279.143)" xlink:href="#d"/><radialGradient id="ac" cx="1.919" cy="-0.685" r="2.402" gradientTransform="matrix(-0.026, 1, 0.999, 0.037, 8.258, -7.608)" xlink:href="#d"/><radialGradient id="ad" cx="-1.51" cy="-1.69" r="9.61" gradientTransform="matrix(-0.026, 1, 0.999, 0.037, 22.556, -20.24)" xlink:href="#d"/><radialGradient id="ae" cx="-0.979" cy="1.894" r="2.394" gradientTransform="matrix(-0.026, 1, 0.999, 0.037, 18.293, -16.942)" xlink:href="#d"/><radialGradient id="af" cx="3.8" cy="7.572" r="6.714" gradientTransform="matrix(-0.02, 1, 0.749, 0.037, 43.661, -99.167)" xlink:href="#d"/><radialGradient id="ag" cx="1.319" cy="-4.541" r="4.789" gradientTransform="matrix(-0.026, 1, 0.999, 0.037, 48.267, -45.182)" xlink:href="#d"/><radialGradient id="ah" cx="5.56" cy="-0.087" r="5.681" gradientTransform="matrix(-0.842, 0, 0, 0.842, -694.53, -6.823)" xlink:href="#d"/><radialGradient id="ai" cx="25.788" cy="12.399" r="52.969" gradientTransform="matrix(-0.723, 0.512, 0.402, 0.8, -919.635, 277.557)" xlink:href="#d"/><radialGradient id="aj" cx="-15.198" cy="17.081" r="52.969" gradientTransform="matrix(-0.723, 0.512, 0.402, 0.8, -943.947, 284.649)" xlink:href="#d"/><radialGradient id="ak" cx="5.66" cy="3.757" r="5.702" gradientTransform="matrix(-0.842, 0, 0, 0.842, -306.675, -2.966)" xlink:href="#d"/><radialGradient id="al" cx="1.749" cy="-0.951" r="2.962" gradientTransform="matrix(-0.811, 0, 0, 0.842, -152.749, -1.999)" xlink:href="#d"/><radialGradient id="am" cx="-4.659" cy="1.853" r="5.702" gradientTransform="matrix(-0.842, 0, 0, 0.842, -325.641, -3.266)" xlink:href="#d"/><radialGradient id="an" cx="-4.56" cy="-2.859" r="5.682" gradientTransform="matrix(-0.842, 0, 0, 0.842, -578.842, -5.269)" xlink:href="#d"/><radialGradient id="ao" cx="5.075" cy="35.983" r="52.969" gradientTransform="matrix(-0.724, 0.512, 0.402, 0.8, -941.902, 281.077)" xlink:href="#d"/><radialGradient id="ap" cx="0.5" cy="0.5" r="0.736" gradientTransform="matrix(-0.585, 0, 0, 0.842, -51.11, -2.008)" xlink:href="#d"/><radialGradient id="aq" cx="0.5" cy="0.5" r="0.594" gradientTransform="matrix(0.842, 0, 0, -0.842, -14.626, -11.578)" xlink:href="#d"/><radialGradient id="ar" cx="-25.082" cy="12.218" r="53.249" gradientTransform="matrix(0.69, 0.574, -0.452, 0.765, -153.228, 355.931)" xlink:href="#d"/><radialGradient id="as" cx="16.13" cy="17.355" r="53.249" gradientTransform="matrix(0.69, 0.574, -0.451, 0.765, -145.783, 340.515)" xlink:href="#d"/><radialGradient id="at" cx="0.894" cy="-0.871" r="1.874" gradientTransform="matrix(-0.842, 0, 0, 0.842, -304.969, -6.049)" xlink:href="#d"/><radialGradient id="au" cx="-1.439" cy="3.747" r="3.754" gradientTransform="matrix(-0.843, 0, 0, 0.842, -617.049, -11.25)" xlink:href="#d"/><radialGradient id="av" cx="0.5" cy="0.5" r="0.739" gradientTransform="matrix(-0.581, 0, 0, 0.842, -49.989, -1.415)" xlink:href="#d"/><radialGradient id="aw" cx="0.541" cy="0.5" r="0.594" gradientTransform="matrix(0.911, 0, 0, -0.842, -11.698, -5.854)" xlink:href="#d"/><radialGradient id="ax" cx="26.819" cy="-1.872" r="45.917" gradientTransform="matrix(-0.353, 0.908, 0.845, 0.463, -550.15, 367.3)" xlink:href="#d"/><radialGradient id="ay" cx="26.822" cy="-1.873" r="45.909" gradientTransform="matrix(-0.353, 0.908, 0.845, 0.463, -462.076, 308.81)" xlink:href="#d"/><radialGradient id="az" cx="-4.388" cy="21.53" r="45.916" gradientTransform="matrix(-0.353, 0.908, 0.845, 0.463, -482.822, 322.518)" xlink:href="#d"/><radialGradient id="ba" cx="0.299" cy="-1.229" r="2.95" gradientTransform="matrix(-0.842, 0, 0, 0.842, -1.256, 2.302)" xlink:href="#d"/><radialGradient id="bb" cx="0.5" cy="0.5" r="0.691" gradientTransform="matrix(-0.643, 0, 0, 0.842, 4.19, 0.575)" xlink:href="#d"/><radialGradient id="bc" cx="0.5" cy="0.5" r="0.662" gradientTransform="matrix(-0.691, 0, 0, 0.842, -18.149, -0.212)" xlink:href="#d"/><radialGradient id="bd" cx="0.5" cy="0.5" r="0.691" gradientTransform="matrix(-0.643, 0, 0, 0.842, -13.536, -0.317)" xlink:href="#d"/><radialGradient id="be" cx="-1.439" cy="-0.39" r="10.897" gradientTransform="matrix(-0.842, 0, 0, 0.842, -231.115, 0.374)" xlink:href="#d"/><radialGradient id="bf" cx="-2.92" cy="4.021" r="5.448" gradientTransform="matrix(-0.842, 0, 0, 0.842, -119.624, 0.852)" xlink:href="#d"/><radialGradient id="bg" cx="5.094" cy="-2.754" r="5.449" gradientTransform="matrix(-0.842, 0, 0, 0.842, -104.856, -0.216)" xlink:href="#d"/><radialGradient id="bh" cx="0.5" cy="0.5" r="0.594" gradientTransform="matrix(0.842, 0, 0, -0.842, -11.308, 55.725)" xlink:href="#d"/><radialGradient id="bi" cx="-13.034" cy="19.796" r="46.666" gradientTransform="matrix(0.841, 0.059, -0.042, 0.842, -60.493, 38.68)" xlink:href="#d"/><radialGradient id="bj" cx="18.933" cy="6.069" r="46.668" gradientTransform="matrix(0.841, 0.059, -0.042, 0.842, -57.687, 35.894)" xlink:href="#d"/><radialGradient id="bk" cx="12.001" cy="28.391" r="46.664" gradientTransform="matrix(0.841, 0.059, -0.042, 0.842, -57.851, 39.842)" xlink:href="#d"/><radialGradient id="bl" cx="-0.094" cy="-1.01" r="1.921" gradientTransform="matrix(-0.842, 0, 0, 0.842, -37.508, -0.639)" xlink:href="#d"/><radialGradient id="bm" cx="3.367" cy="-3.613" r="6.057" gradientTransform="matrix(-0.778, 0, 0, 0.842, -103.499, -0.442)" xlink:href="#d"/><radialGradient id="bn" cx="0.5" cy="0.5" r="0.594" gradientTransform="matrix(0.842, 0, 0, -0.842, -10.338, 53.142)" xlink:href="#d"/><radialGradient id="bo" cx="37.575" cy="-7.443" r="53.003" gradientTransform="matrix(0.526, 0.781, 0.688, -0.653, -312.615, 588.42)" xlink:href="#d"/><radialGradient id="bp" cx="-0.818" cy="-0.535" r="2.845" gradientTransform="matrix(-0.842, 0, 0, 0.842, -96.118, 2.193)" xlink:href="#d"/><radialGradient id="bq" cx="0.5" cy="0.5" r="0.594" gradientTransform="matrix(0.842, 0, 0, -0.842, -14.354, 97.243)" xlink:href="#d"/><radialGradient id="br" cx="37.575" cy="-7.443" r="53.012" gradientTransform="matrix(0.526, 0.781, 0.688, -0.653, -352.781, 662.532)" xlink:href="#d"/><radialGradient id="bs" cx="4.299" cy="-7.139" r="8.097" gradientTransform="matrix(-0.741, 0, 0, 0.842, -477.655, 4.421)" xlink:href="#d"/><radialGradient id="bt" cx="-0.818" cy="-0.535" r="2.845" gradientTransform="matrix(-0.842, 0, 0, 0.842, -206.776, 1.865)" xlink:href="#d"/><radialGradient id="bu" cx="39.723" cy="-3.395" r="60.314" gradientTransform="matrix(0.406, 0.842, 0.688, -0.586, -499.508, 820.775)" xlink:href="#d"/><radialGradient id="bv" cx="-0.902" cy="-0.841" r="2.849" gradientTransform="matrix(-0.842, 0, 0, 0.842, -275.918, 2.135)" xlink:href="#d"/><radialGradient id="bw" cx="2.438" cy="4.824" r="10.333" gradientTransform="matrix(-0.331, 0, 0, 0.842, -276.233, 4.845)" xlink:href="#d"/><radialGradient id="bx" cx="0.245" cy="-4.506" r="5.662" gradientTransform="matrix(-0.842, 0, 0, 0.842, -538.724, 1.528)" xlink:href="#d"/><radialGradient id="by" cx="0.5" cy="0.5" r="0.594" gradientTransform="matrix(0.842, 0, 0, -0.842, -17.531, 90.403)" xlink:href="#d"/><radialGradient id="bz" cx="13.032" cy="-23.784" r="47.938" gradientTransform="matrix(0.454, 0.842, 0.77, -0.586, -376.055, 617.248)" xlink:href="#d"/><radialGradient id="ca" cx="16.138" cy="16.433" r="47.937" gradientTransform="matrix(0.454, 0.842, 0.77, -0.586, -385.687, 638.826)" xlink:href="#d"/><radialGradient id="cb" cx="-1.485" cy="-1.9" r="6.429" gradientTransform="matrix(-0.612, 0, 0, 0.842, -358.69, -1.521)" xlink:href="#d"/><radialGradient id="cc" cx="3.803" cy="-4.622" r="5.698" gradientTransform="matrix(-0.842, 0, 0, 0.842, -489.648, -1.811)" xlink:href="#d"/><radialGradient id="cd" cx="1.523" cy="5.622" r="5.698" gradientTransform="matrix(-0.842, 0, 0, 0.842, -493.851, -0.196)" xlink:href="#d"/><radialGradient id="ce" cx="-2.896" cy="5.506" r="5.662" gradientTransform="matrix(-0.842, 0, 0, 0.842, -492.572, -2.512)" xlink:href="#d"/><radialGradient id="cf" cx="1.948" cy="2.047" r="2.831" gradientTransform="matrix(-0.842, 0, 0, 0.842, -240, -1.367)" xlink:href="#d"/><radialGradient id="cg" cx="0.5" cy="0.628" r="0.746" gradientTransform="matrix(0.67, 0, 0, -0.842, -26.507, 74.574)" xlink:href="#d"/><radialGradient id="ch" cx="0.5" cy="0.5" r="0.594" gradientTransform="matrix(0.842, 0, 0, -0.842, -16.908, 54.661)" xlink:href="#d"/><radialGradient id="ci" cx="0.5" cy="0.5" r="0.594" gradientTransform="matrix(0.842, 0, 0, -0.842, -20.128, 79.134)" xlink:href="#d"/><radialGradient id="cj" cx="18.359" cy="-14.883" r="51.317" gradientTransform="matrix(0.505, -0.8, 0.713, 0.635, -377.085, -423.039)" xlink:href="#d"/><radialGradient id="ck" cx="0.5" cy="0.5" r="0.594" gradientTransform="matrix(0.842, 0, 0, -0.842, -14.393, 53.876)" xlink:href="#d"/><radialGradient id="cl" cx="11.543" cy="27.148" r="51.308" gradientTransform="matrix(0.505, -0.8, 0.713, 0.635, -362.48, -441.624)" xlink:href="#d"/><radialGradient id="cm" cx="43.157" cy="8.842" r="65.424" gradientTransform="matrix(0.464, -0.8, 0.655, 0.635, -434.633, -489.24)" xlink:href="#d"/><radialGradient id="cn" cx="2.274" cy="-4.699" r="5.7" gradientTransform="matrix(-0.842, 0, 0, 0.842, -649.474, -2.884)" xlink:href="#d"/><radialGradient id="co" cx="-0.512" cy="5.62" r="5.697" gradientTransform="matrix(-0.842, 0, 0, 0.842, -648.133, 1.032)" xlink:href="#d"/><radialGradient id="cp" cx="13.032" cy="-23.784" r="47.936" gradientTransform="matrix(0.454, 0.842, 0.77, -0.586, -292.381, 465.143)" xlink:href="#d"/><radialGradient id="cq" cx="35.334" cy="-2.698" r="47.933" gradientTransform="matrix(0.454, 0.842, 0.77, -0.586, -276.808, 440.282)" xlink:href="#d"/><radialGradient id="cr" cx="3.803" cy="-4.621" r="5.697" gradientTransform="matrix(-0.842, 0, 0, 0.842, -257.008, -5.668)" xlink:href="#d"/><radialGradient id="cs" cx="-0.902" cy="-0.841" r="2.849" gradientTransform="matrix(-0.842, 0, 0, 0.842, -133.658, -2.603)" xlink:href="#d"/><radialGradient id="ct" cx="0.245" cy="-4.506" r="5.662" gradientTransform="matrix(-0.842, 0, 0, 0.842, -254.108, -7.948)" xlink:href="#d"/><radialGradient id="cu" cx="13.033" cy="-29.92" r="60.305" gradientTransform="matrix(0.361, 0.842, 0.612, -0.586, -278.42, 346.917)" xlink:href="#d"/><radialGradient id="cv" cx="35.331" cy="-2.698" r="47.929" gradientTransform="matrix(0.454, 0.842, 0.77, -0.586, -219.913, 330.339)" xlink:href="#d"/><radialGradient id="cw" cx="-3.242" cy="-7.108" r="12.556" gradientTransform="matrix(-0.445, 0, 0, 0.842, -198.513, -24.389)" xlink:href="#d"/><radialGradient id="cx" cx="-2.896" cy="5.506" r="5.662" gradientTransform="matrix(-0.842, 0, 0, 0.842, -208.049, -11.987)" xlink:href="#d"/><radialGradient id="cy" cx="1.948" cy="2.047" r="2.831" gradientTransform="matrix(-0.842, 0, 0, 0.842, -97.758, -6.105)" xlink:href="#d"/><radialGradient id="cz" cx="13.031" cy="-23.784" r="47.937" gradientTransform="matrix(0.454, 0.842, 0.77, -0.586, -327.496, 521.568)" xlink:href="#d"/><radialGradient id="da" cx="3.803" cy="-4.621" r="5.698" gradientTransform="matrix(-0.842, 0, 0, 0.842, -474.759, -7.441)" xlink:href="#d"/><radialGradient id="db" cx="-0.901" cy="-0.841" r="2.849" gradientTransform="matrix(-0.842, 0, 0, 0.842, -242.557, -3.488)" xlink:href="#d"/><radialGradient id="dc" cx="0.224" cy="-4.516" r="5.665" gradientTransform="matrix(0.842, 0.006, 0.004, -0.842, -58.956, 46.886)" xlink:href="#d"/><radialGradient id="dd" cx="3.691" cy="5.699" r="5.7" gradientTransform="matrix(-0.842, 0, 0, 0.842, -405.764, -3.332)" xlink:href="#d"/><radialGradient id="de" cx="0.5" cy="0.5" r="0.594" gradientTransform="matrix(0.842, 0, 0, -0.842, -16.792, 37.681)" xlink:href="#d"/><radialGradient id="df" cx="19.949" cy="103.134" r="199.295" gradientTransform="matrix(0.234, -0.8, 0.33, 0.635, -742.682, -760.111)" xlink:href="#d"/><radialGradient id="dg" cx="18.357" cy="-14.883" r="51.316" gradientTransform="matrix(0.505, -0.8, 0.713, 0.635, -247.326, -426.797)" xlink:href="#d"/><radialGradient id="dh" cx="-1.65" cy="2.419" r="6.428" gradientTransform="matrix(-0.537, 0, 0, 0.842, -223.998, -12.723)" xlink:href="#d"/><radialGradient id="di" cx="2.275" cy="-4.699" r="5.7" gradientTransform="matrix(-0.842, 0, 0, 0.842, -364.942, -12.36)" xlink:href="#d"/><radialGradient id="dj" cx="1.902" cy="-0.844" r="2.849" gradientTransform="matrix(-0.842, 0, 0, 0.842, -177.8, -4.798)" xlink:href="#d"/><radialGradient id="dk" cx="-0.512" cy="5.62" r="5.698" gradientTransform="matrix(-0.842, 0, 0, 0.842, -363.547, -8.444)" xlink:href="#d"/></defs><g class="b" transform="translate(1 -3269)"><g class="c"><g transform="translate(-3.183 3370.325)"><rect class="d" width="1920" height="1866.675" transform="translate(2.372 -5.53)"/><path class="e" d="M2113.242,256.3S2048,171.352,1781.6,149.7,1152,181.593,880.114,140,308.234,16.716,95.157-68.091s-346.285-76.624-346.285-76.624V62.165s263.8-64.9,538.182,60.5S741.039,327.717,938.114,306,1415.842,168.98,1706.7,179.9,2082.49,365.266,2082.49,365.266L2113.242,256.3" transform="translate(32.251 215.532)"/><path class="e" d="M2088.975,444.466S1965.9,219.139,1655.665,199.9,1095,370.832,863.3,373.549s-385.4-169.318-622.92-226.5-411-46.854-411-46.854l-33.87,163.93S39.376,160.864,448.019,314.654,690.264,584.7,1332.865,388.4,2058.471,611.07,2058.471,611.07Z" transform="translate(27.518 330.271)"/><path class="f" d="M2099.975,1033.466s-174.76-156.8-484.993-176.032S1106,959.832,874.3,962.549s-385.4-169.318-622.92-226.5-411-46.854-411-46.854l-47.359,213.3s338.643-59.806,660.711,43.76,407.7,111.646,868.408,35.323,747.33,218.49,747.33,218.49Z" transform="translate(15.518 542.675)"/><path class="e" d="M1983.281,174.363s-80.31-192.219-357.31-162.219S917.309,135.389,546.8,62.165s-576.815-223.2-754.731-272.344L6.2-232S363.281-27.5,733.346,21c168.01,22.021,518.7-73.97,716.625-73.856,238.173.137,345.686-5.082,533.31,73.856Z" transform="translate(76.212 215.532)"/><path class="f" d="M2038,902.55S1727.8,763.558,1458.942,762,970.858,870.2,597.6,766.131,28.119,656.439-207.266,637.221L-214.058,619s639.159,50.37,1011,116,722-226,1217.163,91.834Z" transform="translate(50.493 452.577)"/><path class="f" d="M-201.621,484.466S204.522,678.495,750.379,641s984-246,1398.123,92.131l26.5-50.969s-210.867-153.086-580.3-186.737-961.32,54.484-1367.925-2.791-428.4-89.994-428.4-89.994" transform="translate(-24.507 399.709)"/><g class="g" transform="translate(-44.128 1.281)"><g transform="translate(0 145.81)"><g transform="translate(15.757 456.546)"><g class="h"><path class="i" d="M20.322,603.714a3.334,3.334,0,0,0-2.055.2,2.518,2.518,0,0,0-1.42,1.526Z" transform="translate(-16.847 -603.637)"/></g></g><g transform="translate(97.071 462.696)"><g class="h"><path class="j" d="M99.433,609.787a15.592,15.592,0,0,0,2.786,1.269,17.28,17.28,0,0,0,3.157-.2,11.867,11.867,0,0,0-1.507,2.346,10.423,10.423,0,0,0,.235,2.66,15.538,15.538,0,0,0-2.785-1.269,17.218,17.218,0,0,0-3.158.2,11.865,11.865,0,0,0,1.507-2.346A10.414,10.414,0,0,0,99.433,609.787Z" transform="translate(-98.161 -609.787)"/><path class="k" d="M152.217,691.307a2.2,2.2,0,0,0-.851,3.346,3.212,3.212,0,0,0,3.972.716,2.2,2.2,0,0,0,.851-3.346A3.21,3.21,0,0,0,152.217,691.307Z" transform="translate(-98.161 -609.787)"/><path class="l" d="M194.533,669.2c-2.664,1.452-3.425,4.448-1.7,6.691a6.42,6.42,0,0,0,7.944,1.433c2.664-1.452,3.425-4.448,1.7-6.692A6.42,6.42,0,0,0,194.533,669.2Z" transform="translate(-98.161 -609.787)"/><path class="m" d="M285.559,688.533a2.242,2.242,0,0,0,1.184-3.273,3.159,3.159,0,0,0-3.886-1,2.243,2.243,0,0,0-1.184,3.273A3.16,3.16,0,0,0,285.559,688.533Z" transform="translate(-98.161 -609.787)"/></g></g><g class="h"><path class="n" d="M2.362,187.507a15.608,15.608,0,0,0,2.785,1.269,17.273,17.273,0,0,0,3.157-.2A11.856,11.856,0,0,0,6.8,190.925a10.383,10.383,0,0,0,.234,2.659,15.608,15.608,0,0,0-2.785-1.269,17.3,17.3,0,0,0-3.157.2A11.883,11.883,0,0,0,2.6,190.167,10.423,10.423,0,0,0,2.362,187.507Z" transform="translate(-1.09 -147.091)"/><path class="o" d="M61.449,160.761a1.581,1.581,0,0,1,1.943.5A1.122,1.122,0,0,1,62.8,162.9a1.579,1.579,0,0,1-1.943-.5A1.121,1.121,0,0,1,61.449,160.761Zm-24.3-10.113a3.16,3.16,0,0,0,3.886,1,2.242,2.242,0,0,0,1.184-3.273,3.16,3.16,0,0,0-3.885-1A2.242,2.242,0,0,0,37.151,150.648Zm9.955,31.172a6.318,6.318,0,0,0,7.771,1.995c2.8-1.256,3.861-4.187,2.368-6.546a6.32,6.32,0,0,0-7.771-1.995C46.674,176.531,45.614,179.462,47.106,181.82Zm48.276-18.011a3.16,3.16,0,0,0,3.886,1,2.243,2.243,0,0,0,1.184-3.273,3.16,3.16,0,0,0-3.886-1A2.242,2.242,0,0,0,95.382,163.809Z" transform="translate(-1.09 -147.091)"/></g><g transform="translate(1.445 192.153)"><path class="p" d="M17.394,339.244s-3.318,6.461-5.253,8.091-9.606,4.425-9.606,4.425,7.67,2.795,9.606,4.425,5.253,8.091,5.253,8.091,3.318-6.461,5.254-8.091,9.6-4.425,9.6-4.425-7.67-2.8-9.6-4.425S17.394,339.244,17.394,339.244Z" transform="translate(-2.535 -339.244)"/></g><g transform="translate(64.768 136.368)"><g class="h"><path class="q" d="M165.131,283.459a15.624,15.624,0,0,1-2.784,1.269,17.214,17.214,0,0,1-3.158-.2,11.8,11.8,0,0,1,1.506,2.346,10.384,10.384,0,0,1-.234,2.659,15.609,15.609,0,0,1,2.785-1.269,17.271,17.271,0,0,1,3.157.2,11.872,11.872,0,0,1-1.506-2.346A10.387,10.387,0,0,1,165.131,283.459Z" transform="translate(-65.858 -283.459)"/><path class="r" d="M164.285,406.973a15.575,15.575,0,0,1-2.785,1.269,17.211,17.211,0,0,1-3.157-.2,11.843,11.843,0,0,1,1.506,2.345,10.382,10.382,0,0,1-.234,2.66,15.608,15.608,0,0,1,2.785-1.269,17.284,17.284,0,0,1,3.158.2,11.866,11.866,0,0,1-1.507-2.346A10.387,10.387,0,0,1,164.285,406.973Z" transform="translate(-65.858 -283.459)"/><path class="s" d="M199.606,382.838a3.161,3.161,0,0,0-.933-.322l-3.344,1.6a2.232,2.232,0,0,0,1.156,2.789,3.21,3.21,0,0,0,3.972-.716A2.2,2.2,0,0,0,199.606,382.838Z" transform="translate(-65.858 -283.459)"/><path class="t" d="M125.61,371.112a3.161,3.161,0,0,0,3.886-1,2.242,2.242,0,0,0-1.184-3.273,3.16,3.16,0,0,0-3.886,1A2.243,2.243,0,0,0,125.61,371.112Z" transform="translate(-65.858 -283.459)"/><path class="u" d="M67.38,384.273a3.161,3.161,0,0,0,3.886-1A2.242,2.242,0,0,0,70.081,380a3.16,3.16,0,0,0-3.886,1A2.243,2.243,0,0,0,67.38,384.273Z" transform="translate(-65.858 -283.459)"/></g><path class="v" d="M215.811,435.923s1.2-6.026.7-7.983-4.521-7.041-4.521-7.041,7.154,1.01,9.477.592,8.36-3.809,8.36-3.809-1.2,6.026-.7,7.983,4.521,7.041,4.521,7.041-7.154-1.011-9.477-.592S215.811,435.923,215.811,435.923Z" transform="translate(-65.858 -283.459)"/></g><g transform="translate(10.82 608.92)"><g transform="translate(374.52 255.854)"><g class="h"><path class="w" d="M390.56,1016.461a2.263,2.263,0,0,0,1.326-3.234,3.132,3.132,0,0,0-3.839-1.117,2.262,2.262,0,0,0-1.326,3.234A3.132,3.132,0,0,0,390.56,1016.461Z" transform="translate(-386.43 -1011.865)"/></g></g><g transform="translate(379.557 24.249)"><g class="h"><path class="x" d="M391.467,823.507a12.053,12.053,0,0,0,1.607-2.3,10.314,10.314,0,0,0-.118-2.664,15.318,15.318,0,0,0,2.728,1.353,17.235,17.235,0,0,0,3.164-.1,12.008,12.008,0,0,0-1.607,2.3,10.36,10.36,0,0,0,.118,2.664,15.375,15.375,0,0,0-2.728-1.354A17.3,17.3,0,0,0,391.467,823.507Z" transform="translate(-391.467 -780.26)"/><path class="y" d="M396.66,947.238a12.086,12.086,0,0,0,1.607-2.3,10.319,10.319,0,0,0-.118-2.665,15.306,15.306,0,0,0,2.728,1.354,17.307,17.307,0,0,0,3.164-.1,12.043,12.043,0,0,0-1.607,2.3,10.369,10.369,0,0,0,.118,2.665,15.342,15.342,0,0,0-2.728-1.354A17.3,17.3,0,0,0,396.66,947.238Z" transform="translate(-391.467 -780.26)"/><path class="z" d="M496.307,902.478a2.217,2.217,0,0,0-1,3.317,3.192,3.192,0,0,0,3.939.839,2.218,2.218,0,0,0,.995-3.317A3.19,3.19,0,0,0,496.307,902.478Z" transform="translate(-391.467 -780.26)"/><path class="aa" d="M525.963,788.142l9.657-5.083c-.014-.025-.024-.051-.039-.077-1.388-2.4-4.826-3.4-7.679-2.233s-4.04,4.065-2.652,6.468A4.782,4.782,0,0,0,525.963,788.142Z" transform="translate(-391.467 -780.26)"/><path class="ab" d="M495.582,796.688a2.264,2.264,0,0,0,1.326-3.235,3.135,3.135,0,0,0-3.84-1.117,2.264,2.264,0,0,0-1.326,3.235A3.135,3.135,0,0,0,495.582,796.688Z" transform="translate(-391.467 -780.26)"/></g><path class="ac" d="M570.494,871.754s-7.194.79-9.5.3-8.188-4.065-8.188-4.065.937,6.06.355,8-4.825,6.9-4.825,6.9,7.194-.79,9.5-.3,8.188,4.064,8.188,4.064-.937-6.06-.355-8S570.494,871.754,570.494,871.754Z" transform="translate(-391.467 -780.26)"/></g><g transform="translate(60.769 238.318)"><path class="ad" d="M72.679,1006.378s7.543,3.03,9.407,4.719,4.9,8.248,4.9,8.248,3.6-6.354,5.6-7.924,9.792-4.125,9.792-4.125-7.543-3.03-9.406-4.719-4.9-8.248-4.9-8.248-3.6,6.354-5.6,7.924S72.679,1006.378,72.679,1006.378Z" transform="translate(-72.679 -994.329)"/></g><g class="h"><path class="ae" d="M11.91,879.976a11.635,11.635,0,0,1,1.4,2.391,10.448,10.448,0,0,1-.35,2.65,15.84,15.84,0,0,1,2.838-1.182,17.226,17.226,0,0,1,3.147.295,11.641,11.641,0,0,1-1.4-2.391,10.414,10.414,0,0,1,.349-2.651,15.735,15.735,0,0,1-2.838,1.182A17.174,17.174,0,0,1,11.91,879.976Z" transform="translate(-11.91 -756.011)"/><path class="af" d="M27.851,756.9a11.647,11.647,0,0,1,1.4,2.391,10.412,10.412,0,0,1-.349,2.65,15.84,15.84,0,0,1,2.838-1.182,17.232,17.232,0,0,1,3.147.295,11.655,11.655,0,0,1-1.4-2.39,10.46,10.46,0,0,1,.349-2.651A15.807,15.807,0,0,1,31,757.193,17.229,17.229,0,0,1,27.851,756.9Z" transform="translate(-11.91 -756.011)"/><path class="ag" d="M183.288,937.921s2.351,3.221,2.606,4.44-.65,4.923-.65,4.923a29.3,29.3,0,0,1,5.272-2.2,31.912,31.912,0,0,1,5.844.546s-2.351-3.22-2.606-4.439.65-4.924.65-4.924a29.377,29.377,0,0,1-5.271,2.2A31.9,31.9,0,0,1,183.288,937.921Z" transform="translate(-11.91 -756.011)"/><path class="ah" d="M80.078,850.114c-4.827-2.848-11.48-1.862-14.862,2.2s-2.209,9.669,2.616,12.517,11.481,1.862,14.862-2.2S84.9,852.962,80.078,850.114Z" transform="translate(-11.91 -756.011)"/><path class="ai" d="M116.5,844.175a3,3,0,0,0-3.716.551,2.034,2.034,0,0,0,.654,3.13,3,3,0,0,0,3.716-.551A2.034,2.034,0,0,0,116.5,844.175Z" transform="translate(-11.91 -756.011)"/><path class="aj" d="M150.031,922.669a6.367,6.367,0,0,0-7.853,1.754c-1.594,2.311-.662,5.272,2.082,6.615a6.367,6.367,0,0,0,7.853-1.754C153.707,926.973,152.774,924.011,150.031,922.669Z" transform="translate(-11.91 -756.011)"/><path class="ak" d="M109.374,916.27a2.612,2.612,0,0,0,1.153,1.062,3.183,3.183,0,0,0,3.927-.877,2.084,2.084,0,0,0,.112-2.247C112.836,914.9,111.1,915.579,109.374,916.27Z" transform="translate(-11.91 -756.011)"/><path class="al" d="M126.893,962.646a3.182,3.182,0,0,0-3.927.877,2.223,2.223,0,0,0,1.041,3.307,3.185,3.185,0,0,0,3.927-.877A2.224,2.224,0,0,0,126.893,962.646Z" transform="translate(-11.91 -756.011)"/></g></g></g><g transform="translate(96.959)"><g transform="translate(1447.368 469.447)"><g transform="translate(344.667 81.495)"><g class="h"><path class="am" d="M1894.294,556.783a2.245,2.245,0,0,0,1.205-3.268,3.158,3.158,0,0,0-3.88-1.014,2.245,2.245,0,0,0-1.2,3.268A3.154,3.154,0,0,0,1894.294,556.783Z" transform="translate(-1890.084 -552.222)"/></g></g><g class="h"><path class="an" d="M1666.508,558.83a15.478,15.478,0,0,0-2.777-1.281,17.251,17.251,0,0,0-3.159.183,11.9,11.9,0,0,0,1.521-2.339,10.375,10.375,0,0,0-.218-2.66,15.568,15.568,0,0,0,2.777,1.28,17.258,17.258,0,0,0,3.159-.183,11.9,11.9,0,0,0-1.521,2.339A10.378,10.378,0,0,0,1666.508,558.83Z" transform="translate(-1545.417 -470.727)"/><path class="ao" d="M1813.165,550.56a15.623,15.623,0,0,0-2.777-1.281,17.331,17.331,0,0,0-3.159.184,11.9,11.9,0,0,0,1.521-2.339,10.429,10.429,0,0,0-.218-2.661,15.555,15.555,0,0,0,2.777,1.281,17.257,17.257,0,0,0,3.159-.183,11.9,11.9,0,0,0-1.521,2.339A10.414,10.414,0,0,0,1813.165,550.56Z" transform="translate(-1545.417 -470.727)"/><path class="ap" d="M1553.4,508.624c2.412-1.3,3.116-4,1.572-6.033a5.789,5.789,0,0,0-7.162-1.324c-2.412,1.3-3.115,4-1.572,6.033A5.792,5.792,0,0,0,1553.4,508.624Z" transform="translate(-1545.417 -470.727)"/><path class="aq" d="M1582.124,549.4l-14.113,6.527a7.583,7.583,0,0,0,1.459,6.262c3.088,4.064,9.5,5.25,14.325,2.649s6.232-8,3.144-12.066A10.11,10.11,0,0,0,1582.124,549.4Z" transform="translate(-1545.417 -470.727)"/><path class="ar" d="M1654.836,517.892c-2.412,1.3-3.116,4-1.573,6.033a5.792,5.792,0,0,0,7.163,1.325c2.412-1.3,3.116-4,1.573-6.033A5.792,5.792,0,0,0,1654.836,517.892Z" transform="translate(-1545.417 -470.727)"/><path class="as" d="M1627.524,471.006a2.245,2.245,0,0,0-1.2,3.268,3.157,3.157,0,0,0,3.88,1.014,2.245,2.245,0,0,0,1.2-3.268A3.158,3.158,0,0,0,1627.524,471.006Z" transform="translate(-1545.417 -470.727)"/></g><g transform="translate(263.653 496.432)"><g class="h"><path class="at" d="M1907.648,973.256a15.517,15.517,0,0,0-2.777-1.281,17.319,17.319,0,0,0-3.158.184,11.863,11.863,0,0,0,1.52-2.339,10.394,10.394,0,0,0-.217-2.661,15.521,15.521,0,0,0,2.777,1.281,17.246,17.246,0,0,0,3.158-.183,11.9,11.9,0,0,0-1.521,2.339A10.415,10.415,0,0,0,1907.648,973.256Z" transform="translate(-1809.07 -967.159)"/><path class="au" d="M1848.4,999.745a1.58,1.58,0,0,1-1.941-.507,1.123,1.123,0,0,1,.6-1.634,1.576,1.576,0,0,1,1.939.507A1.122,1.122,0,0,1,1848.4,999.745Zm24.235,10.218a3.157,3.157,0,0,0-3.88-1.014,2.245,2.245,0,0,0-1.2,3.268,3.158,3.158,0,0,0,3.88,1.014A2.245,2.245,0,0,0,1872.634,1009.963Zm-9.763-31.215a6.311,6.311,0,0,0-7.759-2.028c-2.808,1.244-3.887,4.17-2.409,6.535a6.312,6.312,0,0,0,7.759,2.029C1863.27,984.04,1864.348,981.113,1862.871,978.748Zm-48.386,17.8a3.157,3.157,0,0,0-3.88-1.015,2.245,2.245,0,0,0-1.2,3.268,3.154,3.154,0,0,0,3.879,1.014A2.245,2.245,0,0,0,1814.485,996.55Z" transform="translate(-1809.07 -967.159)"/></g></g><g transform="translate(333.347 325.697)"><path class="av" d="M1893.546,821.456s3.358-6.446,5.3-8.068,9.633-4.384,9.633-4.384-7.653-2.828-9.579-4.466-5.2-8.114-5.2-8.114-3.358,6.446-5.3,8.068-9.632,4.383-9.632,4.383,7.653,2.829,9.578,4.467S1893.546,821.456,1893.546,821.456Z" transform="translate(-1878.764 -796.424)"/></g><g transform="translate(52.262 253.189)"><g class="h" transform="translate(0 32.512)"><path class="aw" d="M1745.469,876.6a15.536,15.536,0,0,1,2.793-1.256,17.182,17.182,0,0,1,3.156.21,11.824,11.824,0,0,1-1.492-2.352,10.386,10.386,0,0,1,.25-2.658,15.586,15.586,0,0,1-2.792,1.256,17.245,17.245,0,0,1-3.156-.211,11.8,11.8,0,0,1,1.491,2.353A10.392,10.392,0,0,1,1745.469,876.6Z" transform="translate(-1597.679 -756.428)"/><path class="ax" d="M1598.921,867.054a15.607,15.607,0,0,1,2.793-1.256,17.258,17.258,0,0,1,3.156.211,11.854,11.854,0,0,1-1.492-2.352,10.39,10.39,0,0,1,.25-2.659,15.609,15.609,0,0,1-2.792,1.257,17.265,17.265,0,0,1-3.157-.211,11.863,11.863,0,0,1,1.493,2.352A10.421,10.421,0,0,1,1598.921,867.054Z" transform="translate(-1597.679 -756.428)"/><path class="ay" d="M1700.676,799.964a6.426,6.426,0,0,0-7.953,1.4c-1.737,2.236-.994,5.235,1.66,6.7a6.426,6.426,0,0,0,7.953-1.4C1704.074,804.426,1703.331,801.427,1700.676,799.964Z" transform="translate(-1597.679 -756.428)"/><path class="az" d="M1714.75,773.022a3.237,3.237,0,0,0-1.5-.388l-2.634,1.348a2.2,2.2,0,0,0,.991,3.089,3.214,3.214,0,0,0,3.977-.7A2.2,2.2,0,0,0,1714.75,773.022Z" transform="translate(-1597.679 -756.428)"/><path class="ba" d="M1805.412,778.452a1.582,1.582,0,0,1,1.946-.49,1.119,1.119,0,0,1,.582,1.639,1.581,1.581,0,0,1-1.946.49A1.12,1.12,0,0,1,1805.412,778.452ZM1782.8,793.377a3.163,3.163,0,0,0,3.891-.981,2.239,2.239,0,0,0-1.164-3.278,3.165,3.165,0,0,0-3.892.981A2.239,2.239,0,0,0,1782.8,793.377Zm11.309-27.851a6.324,6.324,0,0,0,7.783-1.961c1.507-2.352.464-5.287-2.328-6.556a6.325,6.325,0,0,0-7.783,1.962C1790.273,761.322,1791.316,764.258,1794.108,765.526Zm47,14.943a3.162,3.162,0,0,0,3.892-.98,2.239,2.239,0,0,0-1.164-3.278,3.163,3.163,0,0,0-3.892.98A2.239,2.239,0,0,0,1841.109,780.469Z" transform="translate(-1597.679 -756.428)"/></g><path class="bb" d="M1681.595,742.1s6.056-3.364,8.382-3.772a22.342,22.342,0,0,1,4.678.075q1.588-.81,3.174-1.623a20.745,20.745,0,0,1-2.856-4.88c-.485-1.959.752-7.98.752-7.98s-6.057,3.363-8.383,3.772-9.474-.633-9.474-.633,3.993,5.1,4.479,7.061S1681.595,742.1,1681.595,742.1Z" transform="translate(-1597.679 -723.916)"/></g></g><g transform="translate(472.345 27.797)"><g class="h"><path class="bc" d="M578.05,33.947a17.271,17.271,0,0,0-3.165.077,14.883,14.883,0,0,0-2.616,1.5,10.325,10.325,0,0,0-.091-2.666,12.459,12.459,0,0,0-1.784-2.2,17.282,17.282,0,0,0,3.166-.077,14.9,14.9,0,0,0,2.615-1.5,10.369,10.369,0,0,0,.091,2.666A12.462,12.462,0,0,0,578.05,33.947Z" transform="translate(-570.394 -29.078)"/></g></g><g class="h"><path class="bd" d="M243.03,89.177a17.329,17.329,0,0,0-3.164.076,14.936,14.936,0,0,0-2.616,1.5,10.37,10.37,0,0,0-.091-2.666,12.461,12.461,0,0,0-1.784-2.2,17.271,17.271,0,0,0,3.165-.077,14.871,14.871,0,0,0,2.616-1.5,10.332,10.332,0,0,0,.091,2.667A12.466,12.466,0,0,0,243.03,89.177Z" transform="translate(-98.049 -1.281)"/><path class="be" d="M364.634,19.629a17.352,17.352,0,0,0-3.166.076,14.957,14.957,0,0,0-2.615,1.5,10.37,10.37,0,0,0-.091-2.666,12.461,12.461,0,0,0-1.784-2.2,17.271,17.271,0,0,0,3.165-.077,14.882,14.882,0,0,0,2.616-1.5,10.37,10.37,0,0,0,.091,2.666A12.461,12.461,0,0,0,364.634,19.629Z" transform="translate(-98.049 -1.281)"/><path class="bf" d="M244.492,1.81c-2.826-1.214-6.286-.269-7.728,2.111s-.32,5.295,2.506,6.51S245.557,10.7,247,8.32,247.319,3.025,244.492,1.81Z" transform="translate(-98.049 -1.281)"/><path class="bg" d="M133.623,30.7a1.6,1.6,0,0,1-1.979.388,1.1,1.1,0,0,1-.46-1.666,1.6,1.6,0,0,1,1.979-.388A1.1,1.1,0,0,1,133.623,30.7Zm27.044-1.5a3.2,3.2,0,0,0-3.956.776,2.209,2.209,0,0,0,.921,3.333,3.2,3.2,0,0,0,3.956-.776A2.21,2.21,0,0,0,160.667,29.2ZM133.519,6.417a6.4,6.4,0,0,0-7.913,1.552c-1.677,2.269-.852,5.253,1.841,6.665a6.4,6.4,0,0,0,7.913-1.551C137.037,10.814,136.212,7.83,133.519,6.417ZM102.44,42.371a3.2,3.2,0,0,0-3.957.776,2.209,2.209,0,0,0,.921,3.332,3.2,3.2,0,0,0,3.957-.776A2.21,2.21,0,0,0,102.44,42.371Z" transform="translate(-98.049 -1.281)"/></g><g transform="translate(530.842 328.109)"><g class="h"><path class="bh" d="M767.564,347.826a1.573,1.573,0,0,1,1.931-.528,1.127,1.127,0,0,1,.627,1.628,1.573,1.573,0,0,1-1.932.527A1.125,1.125,0,0,1,767.564,347.826Zm-26.8,3.422a3.147,3.147,0,0,0,3.864-1.055,2.253,2.253,0,0,0-1.253-3.255,3.148,3.148,0,0,0-3.864,1.056A2.251,2.251,0,0,0,740.767,351.248Zm29.345,20.762c2.826,1.214,6.286.269,7.728-2.111s.321-5.295-2.506-6.51-6.286-.269-7.728,2.111S767.286,370.8,770.112,372.01Zm27.346-38.045a3.147,3.147,0,0,0,3.864-1.056,2.25,2.25,0,0,0-1.252-3.254,3.146,3.146,0,0,0-3.864,1.055A2.252,2.252,0,0,0,797.458,333.965Z" transform="translate(-628.891 -329.39)"/><path class="bi" d="M664.465,392.275a1.6,1.6,0,0,1-1.978.388,1.1,1.1,0,0,1-.46-1.667,1.6,1.6,0,0,1,1.978-.387A1.1,1.1,0,0,1,664.465,392.275Zm27.045-1.5a3.2,3.2,0,0,0-3.957.776,2.208,2.208,0,0,0,.921,3.332,3.2,3.2,0,0,0,3.956-.775A2.21,2.21,0,0,0,691.51,390.779ZM664.361,368a6.4,6.4,0,0,0-7.913,1.551c-1.676,2.269-.852,5.253,1.842,6.665a6.4,6.4,0,0,0,7.912-1.55C667.879,372.393,667.054,369.408,664.361,368ZM633.282,403.95a3.2,3.2,0,0,0-3.957.775,2.211,2.211,0,0,0,.921,3.333,3.2,3.2,0,0,0,3.957-.776A2.21,2.21,0,0,0,633.282,403.95Z" transform="translate(-628.891 -329.39)"/></g></g><g transform="translate(478.136 162.771)"><g class="h" transform="translate(173.245)"><path class="bj" d="M823.062,212.38a2.894,2.894,0,0,0,3.191-2.431,2.776,2.776,0,0,0-2.886-2.687,2.893,2.893,0,0,0-3.191,2.431A2.776,2.776,0,0,0,823.062,212.38Z" transform="translate(-749.43 -164.052)"/><path class="bk" d="M852.737,174.294c3.355.142,6.211-2.035,6.38-4.862s-2.417-5.232-5.772-5.374-6.213,2.036-6.381,4.862S849.38,174.153,852.737,174.294Z" transform="translate(-749.43 -164.052)"/><path class="bl" d="M755.21,243.725c3.355.142,6.213-2.035,6.381-4.862s-2.417-5.232-5.773-5.373-6.212,2.035-6.38,4.861S751.855,243.584,755.21,243.725Z" transform="translate(-749.43 -164.052)"/></g><path class="bm" d="M596.488,219.2s-.969-6.992-.263-9.22,5.683-7.882,5.683-7.882-8.3.817-10.945.222-9.357-4.788-9.357-4.788.968,6.992.262,9.22-5.683,7.882-5.683,7.882,8.3-.816,10.945-.222S596.488,219.2,596.488,219.2Z" transform="translate(-576.185 -164.052)"/></g><g transform="translate(255.689 214.024)"><g class="h" transform="translate(11.766)"><path class="bn" d="M501.774,329.8a12.081,12.081,0,0,1,1.656-2.272,15.89,15.89,0,0,1,2.851-1.162,15.276,15.276,0,0,1-2.7-1.395,11.541,11.541,0,0,1-1.379-2.4,12.034,12.034,0,0,1-1.656,2.273,15.836,15.836,0,0,1-2.85,1.161,15.259,15.259,0,0,1,2.7,1.4A11.493,11.493,0,0,1,501.774,329.8Z" transform="translate(-365.504 -215.305)"/><path class="bo" d="M369.581,383.933a12.079,12.079,0,0,1,1.656-2.273,15.946,15.946,0,0,1,2.851-1.161,15.346,15.346,0,0,1-2.7-1.395,11.566,11.566,0,0,1-1.379-2.4,12.049,12.049,0,0,1-1.656,2.272,15.887,15.887,0,0,1-2.85,1.162,15.344,15.344,0,0,1,2.7,1.4A11.566,11.566,0,0,1,369.581,383.933Z" transform="translate(-365.504 -215.305)"/><path class="bp" d="M429.075,222.535a12.114,12.114,0,0,1,1.656-2.273,15.946,15.946,0,0,1,2.851-1.161,15.275,15.275,0,0,1-2.7-1.4,11.541,11.541,0,0,1-1.379-2.4,12.11,12.11,0,0,1-1.655,2.273A15.976,15.976,0,0,1,425,218.739a15.38,15.38,0,0,1,2.7,1.4A11.551,11.551,0,0,1,429.075,222.535Z" transform="translate(-365.504 -215.305)"/><path class="bq" d="M417.152,282.731c-3.168-.133-5.866,1.922-6.025,4.591s2.282,4.941,5.451,5.075,5.866-1.922,6.025-4.591S420.321,282.865,417.152,282.731Z" transform="translate(-365.504 -215.305)"/><path class="br" d="M485.57,237.678q-2.2,1.224-4.412,2.439a2.791,2.791,0,0,0,2.914,1.981,2.635,2.635,0,0,0,2.77-2.5A2.355,2.355,0,0,0,485.57,237.678Z" transform="translate(-365.504 -215.305)"/></g><path class="bs" d="M367.265,219.21s2.544,5.723,4.138,7.207,8.1,4.187,8.1,4.187-6.793,2.143-8.555,3.486-4.972,6.822-4.972,6.822-2.544-5.722-4.137-7.207-8.1-4.187-8.1-4.187,6.793-2.142,8.555-3.485S367.265,219.21,367.265,219.21Z" transform="translate(-353.738 -215.305)"/></g><g transform="translate(506.978 7.964)"><g class="h" transform="translate(31.436 6.099)"><path class="bt" d="M643.293,65.5a11.5,11.5,0,0,0-1.286,2.437,10.565,10.565,0,0,0,.479,2.637,16.074,16.074,0,0,0-2.893-1.083,17.076,17.076,0,0,0-3.13.4,11.478,11.478,0,0,0,1.286-2.437,10.52,10.52,0,0,0-.479-2.637,16.059,16.059,0,0,0,2.893,1.084A17.132,17.132,0,0,0,643.293,65.5Z" transform="translate(-636.463 -15.344)"/><path class="bu" d="M696.512,16.338a4.353,4.353,0,0,0-1.079,6.782,6.485,6.485,0,0,0,8.052.909,4.354,4.354,0,0,0,1.079-6.783A6.485,6.485,0,0,0,696.512,16.338Z" transform="translate(-636.463 -15.344)"/></g><path class="bv" d="M605.027,24.474s7.04-1.476,9.4-1.21,8.685,3.25,8.685,3.25-1.752-5.93-1.437-7.913,3.859-7.316,3.859-7.316-7.04,1.476-9.394,1.21-8.686-3.25-8.686-3.25,1.753,5.93,1.437,7.913S605.027,24.474,605.027,24.474Z" transform="translate(-605.027 -9.245)"/><g transform="translate(562.31 37.428)"><g class="h"><path class="bw" d="M1174.167,96.824a11.442,11.442,0,0,0-1.285,2.437,10.51,10.51,0,0,0,.479,2.636,16.061,16.061,0,0,0-2.894-1.083,17.164,17.164,0,0,0-3.13.4,11.448,11.448,0,0,0,1.286-2.436,10.52,10.52,0,0,0-.479-2.637,16,16,0,0,0,2.893,1.083A17.151,17.151,0,0,0,1174.167,96.824Z" transform="translate(-1167.337 -46.673)"/><path class="bx" d="M1195.984,68.679a3.3,3.3,0,0,0,3.468,0,2.187,2.187,0,0,0,.874-2.909C1198.883,66.748,1197.43,67.708,1195.984,68.679Z" transform="translate(-1167.337 -46.673)"/><path class="by" d="M1227.386,47.667a4.354,4.354,0,0,0-1.079,6.782,6.487,6.487,0,0,0,8.053.909,4.355,4.355,0,0,0,1.079-6.783A6.485,6.485,0,0,0,1227.386,47.667Z" transform="translate(-1167.337 -46.673)"/></g></g></g><g transform="translate(1245.666 2.622)"><g transform="translate(124.412)"><g class="h" transform="translate(24.782 15.317)"><path class="bz" d="M1492.909,67.028s.672-.069,1.418-.111q2.595-1.731,5.167-3.493a11.378,11.378,0,0,1-2.346.014,15.322,15.322,0,0,1-2.72-1.366,10.357,10.357,0,0,1,.1,2.665A12.091,12.091,0,0,1,1492.909,67.028Z" transform="translate(-1492.909 -19.22)"/><path class="ca" d="M1560.111,19.891c-2.733,1.357-3.643,4.324-2.032,6.626a6.375,6.375,0,0,0,7.866,1.711c2.734-1.357,3.643-4.323,2.032-6.626A6.375,6.375,0,0,0,1560.111,19.891Z" transform="translate(-1492.909 -19.22)"/><path class="cb" d="M1504.788,109.758a6.621,6.621,0,0,0,5.373.211,5.369,5.369,0,0,0,2.635-2.182C1510.127,108.446,1507.456,109.1,1504.788,109.758Z" transform="translate(-1492.909 -19.22)"/><path class="cc" d="M1524.533,142.626a2.267,2.267,0,0,0-1.345,3.229,3.128,3.128,0,0,0,3.832,1.133,2.265,2.265,0,0,0,1.345-3.228A3.128,3.128,0,0,0,1524.533,142.626Z" transform="translate(-1492.909 -19.22)"/></g><path class="cd" d="M1468.127,18.779s7.2-.758,9.5-.257,8.163,4.1,8.163,4.1-.9-6.063-.306-8,4.867-6.875,4.867-6.875-7.2.758-9.5.257-8.163-4.1-8.163-4.1.9,6.063.306,8S1468.127,18.779,1468.127,18.779Z" transform="translate(-1468.127 -3.903)"/></g><g transform="translate(0 82.396)"><g class="h" transform="translate(33.801 124.243)"><path class="ce" d="M1522.445,335.574a12.1,12.1,0,0,0-1.622,2.29,10.362,10.362,0,0,0,.1,2.666,15.319,15.319,0,0,0-2.72-1.366,17.245,17.245,0,0,0-3.164.086,12.046,12.046,0,0,0,1.621-2.291,10.358,10.358,0,0,0-.1-2.665,15.26,15.26,0,0,0,2.72,1.365A17.279,17.279,0,0,0,1522.445,335.574Z" transform="translate(-1377.516 -210.542)"/><path class="cf" d="M1518.009,211.822a12.1,12.1,0,0,0-1.621,2.291,10.354,10.354,0,0,0,.1,2.665,15.265,15.265,0,0,0-2.72-1.365,17.28,17.28,0,0,0-3.165.085,12.1,12.1,0,0,0,1.622-2.29,10.362,10.362,0,0,0-.1-2.666,15.322,15.322,0,0,0,2.72,1.366A17.247,17.247,0,0,0,1518.009,211.822Z" transform="translate(-1377.516 -210.542)"/><path class="cg" d="M1439.922,287.127a6.65,6.65,0,0,0-4.223.534,4.843,4.843,0,0,0-2.785,3.625Z" transform="translate(-1377.516 -210.542)"/><path class="ch" d="M1404.99,305.718a2.22,2.22,0,0,0,1.015-3.313,3.186,3.186,0,0,0-3.933-.855,2.221,2.221,0,0,0-1.016,3.313A3.189,3.189,0,0,0,1404.99,305.718Z" transform="translate(-1377.516 -210.542)"/><path class="ci" d="M1418.09,256.148a2.221,2.221,0,0,0,1.016-3.313,3.19,3.19,0,0,0-3.934-.856,2.22,2.22,0,0,0-1.015,3.313A3.188,3.188,0,0,0,1418.09,256.148Z" transform="translate(-1377.516 -210.542)"/><path class="cj" d="M1420.654,366.3a2.266,2.266,0,0,0,1.345-3.228,3.129,3.129,0,0,0-3.832-1.134,2.266,2.266,0,0,0-1.346,3.229A3.13,3.13,0,0,0,1420.654,366.3Z" transform="translate(-1377.516 -210.542)"/><path class="ck" d="M1385.749,377.738c2.861-1.157,4.066-4.048,2.692-6.457s-4.806-3.424-7.666-2.267-4.065,4.048-2.691,6.457S1382.889,378.895,1385.749,377.738Z" transform="translate(-1377.516 -210.542)"/></g><path class="cl" d="M1362.963,106.2c2.482-.664,4.961-1.339,7.444-2a6.756,6.756,0,0,1,.823-.79c2.014-1.56,9.817-4.083,9.817-4.083s-7.525-3.062-9.378-4.759-4.847-8.27-4.847-8.27-3.636,6.339-5.651,7.9-9.816,4.083-9.816,4.083,7.524,3.062,9.377,4.759A14.879,14.879,0,0,1,1362.963,106.2Z" transform="translate(-1343.715 -86.299)"/><path class="cm" d="M1343.715,286.549s7.2-.758,9.5-.258,8.163,4.1,8.163,4.1-.9-6.063-.306-8,4.867-6.876,4.867-6.876-7.2.758-9.5.258-8.163-4.1-8.163-4.1.9,6.064.306,8S1343.715,286.549,1343.715,286.549Z" transform="translate(-1343.715 -86.299)"/></g><g transform="translate(647.062 84.432)"><path class="cn" d="M1990.777,103.211s7.2-.758,9.5-.257,8.163,4.1,8.163,4.1-.9-6.063-.306-8S2013,92.176,2013,92.176s-7.2.759-9.5.258-8.163-4.1-8.163-4.1.9,6.063.306,8S1990.777,103.211,1990.777,103.211Z" transform="translate(-1990.777 -88.335)"/></g><g transform="translate(468.941 42.679)"><g class="h" transform="translate(170.321)"><path class="co" d="M1989.989,51.628a11.635,11.635,0,0,1-1.388-2.4,10.461,10.461,0,0,1,.366-2.649,15.8,15.8,0,0,1-2.846,1.17,17.17,17.17,0,0,1-3.144-.309,11.63,11.63,0,0,1,1.388,2.4,10.457,10.457,0,0,1-.366,2.649,15.822,15.822,0,0,1,2.845-1.169A17.2,17.2,0,0,1,1989.989,51.628Z" transform="translate(-1982.977 -46.582)"/></g><path class="cp" d="M1842.348,154.09s-7.524-3.062-9.377-4.759-4.848-8.269-4.848-8.269-3.635,6.338-5.65,7.9-9.817,4.083-9.817,4.083,7.525,3.063,9.378,4.759,4.847,8.269,4.847,8.269,3.636-6.338,5.651-7.9S1842.348,154.09,1842.348,154.09Z" transform="translate(-1812.656 -46.582)"/></g><g transform="translate(405.141 189.178)"><g class="h"><path class="cq" d="M1902.342,280.755a11.6,11.6,0,0,1-1.389-2.4,10.457,10.457,0,0,1,.366-2.649,15.807,15.807,0,0,1-2.845,1.17,17.206,17.206,0,0,1-3.145-.308,11.607,11.607,0,0,1,1.388,2.4,10.427,10.427,0,0,1-.365,2.649,15.807,15.807,0,0,1,2.845-1.17A17.2,17.2,0,0,1,1902.342,280.755Z" transform="translate(-1748.856 -193.081)"/><path class="cr" d="M1750.145,274.467c1.492-.535,2.986-1.065,4.477-1.6a1.941,1.941,0,0,1-.142-.383,10.455,10.455,0,0,1,.366-2.649A15.807,15.807,0,0,1,1752,271a17.193,17.193,0,0,1-3.144-.308,11.606,11.606,0,0,1,1.388,2.4A4.719,4.719,0,0,1,1750.145,274.467Z" transform="translate(-1748.856 -193.081)"/><path class="cs" d="M1790.474,352.56a3.226,3.226,0,0,0-4,.576,2.185,2.185,0,0,0,.683,3.372,3.228,3.228,0,0,0,4-.576A2.186,2.186,0,0,0,1790.474,352.56Z" transform="translate(-1748.856 -193.081)"/><path class="ct" d="M1787.867,197.587a3.187,3.187,0,0,0,3.932-.86,2.221,2.221,0,0,0-1.02-3.312,3.187,3.187,0,0,0-3.932.86A2.221,2.221,0,0,0,1787.867,197.587Z" transform="translate(-1748.856 -193.081)"/></g></g></g><g transform="translate(587.816 400.007)"><g transform="translate(124.412 69.558)"><g class="h"><path class="cu" d="M964.224,519.43a12.091,12.091,0,0,0-1.621,2.291,10.357,10.357,0,0,0,.1,2.665,15.32,15.32,0,0,0-2.72-1.366,17.348,17.348,0,0,0-3.165.086,12.1,12.1,0,0,0,1.622-2.29,10.363,10.363,0,0,0-.1-2.666,15.322,15.322,0,0,0,2.72,1.366A17.246,17.246,0,0,0,964.224,519.43Z" transform="translate(-810.277 -470.846)"/><path class="cv" d="M817.68,514.978a12.109,12.109,0,0,0-1.621,2.29,10.363,10.363,0,0,0,.1,2.666,15.339,15.339,0,0,0-2.719-1.366,17.344,17.344,0,0,0-3.165.086,12.091,12.091,0,0,0,1.621-2.291,10.357,10.357,0,0,0-.1-2.665,15.361,15.361,0,0,0,2.72,1.366A17.342,17.342,0,0,0,817.68,514.978Z" transform="translate(-810.277 -470.846)"/><path class="cw" d="M843.852,485.406a2.22,2.22,0,0,0-1.015,3.313,3.187,3.187,0,0,0,3.932.856,2.222,2.222,0,0,0,1.017-3.314A3.188,3.188,0,0,0,843.852,485.406Z" transform="translate(-810.277 -470.846)"/><path class="cx" d="M877.479,471.517c-2.733,1.357-3.643,4.324-2.032,6.626a6.377,6.377,0,0,0,7.867,1.711c2.733-1.357,3.642-4.324,2.031-6.626A6.375,6.375,0,0,0,877.479,471.517Z" transform="translate(-810.277 -470.846)"/><path class="cy" d="M841.9,594.252a2.266,2.266,0,0,0-1.345,3.228,3.128,3.128,0,0,0,3.832,1.134,2.266,2.266,0,0,0,1.346-3.228A3.129,3.129,0,0,0,841.9,594.252Z" transform="translate(-810.277 -470.846)"/></g></g><g transform="translate(0 344.796)"><g class="h"><path class="cz" d="M832.409,790.876s.7-.073,1.47-.115l4.607-1.832a19.29,19.29,0,0,1,1.326-1.73,17.241,17.241,0,0,1-3.164.086,15.23,15.23,0,0,1-2.719-1.366,10.376,10.376,0,0,1,.1,2.666A12.08,12.08,0,0,1,832.409,790.876Z" transform="translate(-685.865 -746.084)"/><path class="da" d="M693.269,782.747a12.086,12.086,0,0,0-1.622,2.291,10.362,10.362,0,0,0,.1,2.666,15.272,15.272,0,0,0-2.719-1.366,17.254,17.254,0,0,0-3.165.086,12.086,12.086,0,0,0,1.622-2.291,10.408,10.408,0,0,0-.1-2.666,15.326,15.326,0,0,0,2.719,1.367A17.326,17.326,0,0,0,693.269,782.747Z" transform="translate(-685.865 -746.084)"/><path class="db" d="M755.869,748.279a6.561,6.561,0,0,0,3.033-.655,5.407,5.407,0,0,0,1.9-1.54Q758.336,747.182,755.869,748.279Z" transform="translate(-685.865 -746.084)"/><path class="dc" d="M738.022,817.928a2.266,2.266,0,0,0,1.345-3.229,3.129,3.129,0,0,0-3.832-1.133,2.267,2.267,0,0,0-1.346,3.229A3.13,3.13,0,0,0,738.022,817.928Z" transform="translate(-685.865 -746.084)"/><path class="dd" d="M703.117,829.364c2.861-1.157,4.066-4.048,2.692-6.457s-4.806-3.424-7.666-2.267-4.065,4.048-2.691,6.457S700.258,830.521,703.117,829.364Z" transform="translate(-685.865 -746.084)"/></g></g><g transform="translate(677.057 153.99)"><g class="h"><path class="de" d="M1486.875,603.862a12.106,12.106,0,0,0-1.622,2.29,10.364,10.364,0,0,0,.1,2.666,15.322,15.322,0,0,0-2.72-1.366,17.241,17.241,0,0,0-3.164.086,12.046,12.046,0,0,0,1.621-2.291,10.312,10.312,0,0,0-.1-2.665,15.356,15.356,0,0,0,2.72,1.366A17.348,17.348,0,0,0,1486.875,603.862Z" transform="translate(-1362.922 -555.277)"/><path class="df" d="M1366.5,569.838a2.219,2.219,0,0,0-1.015,3.312,3.187,3.187,0,0,0,3.933.856,2.22,2.22,0,0,0,1.016-3.313A3.188,3.188,0,0,0,1366.5,569.838Z" transform="translate(-1362.922 -555.277)"/><path class="dg" d="M1400.129,555.949c-2.733,1.357-3.643,4.324-2.032,6.626a6.376,6.376,0,0,0,7.867,1.711c2.733-1.357,3.643-4.324,2.032-6.626A6.375,6.375,0,0,0,1400.129,555.949Z" transform="translate(-1362.922 -555.277)"/><path class="dh" d="M1364.551,678.684a2.266,2.266,0,0,0-1.345,3.228,3.13,3.13,0,0,0,3.833,1.134,2.267,2.267,0,0,0,1.345-3.229A3.131,3.131,0,0,0,1364.551,678.684Z" transform="translate(-1362.922 -555.277)"/></g></g><g transform="translate(455.22)"><g class="h" transform="translate(58.428)"><path class="di" d="M1200.725,405.682a3.232,3.232,0,0,0,4.005-.576,2.187,2.187,0,0,0-.684-3.373,3.23,3.23,0,0,0-4,.575A2.189,2.189,0,0,0,1200.725,405.682Z" transform="translate(-1199.513 -401.288)"/></g><path class="dj" d="M1141.085,416.523s7.1,1.262,9.44.925,8.541-3.51,8.541-3.51-1.5,5.978-1.1,7.951,4.169,7.194,4.169,7.194-7.1-1.262-9.441-.925-8.54,3.511-8.54,3.511,1.5-5.979,1.1-7.952S1141.085,416.523,1141.085,416.523Z" transform="translate(-1141.085 -401.288)"/></g><g transform="translate(393.153 243.419)"><g class="h"><path class="dk" d="M1215.808,732.3a3.971,3.971,0,0,1,.757-.224,17.117,17.117,0,0,1,3.145.308s-.575-.8-.988-1.521Q1217.264,731.577,1215.808,732.3Z" transform="translate(-1079.018 -644.707)"/><path class="dl" d="M1203.016,855.388a11.63,11.63,0,0,1-1.388-2.4,10.412,10.412,0,0,1,.366-2.649,15.9,15.9,0,0,1-2.846,1.17A17.184,17.184,0,0,1,1196,851.2a11.624,11.624,0,0,1,1.389,2.4,10.457,10.457,0,0,1-.366,2.649,15.884,15.884,0,0,1,2.845-1.17A17.174,17.174,0,0,1,1203.016,855.388Z" transform="translate(-1079.018 -644.707)"/><path class="dm" d="M1129.555,774.513a6.412,6.412,0,0,0,6.969-1.643,4.387,4.387,0,0,0,1.02-2.25Q1133.551,772.569,1129.555,774.513Z" transform="translate(-1079.018 -644.707)"/><path class="dn" d="M1107.843,804.186a3.228,3.228,0,0,0-4,.576,2.186,2.186,0,0,0,.683,3.372,3.228,3.228,0,0,0,4-.576A2.187,2.187,0,0,0,1107.843,804.186Z" transform="translate(-1079.018 -644.707)"/><path class="do" d="M1081.853,689.088a6.372,6.372,0,0,0,7.863-1.72c1.608-2.3.694-5.269-2.041-6.623a6.373,6.373,0,0,0-7.864,1.719C1078.2,684.768,1079.118,687.734,1081.853,689.088Z" transform="translate(-1079.018 -644.707)"/><path class="dp" d="M1105.235,649.213a3.188,3.188,0,0,0,3.933-.861,2.221,2.221,0,0,0-1.021-3.311,3.188,3.188,0,0,0-3.932.859A2.222,2.222,0,0,0,1105.235,649.213Z" transform="translate(-1079.018 -644.707)"/></g></g></g></g></g><rect class="dq" width="1920" height="1080" transform="translate(1.872 0)"/></g></g></g></svg>