<svg xmlns="http://www.w3.org/2000/svg" width="81.519" height="89.817" viewBox="0 0 81.519 89.817">
  <g id="discord-seeklogo.com" transform="translate(12.494) rotate(9)">
    <path id="Path_327" data-name="Path 327" d="M61.7,0H8.187A8.206,8.206,0,0,0,0,8.226V62.217a8.206,8.206,0,0,0,8.187,8.226H53.472l-2.117-7.388,5.112,4.752L61.3,72.281l8.586,7.587V8.226A8.206,8.206,0,0,0,61.7,0ZM46.284,52.154s-1.438-1.717-2.636-3.235c5.232-1.478,7.228-4.752,7.228-4.752a22.855,22.855,0,0,1-4.592,2.356,26.279,26.279,0,0,1-5.79,1.717A27.976,27.976,0,0,1,30.15,48.2a33.528,33.528,0,0,1-5.87-1.717,23.419,23.419,0,0,1-2.915-1.358c-.12-.08-.24-.12-.359-.2a.551.551,0,0,1-.16-.12c-.719-.4-1.118-.679-1.118-.679s1.917,3.195,6.988,4.712c-1.2,1.518-2.676,3.315-2.676,3.315-8.825-.28-12.18-6.07-12.18-6.07A53.479,53.479,0,0,1,17.611,22.8a19.748,19.748,0,0,1,11.221-4.193l.4.479c-7.188,2.077-10.5,5.231-10.5,5.231s.879-.479,2.356-1.158a29.99,29.99,0,0,1,9.065-2.516,3.931,3.931,0,0,1,.679-.08,33.789,33.789,0,0,1,8.067-.08,32.552,32.552,0,0,1,12.02,3.834s-3.155-3-9.944-5.072l.559-.639A19.747,19.747,0,0,1,52.753,22.8,53.477,53.477,0,0,1,58.5,46.084S55.109,51.874,46.284,52.154ZM27.714,33.5a4.448,4.448,0,0,0,0,8.865,4.254,4.254,0,0,0,4.073-4.433A4.228,4.228,0,0,0,27.714,33.5m14.576,0a4.448,4.448,0,1,0,4.073,4.432A4.255,4.255,0,0,0,42.29,33.5" fill="#7289da"/>
  </g>
</svg>
