<svg xmlns="http://www.w3.org/2000/svg" width="29" height="33.237" viewBox="0 0 29 33.237">
  <path id="Path_326" data-name="Path 326" d="M25.6,0H3.4A3.41,3.41,0,0,0,0,3.423V25.892a3.41,3.41,0,0,0,3.4,3.423H22.189l-.878-3.074,2.121,1.978,2.005,1.861L29,33.237V3.423A3.41,3.41,0,0,0,25.6,0Zm-6.4,21.7s-.6-.715-1.094-1.346a5.23,5.23,0,0,0,3-1.978,9.474,9.474,0,0,1-1.906.981,10.882,10.882,0,0,1-2.4.715,11.577,11.577,0,0,1-4.292-.017,13.884,13.884,0,0,1-2.436-.715,9.705,9.705,0,0,1-1.21-.565c-.05-.033-.1-.05-.149-.083a.229.229,0,0,1-.066-.05c-.3-.166-.464-.283-.464-.283a5.155,5.155,0,0,0,2.9,1.961c-.5.632-1.11,1.379-1.11,1.379a6.005,6.005,0,0,1-5.054-2.526A22.3,22.3,0,0,1,7.308,9.489a8.179,8.179,0,0,1,4.657-1.745l.166.2a11.17,11.17,0,0,0-4.358,2.177s.365-.2.978-.482a12.417,12.417,0,0,1,3.762-1.047,1.627,1.627,0,0,1,.282-.033,13.982,13.982,0,0,1,3.347-.033,13.481,13.481,0,0,1,4.988,1.6A11.019,11.019,0,0,0,17,8.01l.232-.266a8.179,8.179,0,0,1,4.657,1.745,22.3,22.3,0,0,1,2.386,9.689A6.055,6.055,0,0,1,19.206,21.7ZM11.5,13.943a1.852,1.852,0,0,0,0,3.689,1.768,1.768,0,0,0,1.69-1.845,1.758,1.758,0,0,0-1.69-1.845m6.049,0a1.852,1.852,0,1,0,1.69,1.845,1.768,1.768,0,0,0-1.69-1.845" fill="#d9d9d9"/>
</svg>
