<svg xmlns="http://www.w3.org/2000/svg" width="85.635" height="85.635" viewBox="0 0 85.635 85.635">
  <path id="iconmonstr-facebook-6" d="M61.7,0H3.606A3.6,3.6,0,0,0,0,3.606v58.1a3.6,3.6,0,0,0,3.606,3.6h31.28V40.018H26.374V30.162h8.512V22.893c0-8.436,5.151-13.029,12.678-13.029a69.817,69.817,0,0,1,7.606.389V19.07l-5.219,0c-4.093,0-4.885,1.946-4.885,4.8v6.294h9.761l-1.271,9.856h-8.49V65.309H61.708a3.6,3.6,0,0,0,3.6-3.606V3.606A3.6,3.6,0,0,0,61.7,0Z" transform="matrix(0.921, -0.391, 0.391, 0.921, 0, 25.518)" fill="#4267b2"/>
</svg>
