<svg xmlns="http://www.w3.org/2000/svg" width="28.996" height="28.996" viewBox="0 0 28.996 28.996">
  <path id="facebook" d="M4.247,29h9.458V18.689h-3.4v-3.4h3.4V11.043A4.252,4.252,0,0,1,17.953,6.8H22.2v3.4H18.8a1.7,1.7,0,0,0-1.7,1.7v3.4h4.944l-.566,3.4H17.1V29h7.645A4.252,4.252,0,0,0,29,24.749V4.247A4.252,4.252,0,0,0,24.749,0H4.247A4.252,4.252,0,0,0,0,4.247v20.5A4.252,4.252,0,0,0,4.247,29ZM1.7,4.247A2.551,2.551,0,0,1,4.247,1.7h20.5A2.551,2.551,0,0,1,27.3,4.247v20.5A2.551,2.551,0,0,1,24.749,27.3H18.8V20.388H22.92l1.133-6.8H18.8v-1.7h5.1V5.1H17.953a5.953,5.953,0,0,0-5.946,5.946v2.548h-3.4v6.8h3.4V27.3H4.247A2.551,2.551,0,0,1,1.7,24.749Zm0,0" fill="#d9d9d9"/>
</svg>
