<svg id="instagram" xmlns="http://www.w3.org/2000/svg" width="28.996" height="28.996" viewBox="0 0 28.996 28.996">
  <path id="Path_324" data-name="Path 324" d="M19.935,0H9.061A9.062,9.062,0,0,0,0,9.061V19.935A9.062,9.062,0,0,0,9.061,29H19.935A9.062,9.062,0,0,0,29,19.935V9.061A9.062,9.062,0,0,0,19.935,0Zm6.343,19.935a6.35,6.35,0,0,1-6.343,6.343H9.061a6.35,6.35,0,0,1-6.343-6.343V9.061A6.35,6.35,0,0,1,9.061,2.718H19.935a6.35,6.35,0,0,1,6.343,6.343Z" fill="#d9d9d9"/>
  <path id="Path_325" data-name="Path 325" d="M135.249,128a7.249,7.249,0,1,0,7.249,7.249A7.249,7.249,0,0,0,135.249,128Zm0,11.78a4.531,4.531,0,1,1,4.531-4.531A4.537,4.537,0,0,1,135.249,139.78Z" transform="translate(-120.751 -120.751)" fill="#d9d9d9"/>
  <circle id="Ellipse_3" data-name="Ellipse 3" cx="0.966" cy="0.966" r="0.966" transform="translate(21.325 5.739)" fill="#d9d9d9"/>
</svg>
