<svg xmlns="http://www.w3.org/2000/svg" width="142.944" height="142.944" viewBox="0 0 142.944 142.944">
  <g id="logo-javascript" opacity="0.1">
    <path id="Path_316" data-name="Path 316" d="M0,0H142.944V142.944H0Z" fill="#848d94"/>
    <path id="Path_317" data-name="Path 317" d="M370.174,521.243c-1.046-6.522-5.3-12-17.9-17.107-4.375-2.011-9.253-3.451-10.707-6.767a7.38,7.38,0,0,1-.258-4.185c.938-3.791,5.462-4.973,9.049-3.886a9.957,9.957,0,0,1,5.816,5.394c6.169-3.995,6.155-3.968,10.463-6.712a26.658,26.658,0,0,0-3.451-4.62c-3.709-4.144-8.764-6.278-16.849-6.115-1.4.177-2.813.367-4.212.543-4.035,1.019-7.881,3.139-10.136,5.979-6.767,7.677-4.837,21.115,3.4,26.646,8.112,6.087,20.028,7.473,21.55,13.167,1.481,6.971-5.122,9.226-11.686,8.424-4.837-1.005-7.527-3.465-10.435-7.935-5.353,3.1-5.353,3.1-10.857,6.264,1.3,2.853,2.677,4.144,4.864,6.617,10.354,10.5,36.266,9.987,40.913-5.911A19.628,19.628,0,0,0,370.174,521.243Zm-53.536-43.155h-13.37c0,11.55-.054,23.018-.054,34.567,0,7.351.38,14.091-.815,16.156-1.957,4.063-7.025,3.56-9.335,2.772-2.351-1.155-3.546-2.8-4.932-5.122a6.876,6.876,0,0,0-.761-1.223q-5.442,3.322-10.87,6.658a21.485,21.485,0,0,0,7.881,9.022c5.1,3.057,11.944,3.995,19.1,2.351,4.661-1.359,8.682-4.171,10.789-8.451,3.044-5.612,2.391-12.406,2.364-19.92.068-12.256,0-24.512,0-36.809Z" transform="translate(-238.93 -412.391)" fill="#fff"/>
  </g>
</svg>
