<svg id="logo-design" xmlns="http://www.w3.org/2000/svg" xmlns:xlink="http://www.w3.org/1999/xlink" width="92.462" height="92.462" viewBox="0 0 92.462 92.462">
  <defs>
    <linearGradient id="linear-gradient" x1="0.5" x2="0.5" y2="1" gradientUnits="objectBoundingBox">
      <stop offset="0" stop-color="#1b044b"/>
      <stop offset="1" stop-color="#8b34bd"/>
    </linearGradient>
  </defs>
  <path id="Path_141" data-name="Path 141" d="M91.107,72.657A1.354,1.354,0,0,0,92.462,71.3V12.574a2.308,2.308,0,0,0-2.3-2.306H82.194V2.306A2.308,2.308,0,0,0,79.889,0H29.349a1.358,1.358,0,0,0-.958.4l-12.07,12.07a1.372,1.372,0,0,0-.4.958V26.792a1.354,1.354,0,1,0,2.709,0V14.779H28.4A2.308,2.308,0,0,0,30.7,12.474V2.709H79.485V79.485H18.633V73.52H38.111c2.813,0,11.125-2.84,17.6-5.222a2.72,2.72,0,0,0,0-5.107c-6.478-2.383-14.792-5.222-17.6-5.222H18.633V33.113a1.354,1.354,0,1,0-2.709,0V57.969H14.573a2.34,2.34,0,0,0-2.309-1.99H8.707a2.341,2.341,0,0,0-2.338,2.338v1.231H3.892A3.9,3.9,0,0,0,0,63.44v4.61a3.9,3.9,0,0,0,3.892,3.892H6.369v1.231A2.341,2.341,0,0,0,8.708,75.51h3.556a2.34,2.34,0,0,0,2.309-1.99h1.352v6.369a2.307,2.307,0,0,0,2.3,2.3h7.964v7.964a2.307,2.307,0,0,0,2.3,2.3H90.158a2.307,2.307,0,0,0,2.3-2.3V77.623a1.354,1.354,0,0,0-2.709,0v12.13H28.9V82.194H79.889a2.307,2.307,0,0,0,2.3-2.3V12.977h7.559V71.3a1.354,1.354,0,0,0,1.354,1.354ZM20.549,12.07l7.446-7.446V12.07ZM34.312,60.678a9.093,9.093,0,0,0-1.438,3.712H14.6V60.678Zm11.061,1.8v6.537c-6.332,2.012-7.3,1.779-7.405,1.8a6.4,6.4,0,0,1,0-10.133c.152.026.953-.252,7.405,1.8ZM14.6,67.1H32.874a9.094,9.094,0,0,0,1.438,3.712H14.6Zm40.186-1.362c0,.007,0,.014.008.012l-.016.007c-2.439.9-4.687,1.691-6.7,2.369V63.365C50.093,64.043,54.785,65.736,54.787,65.737Zm-50.9,3.5A1.185,1.185,0,0,1,2.709,68.05V63.44a1.185,1.185,0,0,1,1.183-1.183H6.369v6.976Zm8,3.569H9.078V58.688h2.814V72.8Z" transform="translate(0 0)" fill="url(#linear-gradient)"/>
  <path id="Path_142" data-name="Path 142" d="M196.76,131.457H177.975a2.431,2.431,0,0,0-2.428,2.428V152.67a2.431,2.431,0,0,0,2.428,2.428h7.506a12.427,12.427,0,1,0,13.707-13.707v-7.506A2.431,2.431,0,0,0,196.76,131.457Zm-18.5,2.709h18.223v7.225a12.449,12.449,0,0,0-11,11h-7.225Zm18.223,9.956v8.268h-8.268A9.737,9.737,0,0,1,196.479,144.121Zm11.073,9.622a9.718,9.718,0,0,1-19.341,1.354h8.549a2.431,2.431,0,0,0,2.428-2.428v-8.549A9.732,9.732,0,0,1,207.552,153.743Z" transform="translate(-143.845 -107.717)" fill="url(#linear-gradient)"/>
</svg>
