<svg xmlns="http://www.w3.org/2000/svg" width="75" height="74.993" viewBox="0 0 75 74.993">
  <path id="Path_7" data-name="Path 7" d="M533.144-.009A37.493,37.493,0,0,0,496.17,37.484c0,.291,0,.548.02.816a.4.4,0,0,0,.793.05c1.166-9.5,4.584-13.9,10.4-18.443a.524.524,0,0,0,0-.833c-.8-.6-1.314-1.279-.5-1.763a2.81,2.81,0,0,1,1.195-.364.525.525,0,0,0,.323-.874c-.694-.778-.831-1.483.405-1.8,2.218-.565,4.8.353,6.373,1.09a.487.487,0,0,0,.373.017,31.18,31.18,0,0,1,25.492,1.888.47.47,0,0,0,.306.055c3.24-.507,11.656-1.815,12.038-1.815.242,0,1.393,2.707,2.468,5.382a2.919,2.919,0,1,1,3.925,4.322,6.673,6.673,0,0,0-2.914,1.017l-3.788-8.923c-31.8,3.666-42.846,11.458-42.846,11.458l.35,3.238c-11.869,14.078-15.477,17.86-13.475,19.862,1.294,1.294,17.027-10.948,17.027-10.948,12.947,10.415,20.434,8.655,24.717,4.007a3.007,3.007,0,0,0,1.4,1.888,11.874,11.874,0,0,0,6.032,1.358,23.449,23.449,0,0,0,9.136-1.95c-2.366,13.192-14.7,22.526-29.38,22.526a33.7,33.7,0,0,1-18.776-6.093.516.516,0,0,0-.659.778A37.495,37.495,0,1,0,533.144-.009ZM517.475,11.624a1.579,1.579,0,1,1,1.667-1.579,1.626,1.626,0,0,1-1.667,1.579Zm16.776,0A4.3,4.3,0,0,1,529.8,7.48a4.457,4.457,0,0,1,8.891,0A4.3,4.3,0,0,1,534.251,11.624ZM548.691,13.2a1.579,1.579,0,1,1,1.664-1.577,1.62,1.62,0,0,1-1.664,1.577Zm-34.13,22.147c-.154-.239-.332-.542-.539-.93a10.423,10.423,0,0,1-.9-3.867c-.055-.781.443-1.308.892-.924a5.569,5.569,0,0,1,1.294,2.561,11.047,11.047,0,0,1,.5,2.29c.1,1.107-.74,1.681-1.241.877Zm1.9,2.993a.921.921,0,1,1,.452-1.075.834.834,0,0,1-.452,1.084Zm23.455,34.042a1.38,1.38,0,1,1,0,.009Zm1.276-27.1a1.571,1.571,0,0,1-.533-.565c2.366-2.661,2.882-6.09,3.3-8.856.291-1.917.536-3.578,1.273-3.721.664,0,5.828-.14,8.16-1.335A15.325,15.325,0,0,0,555.3,29.5c1.6-1.2,4.01-3.01,5.289-2.331.711.373,1.868,1.95,1.623,8.3-.169,4.371-3.441,7.017-6.16,8.477-5.438,2.9-12.067,3.034-14.862,1.332Zm10.24,21.442a2.416,2.416,0,1,1,2.739-2.4A2.585,2.585,0,0,1,551.43,66.724Zm5.012-9.931a1.374,1.374,0,1,1,1.649-1.346A1.523,1.523,0,0,1,556.442,56.793Zm8.229-9.506a3.382,3.382,0,1,1,.006,0Z" transform="translate(-496.17 0.012)" fill="#340f67"/>
</svg>
