<svg xmlns="http://www.w3.org/2000/svg" width="154.074" height="30.98" viewBox="0 0 154.074 30.98">
  <g id="Group_164" data-name="Group 164" transform="translate(0 -27)">
    <path id="Path_1" data-name="Path 1" d="M21.072,100.842a8.265,8.265,0,0,1-1.767,5.153,9.27,9.27,0,0,1-4.489,3.258l4.892,9.921a2.541,2.541,0,0,1-2.289,3.646,2.346,2.346,0,0,1-2.263-1.424L9.434,109.812H5.085V120.1a2.451,2.451,0,0,1-.757,1.79,2.438,2.438,0,0,1-1.79.734A2.508,2.508,0,0,1,0,120.1V94.392A2.425,2.425,0,0,1,.733,92.6a2.438,2.438,0,0,1,1.79-.757h8.92a9.562,9.562,0,0,1,6.793,2.632A8.376,8.376,0,0,1,21.072,100.842Zm-9.448,3.9a4.854,4.854,0,0,0,3.106-1.189,3.548,3.548,0,0,0-.064-5.5,4.8,4.8,0,0,0-3.223-1.141H5.085v7.83Z" transform="translate(0.002 -64.843)" fill="#340f67"/>
    <path id="Path_2" data-name="Path 2" d="M106.371,117.713a2.406,2.406,0,0,1,1.79.753,2.473,2.473,0,0,1,.757,1.812,2.584,2.584,0,0,1-2.543,2.543H90.753a2.578,2.578,0,0,1-2.543-2.543V94.419a2.578,2.578,0,0,1,2.543-2.569h.022l15.6.044a2.48,2.48,0,0,1,1.812.753,2.514,2.514,0,0,1,.734,1.812A2.584,2.584,0,0,1,106.374,97h-.022l-13.033-.045v7.83h9.4a2.5,2.5,0,0,1,1.812.734,2.543,2.543,0,0,1,0,3.624,2.5,2.5,0,0,1-1.812.731h-9.4v7.833Z" transform="translate(-60.169 -64.85)" fill="#340f67"/>
    <path id="Path_3" data-name="Path 3" d="M171.342,115.1a2.438,2.438,0,0,1,1.79.734,2.521,2.521,0,0,1,0,3.6,2.438,2.438,0,0,1-1.79.734,2.543,2.543,0,1,1,0-5.07Zm0,11.126a2.435,2.435,0,0,1,1.79.731,2.483,2.483,0,0,1,.757,1.812,2.543,2.543,0,0,1-2.543,2.524,2.547,2.547,0,0,1-1.79-4.336,2.425,2.425,0,0,1,1.787-.725Z" transform="translate(-111.008 -81.095)" fill="#340f67"/>
    <path id="Path_4" data-name="Path 4" d="M213.843,92a2.572,2.572,0,0,1,2.543,2.543v23.295H227.8a2.483,2.483,0,0,1,1.812.757,2.543,2.543,0,0,1,0,3.579,2.483,2.483,0,0,1-1.812.757H213.843a2.584,2.584,0,0,1-2.543-2.543V94.543A2.578,2.578,0,0,1,213.843,92Z" transform="translate(-138.811 -65)" fill="#340f67"/>
    <path id="Path_5" data-name="Path 5" d="M283.9,122.959a2.543,2.543,0,0,1-1.38-3.322l2.74-6.58v-.022l7.947-19.153a1.521,1.521,0,0,1,.108-.216l.041-.108.086-.108a.318.318,0,0,1,.067-.1l.086-.089a.465.465,0,0,1,.064-.086c.041-.045.086-.092.086-.108a1.029,1.029,0,0,1,.089-.064q.086-.086.1-.086a.339.339,0,0,1,.089-.067,1.025,1.025,0,0,0,.108-.086l.086-.064a.41.41,0,0,1,.127-.064,1.426,1.426,0,0,1,.153-.067c.07-.041.092-.057.064-.041l.086-.045a.692.692,0,0,0,.153-.041,1.067,1.067,0,0,0,.149-.044l.089-.022a.824.824,0,0,0,.149-.022l.108-.019h.5l.13.019.108.022a.521.521,0,0,1,.149.044c.086,0,.114.022.086.022a1.619,1.619,0,0,1,.477.194c-.016,0,0,0,.086.041a1.252,1.252,0,0,1,.127.086l.089.067a.666.666,0,0,1,.1.086c.016,0,.044.022.089.064a.318.318,0,0,0,.108.086c0,.016.019.045.064.086a.348.348,0,0,1,.086.108l.064.089c.057.057.089.092.089.1a.271.271,0,0,0,.064.108.4.4,0,0,1,.064.108,1.528,1.528,0,0,1,.108.216l7.947,19.153v.022l2.74,6.58a2.543,2.543,0,0,1-1.38,3.322,2.6,2.6,0,0,1-.973.194,2.343,2.343,0,0,1-2.349-1.589l-2.073-5H289.3l-2.073,5a2.343,2.343,0,0,1-2.349,1.589h-.5Zm15.789-11.444-4.161-10.01-4.133,10.01Z" transform="translate(-185.228 -65.33)" fill="#340f67"/>
    <path id="Path_6" data-name="Path 6" d="M399.712,92.762a2.489,2.489,0,0,1,.388,3.56l-9.34,11.7v12.49a2.461,2.461,0,0,1-.757,1.812,2.543,2.543,0,0,1-3.579,0,2.47,2.47,0,0,1-.753-1.812V108.02l-9.34-11.689a2.543,2.543,0,0,1,.388-3.57,2.457,2.457,0,0,1,1.876-.56,2.543,2.543,0,0,1,1.7.954l7.915,9.924,7.947-9.924a2.489,2.489,0,0,1,3.551-.394Z" transform="translate(-246.602 -65.185)" fill="#340f67"/>
  </g>
</svg>
