<svg xmlns="http://www.w3.org/2000/svg" width="142" height="160.007" viewBox="0 0 142 160.007">
  <g id="nodejs-seeklogo.com" opacity="0.1">
    <path id="Path_322" data-name="Path 322" d="M71,160.007a12.89,12.89,0,0,1-6.174-1.617L45.275,146.778c-2.94-1.617-1.47-2.2-.588-2.5a35.6,35.6,0,0,0,8.82-3.969,1.352,1.352,0,0,1,1.47.147l14.994,8.967a1.868,1.868,0,0,0,1.764,0l58.652-33.956a1.689,1.689,0,0,0,.882-1.617V46.084a1.689,1.689,0,0,0-.882-1.617L71.735,10.657a1.868,1.868,0,0,0-1.764,0L11.319,44.467a1.844,1.844,0,0,0-.882,1.617V113.85a1.844,1.844,0,0,0,.882,1.617l16.023,9.261c8.673,4.41,14.112-.735,14.112-5.88V51.964A1.787,1.787,0,0,1,43.217,50.2h7.5a1.787,1.787,0,0,1,1.764,1.764v66.884c0,11.613-6.321,18.375-17.346,18.375-3.381,0-6.027,0-13.524-3.675l-15.435-8.82A12.405,12.405,0,0,1,0,114V46.231A12.406,12.406,0,0,1,6.174,35.5L64.826,1.543a13.119,13.119,0,0,1,12.347,0L135.826,35.5A12.406,12.406,0,0,1,142,46.231V114a12.405,12.405,0,0,1-6.174,10.73L77.174,158.684A15.044,15.044,0,0,1,71,160.007Zm18.081-46.6c-25.725,0-31.016-11.759-31.016-21.755a1.787,1.787,0,0,1,1.764-1.764h7.644a1.511,1.511,0,0,1,1.617,1.47c1.176,7.791,4.557,11.613,20.138,11.613,12.348,0,17.64-2.793,17.64-9.408,0-3.822-1.47-6.615-20.727-8.526C70.118,83.421,60.122,79.893,60.122,67.1c0-11.907,10-18.963,26.754-18.963,18.816,0,28.077,6.468,29.253,20.58a2.371,2.371,0,0,1-.441,1.323,1.815,1.815,0,0,1-1.176.588h-7.644a1.722,1.722,0,0,1-1.617-1.323c-1.764-8.085-6.321-10.73-18.375-10.73-13.524,0-15.141,4.7-15.141,8.232,0,4.263,1.911,5.586,20.138,7.938,18.081,2.352,26.607,5.733,26.607,18.375-.147,12.936-10.73,20.285-29.4,20.285Z" transform="translate(0 0)" fill="#848d94"/>
  </g>
</svg>
