<svg id="repair" xmlns="http://www.w3.org/2000/svg" xmlns:xlink="http://www.w3.org/1999/xlink" width="92.462" height="92.462" viewBox="0 0 92.462 92.462">
  <defs>
    <linearGradient id="linear-gradient" x1="0.5" x2="0.5" y2="1" gradientUnits="objectBoundingBox">
      <stop offset="0" stop-color="#1b044b"/>
      <stop offset="1" stop-color="#8b34bd"/>
    </linearGradient>
  </defs>
  <path id="Path_146" data-name="Path 146" d="M45.688,31.3a4.286,4.286,0,1,0,4.285,4.285A4.291,4.291,0,0,0,45.688,31.3Zm0,5.836a1.55,1.55,0,1,1,1.55-1.551A1.552,1.552,0,0,1,45.688,37.141Zm0,0" transform="translate(-33.925 -25.651)" fill="url(#linear-gradient)"/>
  <path id="Path_147" data-name="Path 147" d="M109.31,31.3a4.286,4.286,0,1,0,4.285,4.286A4.291,4.291,0,0,0,109.31,31.3Zm0,5.836a1.55,1.55,0,1,1,1.55-1.551A1.552,1.552,0,0,1,109.31,37.141Zm0,0" transform="translate(-86.057 -25.651)" fill="url(#linear-gradient)"/>
  <path id="Path_148" data-name="Path 148" d="M172.934,31.3a4.286,4.286,0,1,0,4.285,4.286A4.291,4.291,0,0,0,172.934,31.3Zm0,5.836a1.55,1.55,0,1,1,1.551-1.551A1.552,1.552,0,0,1,172.934,37.141Zm0,0" transform="translate(-138.192 -25.651)" fill="url(#linear-gradient)"/>
  <path id="Path_149" data-name="Path 149" d="M87.447,0H5.014A5.02,5.02,0,0,0,0,5.015V65.38a5.02,5.02,0,0,0,5.015,5.015h8.824a1.367,1.367,0,0,0,.111,1.807l6.572,6.572a28.042,28.042,0,0,0-1.29,3.11H9.938a1.368,1.368,0,0,0-1.367,1.368v7.842a1.368,1.368,0,0,0,1.367,1.368H36.929A1.368,1.368,0,0,0,38.3,91.094a7.568,7.568,0,1,1,15.136,0A1.368,1.368,0,0,0,54.8,92.462H81.793a1.368,1.368,0,0,0,1.368-1.368V83.252a1.368,1.368,0,0,0-1.368-1.368H72.5a28.041,28.041,0,0,0-1.29-3.11L77.782,72.2a1.368,1.368,0,0,0,.111-1.807h9.553a5.02,5.02,0,0,0,5.015-5.015V31.543a1.367,1.367,0,1,0-2.735,0V65.38a2.282,2.282,0,0,1-2.28,2.279H75.174L67.112,59.6V50.243a1.368,1.368,0,0,0-1.368-1.368H63.282V40.446l1.93-1.782a1.368,1.368,0,0,0,.379-1.411L62.309,26.677A1.368,1.368,0,0,0,61,25.714H57.354a1.369,1.369,0,0,0-1.306.962L52.766,37.254a1.368,1.368,0,0,0,.379,1.411l1.931,1.782v8.428H52.613a1.368,1.368,0,0,0-1.368,1.368V53.8H40.485V51.721l5.253-5.253a1.367,1.367,0,0,0,.4-.967V34.285a1.367,1.367,0,0,0-.407-.973l-7.294-7.2a1.368,1.368,0,0,0-2.329.973V39.275l-3.556,2.239L29,39.275V38.5a1.368,1.368,0,0,0-2.736,0V40.03a1.367,1.367,0,0,0,.639,1.158l4.924,3.1a1.366,1.366,0,0,0,1.457,0l4.924-3.1a1.367,1.367,0,0,0,.639-1.158V30.355l4.559,4.5V44.934l-5.253,5.253a1.368,1.368,0,0,0-.4.968v2.671a1.368,1.368,0,0,0-1.094,1.34v9.293a28.047,28.047,0,0,0-3.111,1.29l-6.19-6.19v-8.4a1.368,1.368,0,0,0-.4-.968L21.7,44.934V34.857l4.559-4.5v1.735a1.368,1.368,0,0,0,2.736,0V27.082a1.368,1.368,0,0,0-2.329-.973l-7.295,7.2a1.366,1.366,0,0,0-.406.973V45.5a1.367,1.367,0,0,0,.4.967l5.253,5.253V59.6l-8.062,8.062H5.014A2.281,2.281,0,0,1,2.735,65.38v-45.5H89.726V25.17a1.368,1.368,0,0,0,2.736,0V5.015A5.02,5.02,0,0,0,87.447,0ZM57.371,38.843l-1.736-1.6,2.729-8.79h1.632l2.728,8.79-1.736,1.6a1.369,1.369,0,0,0-.44,1.005v9.027H57.811V39.848a1.37,1.37,0,0,0-.441-1.005Zm7.006,12.768v7.949l-6.19,6.19a28.188,28.188,0,0,0-3.111-1.29V55.167a1.368,1.368,0,0,0-1.094-1.34V51.611h10.4ZM33.924,68.626a25.332,25.332,0,0,1,4.5-1.866,1.368,1.368,0,0,0,.968-1.309V56.534H52.339v8.917a1.369,1.369,0,0,0,.969,1.309,25.334,25.334,0,0,1,4.5,1.866,1.369,1.369,0,0,0,1.61-.24l6.307-6.307,7.914,7.915h0l1.24,1.239-6.307,6.307a1.368,1.368,0,0,0-.24,1.61,25.288,25.288,0,0,1,1.866,4.5,1.368,1.368,0,0,0,1.308.968h8.917v5.107H66.519A20.71,20.71,0,0,0,37.451,72.177a1.368,1.368,0,0,0,1.113,2.5,17.974,17.974,0,0,1,25.213,15.05h-7.7a10.3,10.3,0,0,0-20.426,0h-7.7a17.77,17.77,0,0,1,5.628-11.738,1.368,1.368,0,0,0-1.871-2,20.787,20.787,0,0,0-6.5,13.734H11.306V84.62h8.917a1.368,1.368,0,0,0,1.309-.968,25.289,25.289,0,0,1,1.866-4.5,1.368,1.368,0,0,0-.24-1.61l-6.307-6.307L18.091,70h0l7.914-7.915,6.307,6.307a1.368,1.368,0,0,0,1.61.24ZM2.735,17.143V5.015A2.282,2.282,0,0,1,5.014,2.736H87.447a2.282,2.282,0,0,1,2.279,2.279V17.143Zm0,0" transform="translate(0)" fill="url(#linear-gradient)"/>
</svg>
