<svg xmlns="http://www.w3.org/2000/svg" width="159.688" height="159.688" viewBox="0 0 159.688 159.688">
  <g id="react-1" opacity="0.1">
    <path id="Path_318" data-name="Path 318" d="M0,0H159.688V159.688H0Z" fill="none"/>
    <circle id="Ellipse_2" data-name="Ellipse 2" cx="13.354" cy="13.354" r="13.354" transform="translate(66.367 66.393)" fill="#848d94"/>
    <path id="Path_319" data-name="Path 319" d="M256.27,1191.9c17.926,0,34.58,2.573,47.135,6.893,15.128,5.207,24.43,13.1,24.43,20.251,0,7.449-9.859,15.838-26.1,21.218-12.281,4.069-28.446,6.2-45.463,6.2-17.449,0-33.967-1.995-46.389-6.24-15.715-5.371-25.181-13.866-25.181-21.173,0-7.092,8.883-14.925,23.8-20.123C221.1,1194.53,238.168,1191.9,256.27,1191.9Z" transform="translate(-176.55 -1139.302)" fill="none" stroke="#848d94" stroke-miterlimit="10" stroke-width="5"/>
    <path id="Path_320" data-name="Path 320" d="M858.442,424.921c8.954-15.529,19.505-28.671,29.523-37.387,12.069-10.5,23.557-14.616,29.748-11.046,6.452,3.72,8.8,16.452,5.34,33.217-2.612,12.674-8.844,27.736-17.347,42.479-8.716,15.115-18.7,28.429-28.579,37.069-12.5,10.931-24.594,14.885-30.922,11.236-6.143-3.544-8.491-15.15-5.547-30.67C843.146,456.694,849.4,440.6,858.442,424.921Z" transform="translate(-802.353 -358.668)" fill="none" stroke="#848d94" stroke-miterlimit="10" stroke-width="5"/>
    <path id="Path_321" data-name="Path 321" d="M859.31,455.27c-8.98-15.516-15.1-31.217-17.648-44.249-3.071-15.7-.9-27.709,5.287-31.288,6.447-3.733,18.645.6,31.443,11.959,9.678,8.592,19.611,21.513,28.137,36.244,8.742,15.1,15.3,30.4,17.842,43.269,3.226,16.293.613,28.742-5.71,32.4-6.138,3.552-17.365-.207-29.342-10.512C879.2,484.387,868.379,470.936,859.31,455.27Z" transform="translate(-803.199 -361.724)" fill="none" stroke="#848d94" stroke-miterlimit="10" stroke-width="5"/>
  </g>
</svg>
