<svg id="Group_79" data-name="Group 79" xmlns="http://www.w3.org/2000/svg" xmlns:xlink="http://www.w3.org/1999/xlink" width="92.457" height="92.482" viewBox="0 0 92.457 92.482">
  <defs>
    <linearGradient id="linear-gradient" x1="0.5" x2="0.5" y2="1" gradientUnits="objectBoundingBox">
      <stop offset="0" stop-color="#1b044b"/>
      <stop offset="1" stop-color="#8b34bd"/>
    </linearGradient>
  </defs>
  <path id="Path_150" data-name="Path 150" d="M91.345,85.555,89.74,83.949a2.032,2.032,0,0,0-.585-1.639L78.5,71.659a2.033,2.033,0,0,0-1.64-.585l-4.346-4.346a3.69,3.69,0,0,0-.678-4.273L70.15,60.764c10.893-14.871,8.87-37.352-4.872-50.043a1.354,1.354,0,0,0-1.872,1.957c23.29,21.9,7.2,61.958-24.777,61.753-47.486-1.8-47.482-69.9,0-71.694A35.664,35.664,0,0,1,58.682,8.867,1.354,1.354,0,0,0,60.2,6.623C35.25-10.733-.327,8.153.074,38.586-.219,69.526,35.928,88.1,60.808,70.105L62.5,71.8a3.7,3.7,0,0,0,4.274.679l4.345,4.345A2.032,2.032,0,0,0,71.7,78.46L73.6,80.353a1.355,1.355,0,0,0,1.916-1.916L74.095,77.02l2.97-2.97,9.7,9.7-2.97,2.97L80,82.925a1.355,1.355,0,0,0-1.916,1.916l4.269,4.269a2.029,2.029,0,0,0,1.641.587l1.6,1.6a4.063,4.063,0,0,0,5.747-5.746ZM65.1,70.166a.97.97,0,0,1-.69-.286l-1.43-1.43A38.9,38.9,0,0,0,68.5,62.94l1.43,1.43a.977.977,0,0,1,0,1.38l-4.13,4.13a.97.97,0,0,1-.69.286Zm7.6,4.411-3.889-3.889,1.915-1.915,3.889,3.889ZM89.43,89.385a1.361,1.361,0,0,1-1.915,0l-1.279-1.279,1.916-1.916L89.43,87.47A1.361,1.361,0,0,1,89.43,89.385Z" transform="translate(-0.07 -0.001)" fill="url(#linear-gradient)"/>
  <path id="Path_151" data-name="Path 151" d="M115.115,141.336a4.082,4.082,0,0,0-5.746,0L97.651,153.054A4.063,4.063,0,1,0,103.4,158.8l8.845-8.845,4.788,4.788a4.063,4.063,0,0,0,5.746,0l7.84-7.839.824.824a4.02,4.02,0,0,0,6.706-1.815h-.006c.041-.128.079-.268.12-.423l2.646-9.874a3.965,3.965,0,0,0-1.036-3.869h0A3.966,3.966,0,0,0,136,130.709l-10.317,2.764a4.017,4.017,0,0,0-1.8,6.7l.982.982-4.966,4.966Zm10.352-4.329a1.268,1.268,0,0,1,.917-.917l10.317-2.764a1.3,1.3,0,0,1,1.588,1.588s-2.713,10.124-2.764,10.312a1.3,1.3,0,0,1-1.258.968,1.275,1.275,0,0,1-.913-.382L125.8,138.26a1.268,1.268,0,0,1-.336-1.253Zm1.318,6.065,1.915,1.915-7.839,7.839a1.361,1.361,0,0,1-1.915,0l-5.746-5.746a1.355,1.355,0,0,0-1.916,0l-9.8,9.8a1.354,1.354,0,0,1-1.916-1.915l11.718-11.718a1.36,1.36,0,0,1,1.915,0L118.945,149a1.354,1.354,0,0,0,1.915,0Z" transform="translate(-79.055 -106.99)" fill="url(#linear-gradient)"/>
  <path id="Path_152" data-name="Path 152" d="M30.087,63.3A33.176,33.176,0,0,0,63.225,96.434c43.9-1.666,43.89-64.617,0-66.276A33.176,33.176,0,0,0,30.087,63.3Zm63.568,0A30.464,30.464,0,0,1,63.225,93.726c-40.313-1.53-40.3-59.335,0-60.859A30.464,30.464,0,0,1,93.655,63.3Z" transform="translate(-24.666 -24.712)" fill="url(#linear-gradient)"/>
</svg>
