<svg id="website" xmlns="http://www.w3.org/2000/svg" xmlns:xlink="http://www.w3.org/1999/xlink" width="83.599" height="72.496" viewBox="0 0 83.599 72.496">
  <defs>
    <linearGradient id="linear-gradient" x1="0.5" x2="0.5" y2="1" gradientUnits="objectBoundingBox">
      <stop offset="0" stop-color="#1b044b"/>
      <stop offset="1" stop-color="#8b34bd"/>
    </linearGradient>
  </defs>
  <path id="Path_153" data-name="Path 153" d="M29.36,70.174A3.684,3.684,0,1,0,33.044,66.5,3.683,3.683,0,0,0,29.36,70.174Zm4.918,0a1.235,1.235,0,1,1-1.234-1.225A1.231,1.231,0,0,1,34.278,70.174Z" transform="translate(-24.566 -61.193)" fill="url(#linear-gradient)"/>
  <path id="Path_154" data-name="Path 154" d="M101.99,70.174a3.684,3.684,0,1,0-3.684,3.674A3.683,3.683,0,0,0,101.99,70.174Zm-4.918,0A1.235,1.235,0,1,1,98.307,71.4,1.231,1.231,0,0,1,97.072,70.174Z" transform="translate(-79.173 -61.193)" fill="url(#linear-gradient)"/>
  <path id="Path_155" data-name="Path 155" d="M165.37,70.174a3.684,3.684,0,1,0-3.684,3.674A3.683,3.683,0,0,0,165.37,70.174Zm-4.918,0a1.235,1.235,0,1,1,1.235,1.225A1.231,1.231,0,0,1,160.452,70.174Z" transform="translate(-132.204 -61.193)" fill="url(#linear-gradient)"/>
  <path id="Path_156" data-name="Path 156" d="M263.51,73.848a3.674,3.674,0,1,0,0-7.348H229.083a3.674,3.674,0,1,0,0,7.348Zm-35.662-3.674a1.231,1.231,0,0,1,1.235-1.225H263.51a1.225,1.225,0,1,1,0,2.449H229.083A1.231,1.231,0,0,1,227.848,70.174Z" transform="translate(-188.596 -61.193)" fill="url(#linear-gradient)"/>
  <path id="Path_157" data-name="Path 157" d="M79.109,34H15.185a1.225,1.225,0,0,0,0,2.449H79.109A2.043,2.043,0,0,1,81.15,38.49V49.022H2.449V38.49A2.043,2.043,0,0,1,4.49,36.449H9.47A1.225,1.225,0,0,0,9.47,34H4.49A4.5,4.5,0,0,0,0,38.49v63.516a4.5,4.5,0,0,0,4.49,4.49H79.109a4.5,4.5,0,0,0,4.49-4.49V94.087a1.225,1.225,0,1,0-2.449,0v7.919a2.043,2.043,0,0,1-2.041,2.041H4.49a2.043,2.043,0,0,1-2.041-2.041V51.471h78.7v36.9a1.225,1.225,0,1,0,2.449,0V38.49A4.5,4.5,0,0,0,79.109,34Z" transform="translate(0 -34)" fill="url(#linear-gradient)"/>
  <path id="Path_158" data-name="Path 158" d="M163.065,168.3h-9.389a1.225,1.225,0,1,0,0,2.449h9.389a2.861,2.861,0,0,0,2.857-2.857v-6.531a2.861,2.861,0,0,0-2.857-2.857H124.857A2.861,2.861,0,0,0,122,161.357v6.531a2.861,2.861,0,0,0,2.857,2.857h23.1a1.225,1.225,0,1,0,0-2.449h-23.1a.409.409,0,0,1-.408-.408v-6.531a.409.409,0,0,1,.408-.408h38.207a.409.409,0,0,1,.408.408v6.531A.409.409,0,0,1,163.065,168.3Z" transform="translate(-102.08 -138.172)" fill="url(#linear-gradient)"/>
  <path id="Path_159" data-name="Path 159" d="M214.582,251a8.082,8.082,0,1,0,8.082,8.082A8.092,8.092,0,0,0,214.582,251Zm0,13.715a5.633,5.633,0,1,1,5.633-5.633A5.64,5.64,0,0,1,214.582,264.716Z" transform="translate(-172.783 -215.568)" fill="url(#linear-gradient)"/>
  <path id="Path_160" data-name="Path 160" d="M353.582,251a8.082,8.082,0,1,0,8.082,8.082A8.092,8.092,0,0,0,353.582,251Zm0,13.715a5.633,5.633,0,1,1,5.633-5.633A5.64,5.64,0,0,1,353.582,264.716Z" transform="translate(-289.087 -215.568)" fill="url(#linear-gradient)"/>
  <path id="Path_161" data-name="Path 161" d="M75.582,251a8.082,8.082,0,1,0,3.086,15.554,1.225,1.225,0,1,0-.936-2.263,5.626,5.626,0,1,1,3.209-3.467,1.225,1.225,0,1,0,2.33.756A8.087,8.087,0,0,0,75.582,251Z" transform="translate(-56.479 -215.568)" fill="url(#linear-gradient)"/>
  <path id="Path_162" data-name="Path 162" d="M92.154,365H80.725a1.225,1.225,0,0,0,0,2.449h11.43a1.225,1.225,0,0,0,0-2.449Z" transform="translate(-66.519 -310.954)" fill="url(#linear-gradient)"/>
  <path id="Path_163" data-name="Path 163" d="M83.787,395H70.725a1.225,1.225,0,0,0,0,2.449H83.787a1.225,1.225,0,0,0,0-2.449Z" transform="translate(-58.152 -336.056)" fill="url(#linear-gradient)"/>
  <path id="Path_164" data-name="Path 164" d="M83.787,425H70.725a1.225,1.225,0,0,0,0,2.449H83.787a1.225,1.225,0,0,0,0-2.449Z" transform="translate(-58.152 -361.158)" fill="url(#linear-gradient)"/>
  <path id="Path_165" data-name="Path 165" d="M231.154,365h-11.43a1.225,1.225,0,0,0,0,2.449h11.43a1.225,1.225,0,0,0,0-2.449Z" transform="translate(-182.823 -310.954)" fill="url(#linear-gradient)"/>
  <path id="Path_166" data-name="Path 166" d="M222.787,395H209.725a1.225,1.225,0,0,0,0,2.449h13.062a1.225,1.225,0,0,0,0-2.449Z" transform="translate(-174.456 -336.056)" fill="url(#linear-gradient)"/>
  <path id="Path_167" data-name="Path 167" d="M222.787,425H209.725a1.225,1.225,0,1,0,0,2.449h13.062a1.225,1.225,0,0,0,0-2.449Z" transform="translate(-174.456 -361.158)" fill="url(#linear-gradient)"/>
  <path id="Path_168" data-name="Path 168" d="M370.154,365h-11.43a1.225,1.225,0,1,0,0,2.449h11.43a1.225,1.225,0,1,0,0-2.449Z" transform="translate(-299.128 -310.954)" fill="url(#linear-gradient)"/>
  <path id="Path_169" data-name="Path 169" d="M361.787,395H348.725a1.225,1.225,0,0,0,0,2.449h13.062a1.225,1.225,0,0,0,0-2.449Z" transform="translate(-290.76 -336.056)" fill="url(#linear-gradient)"/>
  <path id="Path_170" data-name="Path 170" d="M361.787,425H348.725a1.225,1.225,0,1,0,0,2.449h13.062a1.225,1.225,0,1,0,0-2.449Z" transform="translate(-290.76 -361.158)" fill="url(#linear-gradient)"/>
</svg>
